<svg width="250" height="80" viewBox="0 0 250 80" fill="none" xmlns="http://www.w3.org/2000/svg">
<path d="M57.8764 21.4667C61.2737 21.4667 64.223 22.0267 66.7244 23.1467C69.263 24.2667 71.2044 25.872 72.5484 27.9627C73.8924 30.0533 74.5644 32.536 74.5644 35.4107C74.5644 38.248 73.8924 40.7307 72.5484 42.8587C71.2044 44.9493 69.263 46.5547 66.7244 47.6747C64.223 48.7947 61.2737 49.3547 57.8764 49.3547H49.0284V60.6667H41.7484V21.4667H57.8764ZM57.5404 43.1947C60.7137 43.1947 63.1217 42.5227 64.7644 41.1787C66.407 39.8347 67.2284 37.912 67.2284 35.4107C67.2284 32.9093 66.407 30.9867 64.7644 29.6427C63.1217 28.2987 60.7137 27.6267 57.5404 27.6267H49.0284V43.1947H57.5404ZM107.182 60.6667L99.1743 49.1867C98.8383 49.224 98.3343 49.2427 97.6623 49.2427H88.8143V60.6667H81.5343V21.4667H97.6623C101.06 21.4667 104.009 22.0267 106.51 23.1467C109.049 24.2667 110.99 25.872 112.334 27.9627C113.678 30.0533 114.35 32.536 114.35 35.4107C114.35 38.36 113.622 40.8987 112.166 43.0267C110.748 45.1547 108.694 46.7413 106.006 47.7867L115.022 60.6667H107.182ZM107.014 35.4107C107.014 32.9093 106.193 30.9867 104.55 29.6427C102.908 28.2987 100.5 27.6267 97.3263 27.6267H88.8143V43.2507H97.3263C100.5 43.2507 102.908 42.5787 104.55 41.2347C106.193 39.8533 107.014 37.912 107.014 35.4107ZM151.595 54.5627V60.6667H122.195V21.4667H150.811V27.5707H129.475V37.7627H148.403V43.7547H129.475V54.5627H151.595ZM175.539 21.4667C178.936 21.4667 181.886 22.0267 184.387 23.1467C186.926 24.2667 188.867 25.872 190.211 27.9627C191.555 30.0533 192.227 32.536 192.227 35.4107C192.227 38.248 191.555 40.7307 190.211 42.8587C188.867 44.9493 186.926 46.5547 184.387 47.6747C181.886 48.7947 178.936 49.3547 175.539 49.3547H166.691V60.6667H159.411V21.4667H175.539ZM175.203 43.1947C178.376 43.1947 180.784 42.5227 182.427 41.1787C184.07 39.8347 184.891 37.912 184.891 35.4107C184.891 32.9093 184.07 30.9867 182.427 29.6427C180.784 28.2987 178.376 27.6267 175.203 27.6267H166.691V43.1947H175.203ZM199.197 21.4667H206.477V60.6667H199.197V21.4667Z" fill="url(#paint0_linear)"/>
<rect x="2" y="2" width="246" height="76" rx="8" stroke="url(#paint1_linear)" stroke-width="4"/>
<defs>
<linearGradient id="paint0_linear" x1="44" y1="26.5402" x2="210.37" y2="69.6181" gradientUnits="userSpaceOnUse">
<stop stop-color="#03CCCD"/>
<stop offset="1" stop-color="#67AFED"/>
</linearGradient>
<linearGradient id="paint1_linear" x1="11" y1="4.00001" x2="259" y2="80" gradientUnits="userSpaceOnUse">
<stop stop-color="#6BADEE"/>
<stop offset="1" stop-color="#02CCCD"/>
</linearGradient>
</defs>
</svg>
