<svg id="logo" xmlns="http://www.w3.org/2000/svg" width="250" height="80" viewBox="0 0 250 80">
  <path id="Path_1" data-name="Path 1" d="M57.876,21.467a21.5,21.5,0,0,1,8.848,1.68,12.885,12.885,0,0,1,5.824,4.816,13.473,13.473,0,0,1,2.016,7.448,13.65,13.65,0,0,1-2.016,7.448,12.886,12.886,0,0,1-5.824,4.816,21.5,21.5,0,0,1-8.848,1.68H49.028V60.667h-7.28v-39.2ZM57.54,43.195q4.76,0,7.224-2.016a7.027,7.027,0,0,0,2.464-5.768,7.026,7.026,0,0,0-2.464-5.768Q62.3,27.627,57.54,27.627H49.028V43.195Zm49.642,17.472-8.008-11.48a14.939,14.939,0,0,1-1.512.056H88.814V60.667h-7.28v-39.2H97.662a21.5,21.5,0,0,1,8.848,1.68,12.883,12.883,0,0,1,5.824,4.816,13.473,13.473,0,0,1,2.016,7.448,13.157,13.157,0,0,1-2.184,7.616,12.663,12.663,0,0,1-6.16,4.76l9.016,12.88Zm-.168-25.256a7.025,7.025,0,0,0-2.464-5.768q-2.463-2.016-7.224-2.016H88.814V43.251h8.512q4.761,0,7.224-2.016A7.19,7.19,0,0,0,107.014,35.411ZM151.6,54.563v6.1h-29.4v-39.2h28.616v6.1H129.475V37.763H148.4v5.992H129.475V54.563Zm23.944-33.1a21.5,21.5,0,0,1,8.848,1.68,12.883,12.883,0,0,1,5.824,4.816,13.473,13.473,0,0,1,2.016,7.448,13.65,13.65,0,0,1-2.016,7.448,12.884,12.884,0,0,1-5.824,4.816,21.5,21.5,0,0,1-8.848,1.68h-8.848V60.667h-7.28v-39.2ZM175.2,43.195q4.76,0,7.224-2.016a7.025,7.025,0,0,0,2.464-5.768,7.025,7.025,0,0,0-2.464-5.768q-2.465-2.016-7.224-2.016h-8.512V43.195ZM199.2,21.467h7.28v39.2H199.2Z" fill="#fff" stroke="#fff" stroke-width="1"/>
  <rect id="Rectangle_1" data-name="Rectangle 1" width="246" height="76" rx="8" transform="translate(2 2)" fill="rgba(0,0,0,0)" stroke="#fff" stroke-width="4"/>
</svg>
