<svg width="760" height="500" viewBox="0 0 760 500" fill="none" xmlns="http://www.w3.org/2000/svg">
<g clip-path="url(#clip0)">
<path d="M348.667 416.167C326.413 416.231 304.15 416.77 281.935 419.25C273.559 420.185 265.357 422.246 256.957 423.07C240.189 424.727 223.713 427.825 206.882 429.244C193.328 430.393 179.718 431.067 166.202 432.525C153.12 433.937 139.907 433.531 126.935 431.32C117.628 429.648 108.281 428.705 99.123 426.026C88.8602 423.023 77.7685 420.875 67.0951 420.954C51.8825 421.065 37.0962 421.081 22.5151 426.383C17.4074 428.245 11.1471 431.304 7.27089 435.212C-1.5788 444.151 -2.78666 466.461 6.07883 475.733C21.0152 491.362 52.893 497.464 73.837 497.757C96.7783 498.074 119.072 496.362 142.045 495.38C163.36 494.444 184.675 493.113 206.077 493.161C249.757 493.256 293.437 493.161 337.038 490.228C378.003 487.478 419.07 488.421 460.121 488.421C502.222 488.421 544.031 488.754 585.825 494.373C604.037 496.822 622.589 497.678 640.888 499.39C657.277 500.927 673.027 499.39 689.353 497.939C703.143 496.79 716.617 493.167 729.133 487.24C738.993 482.485 756.566 467.816 759.59 456.53C768.068 424.885 640.146 425.622 620.505 425.717C598.535 425.796 576.391 426.51 554.436 425.717C545.2 425.361 536.105 423.554 527.09 421.564C518.074 419.575 509.067 420.09 499.964 419.258C462 415.795 423.949 416.302 385.858 416.302C373.471 416.239 361.069 416.128 348.667 416.167Z" fill="#F1F2F2"/>
<path d="M560.555 0H228.047V220.312H560.555V0Z" fill="#6BADEE"/>
<path d="M568.551 218.006H220.05V232.699H568.551V218.006Z" fill="#D1D2D3"/>
<path d="M246.205 417.951L245.7 422.967L254.778 429.22L260.075 424.822L255.789 419.187L246.71 412.934L246.205 417.951Z" fill="#202B38"/>
<path d="M246.434 264.606L244.894 279.838L258.504 332.176L245.865 416.27L255.173 419.488L279.701 337.383L283.601 313.496L283.459 262.934L246.434 264.606Z" fill="#3B455A"/>
<path d="M317.989 281.582L298.419 422.5H289.522L287.919 332.176L271.735 268.775L317.989 281.582Z" fill="#3B455A"/>
<path d="M299.192 421.382L304 426.446L299.192 431.51L289.577 426.446V421.382H299.192Z" fill="#202B38"/>
<path d="M295.585 171.858C288.48 165.977 271.443 169.353 262.428 169.353C260.557 189.166 256.949 208.884 252.528 228.221C248.707 244.936 241.429 261.23 238.184 277.928C235.295 292.812 228.995 303.519 217.153 313.718C215.306 315.303 213.206 317.372 213.735 319.749C214.066 321.184 215.314 322.198 216.514 323.031C228.45 331.249 243.805 332.105 258.275 332.35C269.264 332.535 280.256 332.535 291.25 332.35C305.571 332.089 321.502 330.401 333.715 322.048C334.504 321.525 335.294 320.843 335.365 319.908C335.299 319.104 334.962 318.346 334.41 317.76C325.884 305.928 326.87 286.369 325.205 272.515C323.326 256.887 321.447 241.211 317.729 225.915C315.323 215.989 312.156 206.265 308.255 196.83C305.279 189.65 301.734 177.897 296.145 172.365C295.977 172.196 295.79 172.027 295.585 171.858Z" fill="#00CCCC"/>
<path d="M274.641 144.865C275.357 140.92 277.584 137.415 280.846 135.101C282.826 135.837 284.601 137.041 286.021 138.61C287.441 140.179 288.465 142.067 289.006 144.116C289.548 146.165 289.591 148.315 289.133 150.384C288.675 152.453 287.728 154.382 286.372 156.007C285.658 153.16 284.13 150.585 281.977 148.598C279.824 146.612 277.14 145.3 274.254 144.825L274.641 144.865Z" fill="#3B455A"/>
<path d="M280.861 173.562C285.108 171.556 287.808 167.047 288.582 162.403C289.356 157.759 288.44 152.98 287.003 148.494C282.266 133.563 263.549 138.556 259.609 151.609C256.183 163.013 268.522 179.418 280.861 173.562Z" fill="#EAC1A4"/>
<path d="M275.667 277.897C278.367 275.836 278.035 271.786 278.754 268.45C279.472 265.113 283.632 261.808 285.859 264.392C290.548 262.458 293.011 257.006 292.964 251.918C292.916 246.83 290.951 241.98 289.016 237.288C282.03 220.582 274.017 204.62 273.898 186.155C273.898 179.918 274.775 173.712 275.683 167.546C276.472 162.054 277.167 156.522 278.114 151.054C278.738 147.432 281.272 144.207 281.556 140.751C281.596 139.54 281.365 138.336 280.88 137.226C280.395 136.117 279.668 135.13 278.754 134.34C277.545 133.134 276.081 132.218 274.471 131.66C272.861 131.101 271.146 130.915 269.454 131.114C256.823 132.366 248.297 141.013 246.236 153.788C244.499 164.59 247.278 175.527 249.283 186.281C252.299 202.457 251.281 221.707 243.41 236.313C240.205 242.265 236.636 248.28 235.863 255.009C235.089 261.737 237.986 269.456 244.31 271.834C246.781 272.753 249.583 272.801 251.818 274.211C252.362 274.533 252.831 274.968 253.192 275.489C253.553 276.009 253.798 276.601 253.909 277.225C254.021 277.849 253.997 278.49 253.839 279.104C253.681 279.718 253.393 280.29 252.994 280.781C256.333 285.243 258.954 281.368 262.317 279.989C266.414 278.364 272.217 280.552 275.667 277.897Z" fill="#3B455A"/>
<path d="M284.382 171.128L327.502 168.038L349.235 143.47L360.027 149.929L336.201 183.508L289.648 193.303L284.382 171.128Z" fill="#41D5D5"/>
<path d="M351.896 145.063L354.114 137.344H356.854L357.706 135.101H361.993L365.924 140.949L358.077 148.764L351.896 145.063Z" fill="#EAC1A4"/>
<path d="M354.114 137.343L351.896 125.139L355.827 123.593L358.914 137.343H354.114Z" fill="white"/>
<path d="M502.333 415.613L511.332 407.268C513.945 405.944 516.708 405.017 518.943 405.041C519.673 404.99 520.404 405.128 521.067 405.44C521.73 405.752 522.303 406.228 522.732 406.824C523.118 407.412 523.356 408.086 523.428 408.786C523.499 409.487 523.401 410.195 523.142 410.85C522.939 411.307 522.673 411.734 522.353 412.118C522.085 412.459 521.793 412.776 521.5 413.093L520.893 413.735C519.029 415.763 515.911 419.06 514.672 419.805C512.856 420.899 508.854 423.815 504.133 420.534L504.188 420.487C503.42 419.961 502.831 419.213 502.5 418.341C502.168 417.47 502.11 416.518 502.333 415.613Z" fill="#3C3C3C"/>
<path d="M509.398 342.923L510.125 353.4L513.693 404.391L510.125 410.319C510.125 410.319 509.398 415.074 514.861 414.701C516.48 414.59 522.227 407.259 522.227 407.259L521.398 403.899L525.44 365.613V354.518L527.35 342.146L509.398 342.923Z" fill="#E8C8BA"/>
<path d="M566.452 402.663C567.184 402.364 567.98 402.258 568.764 402.354C569.549 402.45 570.296 402.744 570.936 403.209C571.523 403.682 571.989 404.287 572.297 404.976C572.604 405.665 572.744 406.418 572.704 407.172C572.563 408.173 572.248 409.142 571.773 410.033C569.602 414.788 563.499 425.455 556.505 423.506C553.568 422.713 552.455 419.67 553.047 417.007C553.963 413.021 560.854 404.43 566.452 402.663Z" fill="#3C3C3C"/>
<path d="M531.195 336.821L532.411 351.879L561.904 405.183C561.904 405.183 557.665 412.617 560.326 413.267C562.986 413.917 570.896 411.682 570.912 403.265C567.809 393.097 555.62 358.575 555.62 358.575L549.913 349.667L550 332.929L531.195 336.821Z" fill="#E8C8BA"/>
<path d="M564.517 286.321C564.746 281.875 563.333 270.273 561.881 266.12C556.576 250.967 555.565 243.493 555.565 231.154C555.565 218.814 561.02 179.704 561.02 179.704L542.073 168.291L519.369 168.933L506.738 173.11C506.738 173.11 504.069 222.317 503.312 238.183C502.775 249.501 501.985 259.304 500.943 272.42C500.943 272.42 498.054 302.338 502.522 334.403C502.522 334.403 503.517 345.055 503.967 345.982L504.062 346.465H554.736V328.19C556.415 322.325 558.018 316.437 559.544 310.525C561.502 303.019 564.083 294.571 564.517 286.321Z" fill="#D7E8F4"/>
<path d="M513.59 152.599C512.485 156.903 515.027 161.151 517.254 164.78C518.161 166.262 519.575 168.323 518.398 170.019C517.088 171.913 513.827 171.533 512.39 170.114C511.459 169.062 510.793 167.801 510.448 166.437C508.514 160.509 505.806 152.172 506.335 145.982C506.762 140.989 512.864 132.121 519.148 135.291C520.223 135.94 521.09 136.887 521.643 138.017C522.047 138.629 522.317 139.321 522.432 140.046C522.732 142.939 519.953 143.684 518.122 145.237C515.905 147.175 514.325 149.742 513.59 152.599Z" fill="#3B455A"/>
<path d="M524.074 168.062C519.874 167.523 516.369 164.582 514.49 161.032C512.611 157.481 512.161 153.408 512.24 149.429C512.485 136.186 529.979 135.449 536.776 144.968C542.705 153.257 536.279 169.599 524.074 168.062Z" fill="#E8C8BA"/>
<path d="M536.034 151.213C536.176 152.798 536.989 154.517 537.218 156.166C537.629 159.201 536.958 163.132 538.063 165.906C541.422 165.278 544.544 163.735 547.086 161.444C549.407 159.288 548.989 156.079 549.51 152.901C549.992 149.96 550.599 147.004 550.434 144.032C549.518 127.746 533.326 118.838 519.069 126.185C513.669 128.967 511.317 136.028 515.28 140.672C519.55 145.665 528.219 143.501 533.334 147.202C534.592 148.258 535.527 149.648 536.034 151.213Z" fill="#3B455A"/>
<path d="M523.727 166.69L524.366 169.647C524.461 170.098 524.429 171.39 524.816 171.699C524.934 171.768 525.065 171.812 525.201 171.83C525.336 171.848 525.474 171.838 525.606 171.802C526.395 171.707 533.153 170.843 533.082 170.407C532.902 169.254 532.638 168.115 532.292 166.999C532 166.104 531.889 164.416 531.353 163.734C530.219 164.492 528.968 165.055 527.65 165.399C526.34 165.774 525.024 166.125 523.703 166.453L523.727 166.69Z" fill="#E8C8BA"/>
<path d="M458.266 270.249L523.995 245.966C524.975 245.56 525.756 244.782 526.165 243.8C526.575 242.818 526.581 241.714 526.182 240.728L492.046 147.591C491.714 146.579 490.996 145.74 490.048 145.259C489.101 144.777 488.003 144.693 486.994 145.023L421.264 169.306C420.284 169.711 419.504 170.49 419.094 171.472C418.684 172.454 418.678 173.558 419.078 174.544L453.221 267.689C453.555 268.698 454.273 269.533 455.218 270.013C456.163 270.492 457.259 270.577 458.266 270.249Z" fill="#3B455A"/>
<path d="M481.855 212.236L499.064 205.896C499.59 205.68 500.01 205.264 500.23 204.738C500.451 204.212 500.454 203.62 500.241 203.091L493.625 185.037C493.447 184.495 493.061 184.047 492.554 183.79C492.046 183.533 491.458 183.488 490.917 183.666L473.708 190.006C473.182 190.223 472.762 190.639 472.542 191.165C472.321 191.691 472.318 192.283 472.531 192.812L479.147 210.865C479.325 211.407 479.711 211.856 480.218 212.113C480.726 212.37 481.314 212.414 481.855 212.236Z" fill="#3685D3"/>
<path d="M450.119 223.958L467.329 217.618C467.855 217.401 468.274 216.985 468.494 216.459C468.715 215.933 468.719 215.341 468.505 214.812L461.889 196.759C461.711 196.217 461.325 195.768 460.818 195.511C460.31 195.254 459.722 195.21 459.181 195.387L441.971 201.728C441.445 201.944 441.026 202.36 440.806 202.886C440.585 203.412 440.581 204.004 440.795 204.533L447.411 222.587C447.589 223.129 447.975 223.577 448.482 223.834C448.99 224.091 449.578 224.136 450.119 223.958Z" fill="#3685D3"/>
<path d="M492.67 241.718L509.88 235.378C510.406 235.162 510.825 234.745 511.045 234.219C511.266 233.693 511.27 233.101 511.056 232.572L504.456 214.527C504.278 213.985 503.892 213.536 503.385 213.279C502.877 213.022 502.289 212.978 501.748 213.156L484.539 219.496C484.013 219.712 483.593 220.129 483.373 220.655C483.152 221.181 483.149 221.773 483.362 222.301L489.978 240.355C490.158 240.892 490.542 241.335 491.045 241.591C491.549 241.846 492.133 241.891 492.67 241.718Z" fill="#3685D3"/>
<path d="M460.934 253.471L478.144 247.131C478.67 246.915 479.089 246.498 479.31 245.972C479.53 245.447 479.534 244.854 479.32 244.326L472.705 226.272C472.526 225.73 472.141 225.281 471.633 225.024C471.125 224.767 470.537 224.723 469.997 224.901L452.787 231.241C452.261 231.457 451.842 231.874 451.621 232.4C451.401 232.926 451.397 233.518 451.611 234.047L458.226 252.1C458.405 252.642 458.79 253.091 459.298 253.348C459.805 253.605 460.394 253.649 460.934 253.471Z" fill="#6BADEE"/>
<path d="M483.07 192.043C482.956 191.739 482.956 191.404 483.07 191.1C483.121 190.962 483.201 190.838 483.307 190.737C483.412 190.635 483.539 190.559 483.678 190.514C483.814 190.458 483.96 190.434 484.106 190.442C484.252 190.45 484.394 190.491 484.523 190.561C484.805 190.723 485.017 190.987 485.115 191.298L487.104 196.727L491.967 194.928C492.109 194.876 492.26 194.854 492.411 194.863C492.562 194.873 492.709 194.914 492.844 194.983C492.983 195.045 493.109 195.135 493.213 195.246C493.318 195.358 493.399 195.49 493.451 195.633C493.512 195.769 493.543 195.916 493.543 196.065C493.543 196.214 493.512 196.361 493.451 196.497C493.383 196.633 493.289 196.755 493.174 196.854C493.059 196.953 492.925 197.029 492.78 197.076L487.878 198.922L489.875 204.367C489.991 204.665 489.991 204.996 489.875 205.294C489.831 205.432 489.756 205.559 489.656 205.665C489.556 205.77 489.434 205.852 489.299 205.904C489.164 205.961 489.017 205.987 488.871 205.978C488.725 205.97 488.582 205.929 488.454 205.857C488.178 205.687 487.974 205.422 487.878 205.112L485.881 199.667L480.994 201.474C480.855 201.533 480.706 201.564 480.556 201.564C480.405 201.564 480.256 201.533 480.118 201.474C479.983 201.413 479.862 201.324 479.763 201.214C479.663 201.103 479.588 200.973 479.541 200.832C479.483 200.69 479.452 200.538 479.452 200.384C479.452 200.231 479.483 200.078 479.541 199.937C479.601 199.796 479.689 199.669 479.801 199.566C479.912 199.462 480.044 199.383 480.189 199.334L485.075 197.527L483.07 192.043Z" fill="#ECECEC"/>
<path d="M449.574 213.409C449.487 213.441 449.394 213.454 449.301 213.447C449.209 213.44 449.119 213.414 449.037 213.37C448.951 213.333 448.873 213.278 448.808 213.21C448.743 213.142 448.692 213.062 448.658 212.974L448.098 211.436C448.062 211.358 448.043 211.273 448.043 211.186C448.043 211.1 448.062 211.015 448.098 210.937C448.192 210.773 448.344 210.651 448.524 210.596L459.687 206.475C459.763 206.441 459.845 206.424 459.928 206.424C460.01 206.424 460.092 206.441 460.168 206.475C460.244 206.514 460.31 206.568 460.365 206.633C460.419 206.698 460.46 206.774 460.484 206.855L461.045 208.393C461.111 208.572 461.111 208.769 461.045 208.948C461.015 209.028 460.968 209.1 460.906 209.159C460.845 209.218 460.77 209.262 460.689 209.288L449.574 213.409Z" fill="#ECECEC"/>
<path d="M459.055 238.722C458.968 238.754 458.875 238.767 458.783 238.76C458.69 238.753 458.6 238.727 458.519 238.683C458.434 238.645 458.357 238.59 458.293 238.522C458.23 238.454 458.18 238.374 458.148 238.287L457.587 236.749C457.551 236.671 457.532 236.586 457.532 236.499C457.532 236.413 457.551 236.328 457.587 236.25C457.681 236.086 457.833 235.964 458.013 235.909L469.176 231.788C469.252 231.755 469.334 231.737 469.417 231.737C469.5 231.737 469.582 231.755 469.658 231.788C469.733 231.827 469.8 231.881 469.854 231.946C469.908 232.011 469.949 232.087 469.973 232.168L470.534 233.706C470.601 233.885 470.601 234.082 470.534 234.261C470.504 234.341 470.457 234.413 470.395 234.472C470.334 234.531 470.26 234.575 470.179 234.601L459.055 238.722Z" fill="#ECECEC"/>
<path d="M461.116 244.357C461.028 244.389 460.936 244.402 460.843 244.395C460.751 244.388 460.661 244.362 460.579 244.318C460.493 244.28 460.415 244.226 460.349 244.158C460.284 244.09 460.234 244.01 460.2 243.921L459.639 242.384C459.603 242.306 459.585 242.221 459.585 242.134C459.585 242.048 459.603 241.963 459.639 241.885C459.733 241.721 459.886 241.599 460.066 241.544L471.229 237.423C471.304 237.389 471.386 237.372 471.469 237.372C471.552 237.372 471.634 237.389 471.71 237.423C471.786 237.462 471.852 237.515 471.907 237.581C471.961 237.646 472.001 237.722 472.026 237.803L472.586 239.341C472.653 239.52 472.653 239.717 472.586 239.895C472.557 239.976 472.51 240.048 472.448 240.107C472.386 240.166 472.312 240.21 472.231 240.236L461.116 244.357Z" fill="#ECECEC"/>
<path d="M491.959 230.369C491.872 230.401 491.779 230.414 491.687 230.407C491.594 230.4 491.504 230.374 491.423 230.33C491.336 230.293 491.258 230.238 491.193 230.17C491.128 230.102 491.077 230.022 491.044 229.934L490.483 228.396C490.447 228.318 490.428 228.233 490.428 228.146C490.428 228.06 490.447 227.975 490.483 227.897C490.577 227.733 490.729 227.611 490.909 227.556L502.072 223.435C502.148 223.401 502.23 223.384 502.313 223.384C502.396 223.384 502.478 223.401 502.554 223.435C502.629 223.474 502.696 223.528 502.75 223.593C502.804 223.658 502.845 223.734 502.87 223.815L503.43 225.353C503.497 225.532 503.497 225.729 503.43 225.908C503.401 225.988 503.353 226.06 503.292 226.119C503.23 226.178 503.156 226.222 503.075 226.248L491.959 230.369Z" fill="#ECECEC"/>
<path d="M496.222 224.897C497.024 224.601 497.417 223.661 497.101 222.799C496.785 221.936 495.879 221.477 495.077 221.773C494.275 222.069 493.881 223.009 494.197 223.872C494.513 224.734 495.42 225.193 496.222 224.897Z" fill="#ECECEC"/>
<path d="M498.879 232.123C499.681 231.827 500.075 230.888 499.759 230.025C499.443 229.162 498.536 228.703 497.734 229C496.932 229.296 496.538 230.235 496.854 231.098C497.171 231.96 498.077 232.42 498.879 232.123Z" fill="#ECECEC"/>
<path d="M425.33 191.615L498.472 165.121L492.157 147.995C491.969 147.483 491.683 147.013 491.314 146.612C490.946 146.21 490.502 145.886 490.009 145.657C489.516 145.428 488.982 145.299 488.439 145.277C487.896 145.256 487.354 145.342 486.844 145.53L421.675 169.599C421.165 169.787 420.696 170.074 420.297 170.444C419.897 170.814 419.574 171.26 419.346 171.755C419.118 172.25 418.99 172.786 418.968 173.331C418.946 173.876 419.032 174.421 419.22 174.933L425.33 191.615Z" fill="#3B455A"/>
<path d="M487.163 157.39L427.929 179.269L433.043 193.222L492.277 171.343L487.163 157.39Z" fill="#ECECEC"/>
<path d="M556.528 176.264L565.031 180.916L566.546 194.405L557.081 228.443L501.354 245.253L485.068 248.47L481.72 244.31L484.61 239.293L491.636 237.494L490.965 233.444L498.591 234.585L543.313 217.808L550.971 189.269L556.528 176.264Z" fill="#E8C8BA"/>
<path d="M136.89 340.664L95.128 325.242L103.733 398.692L97.9542 466.017L97.82 466.437L97.9227 466.453L97.9069 466.587L106.149 467.38V467.372L106.457 467.404L125.64 406.982L135.382 346.846L136.89 340.664Z" fill="#3B455A"/>
<path d="M106.512 466.302L97.9623 466.088L95.7834 473.324L95.9966 473.387L95.9413 473.395L110.072 481.796L116.783 482.549L117.643 474.838L115.827 473.506L106.512 466.302Z" fill="#202B38"/>
<path d="M165.334 341.924L152.805 472.436L144.532 472.809L136.227 400.151L121.835 332.525L165.334 341.924Z" fill="#3B455A"/>
<path d="M152.782 470.598L163.731 476.827L162.705 482.018L143.142 479.054L144.287 471.58L152.782 470.598Z" fill="#202B38"/>
<path d="M184.92 373.506C187.565 371.667 187.62 368.458 187.612 365.248C187.477 359.153 186.651 353.094 185.149 347.187C182.528 336.186 179.552 322.943 178.249 308.694C174.87 271.866 163.25 247.155 163.25 247.155L159.508 237.145C158.766 235.846 157.992 234.559 157.187 233.286C152.521 225.931 144.414 213.433 135.738 211.389L135.193 211.262C126.075 209.257 114.399 210.184 106.157 214.638C104.621 215.529 103.17 216.561 101.823 217.721C97.7967 220.986 94.5126 222.745 92.7758 227.722C91.268 232.042 90.9206 236.749 90.0838 241.195C88.4181 250.301 87.4234 259.502 86.0498 268.664C83.5235 285.806 81.3762 302.996 78.6684 320.114C77.279 328.919 75.8738 337.748 75.2185 346.648C74.6344 354.517 67.5688 362.498 63.59 369.559C62.2085 372.016 82.063 378.372 83.8472 378.784C92.0811 380.71 100.852 380.219 109.338 380.258C127.948 380.343 146.545 379.767 165.129 378.531C171.302 378.119 178.904 376.946 184.375 373.855C184.575 373.733 184.757 373.617 184.92 373.506Z" fill="#BCBEC0"/>
<path d="M125.009 210.255C125.009 210.255 114.525 207.418 113.08 231.162C111.635 254.906 109.22 314.995 105.841 331.471C102.462 347.948 97.3939 380.266 97.3939 380.266L129.469 381.376L166.155 378.467C166.155 378.467 153.602 355.207 151.676 338.731C149.75 322.254 153.152 260.232 144.934 236.963C136.716 213.695 134.995 210.667 125.009 210.255Z" fill="white"/>
<path d="M172.447 263.14L174.863 266.048L191.354 262.641L148.795 215.169L135.761 211.286L142.037 228.245L172.447 263.14Z" fill="#BCBEC0"/>
<path d="M131.474 187.573C134.561 191.536 134.095 197.084 133.653 201.902C133.259 206.142 133.519 208.749 138.137 208.242C140.743 207.941 145.384 207.45 146.821 204.842C147.926 202.869 145.495 198.859 144.106 197.416C143.048 196.315 141.24 196.204 140.206 195.039C139.813 194.545 139.518 193.98 139.337 193.375C138.435 190.954 137.903 188.41 137.758 185.83C137.784 184.078 137.633 182.328 137.308 180.607C136.669 178.15 134.009 175.971 132.351 174.101C129.272 170.613 121.622 167.182 117.975 172.088C117.232 173.275 116.838 174.648 116.838 176.05C116.727 176.877 116.783 177.718 117.004 178.523C118.07 181.693 121.101 181.178 123.596 181.97C126.718 183.012 129.46 184.962 131.474 187.573Z" fill="#3B455A"/>
<path d="M128.593 208.433C132.398 205.976 134.403 201.3 134.553 196.783C134.703 192.265 133.227 187.795 131.285 183.698C124.843 170.043 107.601 177.207 105.501 190.181C103.67 201.458 117.54 215.565 128.593 208.433Z" fill="#EAC1A4"/>
<path d="M128.048 206.848L129.548 211.761C129.616 211.879 129.653 212.012 129.654 212.148C129.656 212.285 129.623 212.419 129.558 212.538C129.493 212.658 129.398 212.758 129.283 212.83C129.168 212.903 129.036 212.944 128.901 212.95L124.954 214.21C124.313 214.469 123.622 214.577 122.933 214.527C121.441 214.297 120.564 212.688 120.28 211.198C119.996 209.708 119.98 208.108 119.191 206.824C122.348 207.196 123.872 203.257 127.085 203.654L128.048 206.848Z" fill="#EAC1A4"/>
<path d="M106.781 164.741C102.731 167.958 101.428 173.688 97.5915 177.16C95.3889 179.149 92.389 180.377 90.9365 182.969C87.676 188.778 94.5284 196.085 92.3969 202.393C91.9548 203.709 91.1417 204.866 90.6917 206.182C89.7286 209.011 90.5654 212.102 91.4022 214.971C91.5931 215.643 91.8579 216.291 92.1917 216.904C95.0968 223.181 104.341 219.425 107.925 217.697C111.873 215.779 109.686 213.988 109.686 213.988L109.473 213.861C108.821 212.602 108.5 211.196 108.54 209.778C108.58 208.359 108.98 206.974 109.702 205.754C110.346 204.926 110.86 204.004 111.225 203.019C111.778 200.729 109.749 198.676 109.149 196.402C106.71 187.225 122.301 183.825 124.259 175.979C126.635 166.318 114.47 158.67 106.781 164.741Z" fill="#3B455A"/>
<path d="M73.0162 313.829L80.3265 321.271L83.6343 318.276L79.7581 312.062L81.9764 311.373L74.9424 305.762L71.09 308.417L73.0162 313.829Z" fill="#DEC9AD"/>
<path d="M105.707 249.073L81.2104 267.784L77.3579 304.494L69.2345 310.572L60.5821 256.808L101.862 217.721L105.707 249.073Z" fill="#BCBEC0"/>
<path d="M106.601 250.727L101.614 250.212L92.0805 343.302L97.0672 343.817L106.601 250.727Z" fill="#3B455A"/>
<path d="M149.93 255.199L144.943 254.685L135.41 347.775L140.396 348.289L149.93 255.199Z" fill="#3B455A"/>
<path d="M193.242 259.679L188.256 259.164L178.722 352.254L183.709 352.768L193.242 259.679Z" fill="#3B455A"/>
<path d="M221.373 256.688L79.3506 242.03L78.1573 253.682L220.18 268.34L221.373 256.688Z" fill="#3B455A"/>
<path d="M211.837 349.776L69.8144 335.117L68.6211 346.77L210.644 361.428L211.837 349.776Z" fill="#3B455A"/>
<path d="M115.015 264.213L90.6548 261.699C87.5798 261.382 84.8307 263.627 84.5145 266.714L84.3813 268.015C84.0652 271.102 86.3017 273.862 89.3767 274.179L113.737 276.693C116.812 277.011 119.561 274.765 119.877 271.678L120.01 270.378C120.327 267.291 118.09 264.531 115.015 264.213Z" fill="#6BADEE"/>
<path d="M112.164 292.036L87.8034 289.522C84.7284 289.205 81.9793 291.45 81.6632 294.537L81.5299 295.838C81.2138 298.925 83.4503 301.685 86.5253 302.002L110.886 304.516C113.961 304.834 116.71 302.588 117.026 299.501L117.159 298.2C117.475 295.113 115.239 292.354 112.164 292.036Z" fill="#6BADEE"/>
<path d="M110.572 307.586L86.2118 305.071C83.1368 304.754 80.3877 306.999 80.0715 310.086L79.9383 311.387C79.6221 314.474 81.8587 317.234 84.9337 317.551L109.294 320.066C112.369 320.383 115.118 318.138 115.434 315.051L115.567 313.75C115.884 310.663 113.647 307.903 110.572 307.586Z" fill="#6BADEE"/>
<path d="M108.964 323.299L84.6041 320.785C81.5291 320.468 78.78 322.713 78.4639 325.8L78.3307 327.101C78.0145 330.188 80.251 332.948 83.326 333.265L107.686 335.779C110.761 336.097 113.51 333.851 113.827 330.764L113.96 329.464C114.276 326.377 112.039 323.617 108.964 323.299Z" fill="#6BADEE"/>
<path d="M158.191 267.053L133.947 264.595C130.887 264.285 128.155 266.524 127.846 269.596L127.716 270.891C127.407 273.963 129.637 276.705 132.698 277.015L156.941 279.474C160.002 279.784 162.733 277.545 163.042 274.473L163.172 273.178C163.482 270.106 161.251 267.364 158.191 267.053Z" fill="#6BADEE"/>
<path d="M156.608 282.875L132.364 280.417C129.304 280.106 126.572 282.345 126.263 285.417L126.133 286.712C125.824 289.784 128.054 292.526 131.114 292.837L155.358 295.295C158.418 295.605 161.15 293.366 161.459 290.294L161.589 289C161.898 285.927 159.668 283.185 156.608 282.875Z" fill="#6BADEE"/>
<path d="M153.892 312.065L129.532 309.551C126.457 309.234 123.708 311.479 123.392 314.566L123.258 315.867C122.942 318.954 125.179 321.713 128.254 322.031L152.614 324.545C155.689 324.862 158.438 322.617 158.754 319.53L158.888 318.229C159.204 315.142 156.967 312.383 153.892 312.065Z" fill="#6BADEE"/>
<path d="M152.277 327.763L127.917 325.249C124.842 324.931 122.093 327.177 121.777 330.264L121.644 331.564C121.328 334.651 123.564 337.411 126.639 337.729L150.999 340.243C154.074 340.56 156.823 338.315 157.14 335.228L157.273 333.927C157.589 330.84 155.352 328.08 152.277 327.763Z" fill="#6BADEE"/>
<path d="M201.649 273.156L177.288 270.642C174.213 270.325 171.464 272.57 171.148 275.657L171.015 276.958C170.699 280.045 172.935 282.805 176.01 283.122L200.371 285.636C203.446 285.954 206.195 283.708 206.511 280.621L206.644 279.321C206.96 276.234 204.724 273.474 201.649 273.156Z" fill="#6BADEE"/>
<path d="M198.798 300.971L174.438 298.457C171.363 298.139 168.614 300.385 168.298 303.472L168.164 304.773C167.848 307.86 170.085 310.619 173.16 310.937L197.52 313.451C200.595 313.768 203.344 311.523 203.66 308.436L203.793 307.135C204.11 304.048 201.873 301.288 198.798 300.971Z" fill="#6BADEE"/>
<path d="M197.206 316.529L172.845 314.015C169.77 313.697 167.021 315.942 166.705 319.029L166.572 320.33C166.256 323.417 168.492 326.177 171.567 326.494L195.928 329.009C199.003 329.326 201.752 327.081 202.068 323.994L202.201 322.693C202.517 319.606 200.281 316.846 197.206 316.529Z" fill="#6BADEE"/>
<path d="M195.598 332.242L171.238 329.728C168.163 329.411 165.414 331.656 165.098 334.743L164.965 336.044C164.648 339.131 166.885 341.89 169.96 342.208L194.32 344.722C197.395 345.039 200.144 342.794 200.46 339.707L200.594 338.406C200.91 335.32 198.673 332.56 195.598 332.242Z" fill="#6BADEE"/>
<path d="M210.577 267.356L206.63 263.893L200.204 267.745L200.567 277.706L206.567 279.973L210.577 267.356Z" fill="#EAC1A4"/>
<path d="M560.318 282.834L555.281 283.999C553.441 284.427 547.339 291.251 546.068 292.788C545.342 293.668 553.726 294.468 554.531 294.318C555.897 294.072 558.344 291.441 559.623 290.577L562.354 291.686L564.667 288.691L560.318 282.834Z" fill="#EAC1A4"/>
<path d="M683.266 469.956L683.976 475.511L673.619 482.493L667.374 477.659L672.198 471.39L682.555 464.408L683.266 469.956Z" fill="#202B38"/>
<path d="M683.613 468.093L675.632 397.266L685.232 317.974L683.077 301.11L640.17 299.469L638.623 326.922L645.823 397.377L672.924 471.715L683.613 468.093Z" fill="#3B455A"/>
<path d="M633.333 222.642L614.047 234.023L601.842 255.342L558.462 281.717L564.841 291.892L602.237 279.379L621.358 269.48L633.333 222.642Z" fill="#6BADEE"/>
<path d="M608.679 307.41L608.569 378.88L622.897 470.891L633.215 470.788L638.883 385.703L652.154 300.539L608.679 307.41Z" fill="#3B455A"/>
<path d="M633.199 475.154L622.1 480.869L616.471 475.329L621.989 469.67L633.144 469.559L633.199 475.154Z" fill="#3B455A"/>
<path d="M689.676 331.716C689.581 328.618 689.407 326.034 689.384 325.115C689.163 316.809 688.429 308.519 687.386 300.269C686.455 292.875 685.287 274.52 684.023 267.174C682.981 261.111 679.358 245.966 676.737 240.339C670.224 226.343 672.237 225.051 643.58 220.899C631.036 219.076 628.076 226.922 617.821 235.956C616.81 236.844 616.866 242.146 616.629 243.549C616.218 246.021 615.776 248.486 615.263 250.943C614.86 252.877 614.426 254.795 613.929 256.705C613.929 256.705 605.324 296.029 599.624 304.382C593.924 312.736 582.169 324.409 601.842 331.542C605.307 332.746 608.86 333.676 612.468 334.324C612.468 334.324 628.557 332.533 636.831 332.588C644.465 332.677 652.079 333.39 659.598 334.72C664.611 335.56 669.719 336.781 674.203 339.134C678.482 341.377 681.56 344.682 685.902 346.996C686.294 347.258 686.758 347.391 687.229 347.377C689.763 347.028 689.881 338.239 689.676 331.716Z" fill="#6BADEE"/>
<path d="M644.686 222.444C646.067 223.237 649.422 223.799 653.101 222.682C653.463 222.575 653.784 222.36 654.021 222.066C654.257 221.771 654.399 221.411 654.427 221.033C654.573 218.87 654.573 216.699 654.427 214.535C657.159 213.806 660.34 212.641 661.027 209.891C661.195 209.01 661.213 208.107 661.082 207.22L660.064 196.18C660.027 194.9 659.74 193.64 659.219 192.471C658.177 190.49 655.927 189.483 653.756 188.921C648.23 187.502 642.041 188.231 637.407 191.568C636.132 192.407 635.1 193.569 634.415 194.936C633.46 197.076 633.854 199.556 634.265 201.87L635.41 208.274C635.852 210.731 636.539 213.528 638.781 214.614C639.965 215.193 641.425 215.161 642.475 215.961C644.33 217.372 643.833 220.273 644.686 222.444Z" fill="#EAC1A4"/>
<path d="M615.224 183.682C614.759 182.734 614.231 181.817 613.645 180.94C612.35 179.046 610.7 177.389 609.697 175.321C608.695 173.252 608.505 170.566 610.029 168.846C611.116 167.819 612.497 167.162 613.976 166.968C618.762 165.964 623.729 166.265 628.36 167.84C632.741 169.337 636.602 171.548 641.236 170.217C645.594 168.965 648.594 169.853 652.896 171.802C657.546 173.894 663.948 174.814 668.077 177.572C669.781 178.78 671.166 180.388 672.111 182.255C673.778 185.471 674.513 189.091 674.234 192.706C673.955 196.32 672.673 199.783 670.532 202.702C669.54 203.98 668.439 205.168 667.24 206.253C664.793 208.535 661.848 211.357 658.675 212.014C658.817 209.217 662.046 200.626 660.088 198.169C656.985 194.27 649.233 194.928 644.962 195.49C640.304 196.101 635.962 199.033 631.368 199.374C628.06 199.612 624.018 197.678 621.365 195.76C618.089 193.374 616.968 187.153 615.224 183.682Z" fill="#3B455A"/>
<path d="M666.474 226.074L686.771 231.305L671.148 198.367L676.871 186.234L707.541 234.514L703.815 253.36L666.751 259.859L666.474 226.074Z" fill="#6BADEE"/>
<path d="M676.28 189.483C675.335 185.651 673.941 181.946 672.127 178.444C671.535 177.302 670.635 176.066 669.364 176.114C667.903 176.201 667.217 177.96 666.995 179.418C666.651 182.178 666.866 184.979 667.627 187.653C667.311 188.199 666.53 187.24 665.914 187.375C665.777 187.424 665.655 187.509 665.563 187.622C665.471 187.736 665.412 187.872 665.393 188.017C664.343 191.845 669.269 194.492 671.511 196.362C673.509 193.985 674.172 191.163 676.84 189.23L676.28 189.483Z" fill="#EAC1A4"/>
<path d="M510.077 293.533H448.058V355.793H510.077V293.533Z" fill="white"/>
<path d="M511.167 356.887H446.961V292.439H511.167V356.887ZM449.148 354.692H508.98V294.627H449.148V354.692Z" fill="#00CCCC"/>
<path d="M572.088 293.182H510.069V355.442H572.088V293.182Z" fill="white"/>
<path d="M573.186 356.887H508.98V292.439H573.186V356.887ZM511.167 354.692H570.999V294.627H511.167V354.692Z" fill="#00CCCC"/>
<path d="M634.107 293.533H572.088V355.793H634.107V293.533Z" fill="white"/>
<path d="M635.204 356.887H570.999V292.439H635.204V356.887ZM573.186 354.692H633.018V294.627H573.186V354.692Z" fill="#00CCCC"/>
<path d="M510.077 355.793H448.058V418.054H510.077V355.793Z" fill="white"/>
<path d="M511.167 418.796H446.961V354.348H511.167V418.796ZM449.148 416.6H508.98V356.536H449.148V416.6Z" fill="#00CCCC"/>
<path d="M572.088 355.793H510.069V418.054H572.088V355.793Z" fill="white"/>
<path d="M573.186 419.147H508.98V354.7H573.186V419.147ZM511.167 416.952H570.999V356.887H511.167V416.952Z" fill="#00CCCC"/>
<path d="M634.107 355.793H572.088V418.054H634.107V355.793Z" fill="white"/>
<path d="M635.204 419.147H570.999V354.7H635.204V419.147ZM573.186 416.952H633.018V356.887H573.186V416.952Z" fill="#00CCCC"/>
<path d="M510.077 418.054H448.058V480.314H510.077V418.054Z" fill="white"/>
<path d="M511.167 481.408H446.961V416.952H511.167V481.408ZM449.148 479.212H508.98V419.147H449.148V479.212Z" fill="#00CCCC"/>
<path d="M572.088 418.054H510.069V480.314H572.088V418.054Z" fill="white"/>
<path d="M573.186 481.408H508.98V416.952H573.186V481.408ZM511.167 479.212H570.999V419.147H511.167V479.212Z" fill="#00CCCC"/>
<path d="M634.107 418.054H572.088V480.314H634.107V418.054Z" fill="white"/>
<path d="M635.204 481.408H570.999V416.952H635.204V481.408ZM573.186 479.212H633.018V419.147H573.186V479.212Z" fill="#00CCCC"/>
<path d="M614.576 336.527V342.138H592.701V336.979L603.303 325.662C605.508 323.268 606.611 321.084 606.611 319.108C606.653 318.573 606.575 318.036 606.384 317.536C606.193 317.035 605.893 316.584 605.506 316.215C604.592 315.514 603.456 315.17 602.308 315.248C599.593 315.248 596.774 316.281 593.853 318.347L591.619 313.314C593.067 312.116 594.739 311.221 596.537 310.683C598.504 310.044 600.557 309.718 602.624 309.716C605.934 309.716 608.566 310.509 610.518 312.094C611.471 312.866 612.231 313.85 612.74 314.969C613.248 316.087 613.49 317.309 613.447 318.537C613.466 320.316 613.077 322.076 612.311 323.68C611.297 325.603 610.006 327.365 608.482 328.911L601.282 336.456L614.576 336.527Z" fill="#3B455A"/>
<path d="M615.974 453.804C617.189 455.592 617.69 457.773 617.379 459.915C617.067 462.056 615.966 464.002 614.292 465.367C612.187 466.984 609.308 467.792 605.656 467.792C603.513 467.796 601.384 467.469 599.34 466.825C597.536 466.301 595.861 465.405 594.422 464.194L596.656 459.161C599.155 461.111 602.215 462.198 605.379 462.26C607.316 462.26 608.726 461.922 609.611 461.246C610.07 460.855 610.429 460.36 610.659 459.802C610.888 459.243 610.981 458.638 610.929 458.036C610.978 457.454 610.883 456.869 610.654 456.333C610.424 455.796 610.065 455.325 609.611 454.961C608.732 454.317 607.321 453.994 605.379 453.994H600.769V448.518H604.574C606.011 448.622 607.445 448.285 608.687 447.551C609.138 447.213 609.497 446.766 609.732 446.253C609.966 445.739 610.068 445.175 610.029 444.611C610.067 444.052 609.98 443.492 609.775 442.971C609.57 442.45 609.253 441.982 608.845 441.599C607.881 440.855 606.68 440.488 605.466 440.569C604.028 440.583 602.604 440.851 601.258 441.361C599.752 441.926 598.335 442.705 597.051 443.676L594.816 438.643C596.264 437.445 597.936 436.55 599.735 436.012C601.73 435.369 603.813 435.042 605.908 435.045C607.849 435.005 609.777 435.372 611.568 436.123C613.078 436.752 614.381 437.796 615.326 439.135C616.18 440.488 616.634 442.057 616.634 443.66C616.634 445.262 616.18 446.832 615.326 448.185C614.427 449.484 613.142 450.466 611.655 450.991C613.367 451.418 614.888 452.408 615.974 453.804Z" fill="#3B455A"/>
<path d="M548.76 321.105C550.275 321.938 551.517 323.193 552.336 324.719C553.209 326.377 553.647 328.232 553.607 330.108C553.649 332.106 553.129 334.075 552.107 335.79C551.08 337.447 549.585 338.76 547.813 339.563C545.769 340.483 543.547 340.935 541.308 340.886C539.262 340.882 537.231 340.547 535.292 339.895C533.541 339.358 531.914 338.474 530.508 337.296L532.742 332.263C535.229 334.208 538.275 335.295 541.426 335.362C545.152 335.362 547.015 333.701 547.015 330.377C547.051 329.685 546.94 328.993 546.69 328.346C546.44 327.7 546.055 327.115 545.563 326.629C544.476 325.671 543.059 325.179 541.615 325.258C540.537 325.264 539.468 325.463 538.458 325.844C537.428 326.208 536.467 326.744 535.616 327.429H531.668V308.551H552.115V313.94H538.402V321.073C539.956 320.195 541.72 319.759 543.502 319.813C545.336 319.783 547.147 320.228 548.76 321.105Z" fill="#3B455A"/>
<path d="M548.326 447.94C549.796 448.819 550.989 450.096 551.768 451.625C552.609 453.285 553.032 455.128 552.999 456.99C553.025 458.932 552.537 460.846 551.586 462.538C550.669 464.161 549.322 465.497 547.694 466.397C545.975 467.343 544.041 467.823 542.081 467.792C537.934 467.792 534.742 466.416 532.505 463.663C530.269 460.91 529.15 456.987 529.15 451.894C529.064 448.801 529.601 445.723 530.729 442.844C531.661 440.491 533.265 438.467 535.34 437.027C537.467 435.641 539.964 434.936 542.5 435.006C544.446 435.002 546.38 435.321 548.223 435.949C549.958 436.515 551.567 437.414 552.96 438.596L550.678 443.628C547.994 441.562 545.363 440.529 542.784 440.529C541.822 440.495 540.868 440.711 540.013 441.155C539.159 441.599 538.433 442.257 537.905 443.066C536.742 444.756 536.1 447.234 535.979 450.499C536.682 449.285 537.714 448.296 538.955 447.646C540.283 446.936 541.769 446.573 543.273 446.592C545.049 446.562 546.799 447.028 548.326 447.94ZM545.105 460.945C545.986 459.927 546.441 458.607 546.376 457.26C546.451 455.895 546.002 454.553 545.121 453.511C544.679 453.047 544.143 452.685 543.549 452.448C542.955 452.212 542.317 452.107 541.679 452.14C541.034 452.115 540.391 452.229 539.793 452.473C539.196 452.718 538.657 453.088 538.213 453.559C537.306 454.573 536.833 455.905 536.895 457.267C536.867 457.936 536.972 458.604 537.202 459.232C537.433 459.861 537.784 460.437 538.237 460.929C538.678 461.396 539.213 461.763 539.807 462.008C540.4 462.252 541.038 462.368 541.679 462.348C542.317 462.376 542.954 462.266 543.545 462.023C544.137 461.781 544.669 461.413 545.105 460.945Z" fill="#3B455A"/>
<path d="M530.508 371.905H553.402V377.112L539.192 403.883H531.724L545.863 377.516H530.508V371.905Z" fill="#3B455A"/>
<path d="M488.517 453.78C489.662 455.164 490.265 456.919 490.215 458.718C490.242 460.459 489.686 462.158 488.636 463.544C487.519 464.984 486.023 466.082 484.318 466.714C480.207 468.183 475.718 468.183 471.607 466.714C469.902 466.082 468.406 464.984 467.289 463.544C466.238 462.159 465.682 460.459 465.71 458.718C465.663 456.909 466.275 455.144 467.431 453.756C468.673 452.34 470.332 451.357 472.168 450.951C470.526 450.453 469.064 449.487 467.96 448.169C466.946 446.914 466.406 445.339 466.437 443.723C466.409 442.074 466.928 440.463 467.913 439.142C468.971 437.768 470.39 436.717 472.01 436.107C475.806 434.701 479.977 434.701 483.773 436.107C485.393 436.717 486.812 437.768 487.87 439.142C488.855 440.462 489.375 442.074 489.346 443.723C489.366 445.373 488.808 446.978 487.767 448.256C486.691 449.575 485.226 450.518 483.583 450.951C485.488 451.338 487.218 452.33 488.517 453.78ZM482.202 461.325C482.716 460.979 483.131 460.505 483.408 459.949C483.685 459.394 483.813 458.775 483.781 458.155C483.793 457.538 483.656 456.927 483.381 456.375C483.106 455.822 482.701 455.345 482.202 454.985C481.055 453.943 479.564 453.367 478.018 453.367C476.472 453.367 474.98 453.943 473.834 454.985C473.335 455.345 472.93 455.822 472.655 456.375C472.38 456.927 472.243 457.538 472.255 458.155C472.222 458.775 472.351 459.394 472.627 459.949C472.904 460.505 473.32 460.979 473.834 461.325C475.116 462.033 476.555 462.404 478.018 462.404C479.481 462.404 480.92 462.033 482.202 461.325ZM474.465 441.512C474.022 441.872 473.671 442.333 473.441 442.857C473.212 443.381 473.111 443.952 473.147 444.524C473.125 445.097 473.232 445.667 473.461 446.193C473.689 446.718 474.032 447.185 474.465 447.559C474.913 448.059 475.461 448.46 476.073 448.733C476.685 449.007 477.348 449.149 478.018 449.149C478.688 449.149 479.351 449.007 479.963 448.733C480.575 448.46 481.122 448.059 481.57 447.559C482.003 447.185 482.347 446.718 482.575 446.193C482.803 445.667 482.91 445.097 482.889 444.524C482.924 443.953 482.823 443.381 482.593 442.857C482.364 442.334 482.013 441.872 481.57 441.512C480.507 440.839 479.275 440.482 478.018 440.482C476.761 440.482 475.529 440.839 474.465 441.512Z" fill="#3B455A"/>
<path d="M481.491 397.298H488.383V402.909H467.621V397.298H474.512V378.745L468.071 382.565V376.446L477.418 370.899H481.491V397.298Z" fill="#3B455A"/>
<path d="M174.05 89.8241C173.566 82.6197 170.272 75.8975 164.881 71.1168C159.491 66.336 152.44 63.8826 145.259 64.2892C145.259 63.8137 145.259 63.3461 145.195 62.8626C144.728 56.1169 142.225 49.6741 138.02 44.3918C133.814 39.1095 128.106 35.2383 121.655 33.2935C115.203 31.3487 108.315 31.4226 101.907 33.5052C95.4983 35.5878 89.8738 39.5805 85.7817 44.9517C81.474 40.6377 75.9841 37.7094 70.0119 36.5402C64.0398 35.371 57.8561 36.0139 52.2494 38.3869C46.6426 40.7599 41.867 44.7555 38.5313 49.8641C35.1957 54.9728 33.4512 60.963 33.5204 67.0709C32.8256 67.0709 32.1309 67.0709 31.4283 67.1264C25.1553 67.5503 19.22 70.1336 14.624 74.4405C10.028 78.7474 7.05271 84.5141 6.20021 90.7675C5.3477 97.0209 6.67018 103.378 9.94448 108.766C13.2188 114.154 18.2444 118.244 24.1733 120.344C22.5876 126.826 22.9527 133.635 25.2226 139.908C27.4924 146.182 31.5649 151.639 36.9248 155.588C42.2847 159.537 48.691 161.802 55.3333 162.095C61.9757 162.389 68.5554 160.697 74.24 157.236C75.7715 158.1 76.7741 158.781 76.7741 158.781C79.909 160.576 83.3772 161.708 86.9645 162.105C90.5518 162.503 94.1822 162.158 97.6316 161.092C101.081 160.026 104.276 158.262 107.02 155.909C109.764 153.556 111.999 150.663 113.586 147.409C118.232 149.915 123.463 151.125 128.733 150.914C134.003 150.703 139.121 149.078 143.554 146.208C147.986 143.338 151.572 139.328 153.938 134.596C156.303 129.863 157.363 124.581 157.006 119.298C156.958 118.585 156.879 117.887 156.785 117.19C162.183 115.059 166.767 111.259 169.871 106.339C172.975 101.419 174.438 95.6348 174.05 89.8241Z" fill="#D7E8F4"/>
<path d="M54.9094 189.724C61.4672 189.39 66.514 183.783 66.1818 177.2C65.8496 170.616 60.2642 165.55 53.7064 165.883C47.1487 166.217 42.1019 171.824 42.4341 178.407C42.7663 184.991 48.3517 190.057 54.9094 189.724Z" fill="#D7E8F4"/>
<path d="M73.2895 207.303C77.8878 207.069 81.4266 203.138 81.1936 198.521C80.9607 193.905 77.0442 190.353 72.446 190.587C67.8477 190.82 64.3089 194.752 64.5419 199.368C64.7748 203.984 68.6913 207.537 73.2895 207.303Z" fill="#D7E8F4"/>
<path d="M66.0847 102.853L65.611 110.2L59.7455 109.819L59.2402 117.744L49.9879 117.15L50.4931 109.225L32.4148 108.06L32.8648 101.014L54.4719 73.9975L62.0348 74.4809L60.2191 102.473L66.0847 102.853ZM41.5329 101.268L51.0063 101.878L51.8747 88.2786L41.5329 101.268Z" fill="#3685D3"/>
<path d="M128.317 80.1156C130.118 81.6678 131.294 83.8262 131.624 86.1863C132.055 88.4442 131.722 90.782 130.677 92.8276C129.53 94.9438 127.819 96.6974 125.735 97.8918C120.698 100.721 114.842 101.721 109.157 100.721C106.799 100.274 104.612 99.1765 102.841 97.551C101.182 95.9673 100.099 93.8724 99.7623 91.5992C99.2996 89.2469 99.7096 86.806 100.915 84.736C102.225 82.5898 104.187 80.9229 106.512 79.9809C104.261 79.6958 102.14 78.7596 100.41 77.2863C98.8092 75.875 97.7577 73.9407 97.4414 71.8259C97.0332 69.6691 97.3556 67.4373 98.3571 65.4857C99.4348 63.4596 101.053 61.7747 103.031 60.6197C107.674 57.9366 113.119 57.0063 118.385 57.9964C120.633 58.4299 122.716 59.4838 124.401 61.0397C125.978 62.5434 127.011 64.5316 127.338 66.6904C127.742 68.8317 127.384 71.0475 126.327 72.9513C125.214 74.9113 123.512 76.4675 121.464 77.3973C123.976 77.558 126.374 78.5091 128.317 80.1156ZM121.725 91.3694C122.304 90.803 122.73 90.097 122.961 89.3187C123.191 88.5404 123.22 87.7158 123.043 86.9234C122.924 86.1256 122.615 85.3681 122.144 84.7145C121.673 84.0609 121.053 83.5302 120.335 83.1668C118.529 82.2787 116.525 81.872 114.517 81.986C112.585 82.5443 110.829 83.5924 109.417 85.0292C108.859 85.6102 108.448 86.3172 108.218 87.091C107.989 87.8647 107.948 88.6824 108.099 89.4753C108.193 90.2814 108.492 91.0498 108.966 91.7073C109.44 92.3649 110.073 92.8897 110.807 93.2318C112.635 93.8696 114.595 94.0332 116.504 93.7077C118.412 93.3821 120.208 92.5778 121.725 91.3694ZM107.238 67.1976C106.741 67.7653 106.385 68.4439 106.201 69.1772C106.017 69.9105 106.01 70.6772 106.181 71.4138C106.277 72.1633 106.539 72.8815 106.949 73.5153C107.359 74.149 107.906 74.6822 108.549 75.0752C110.075 75.9313 111.798 76.3738 113.546 76.3591C115.198 75.792 116.676 74.8033 117.833 73.4902C118.315 72.9069 118.659 72.222 118.841 71.4866C119.023 70.7511 119.037 69.984 118.883 69.2423C118.803 68.492 118.547 67.7716 118.135 67.1404C117.723 66.5093 117.168 65.9855 116.514 65.6125C114.976 64.968 113.287 64.7747 111.644 65.0553C110 65.3359 108.47 66.0787 107.23 67.1976H107.238Z" fill="#3685D3"/>
<path d="M104.997 130.163L106.844 136.852L80.7922 144.096L79.0949 137.946L87.9998 120.954C89.8419 117.372 90.4366 114.403 89.784 112.046C89.6553 111.406 89.3877 110.802 89.0002 110.278C88.6127 109.753 88.1148 109.321 87.542 109.011C86.2223 108.478 84.754 108.447 83.4132 108.924C80.1817 109.822 77.166 111.986 74.3661 115.415L70.0162 110.16C71.3446 108.258 73.0382 106.641 74.9976 105.405C77.1291 103.992 79.4679 102.922 81.929 102.235C85.871 101.136 89.2682 101.218 92.1207 102.481C93.5106 103.083 94.7412 104.002 95.7143 105.167C96.6875 106.331 97.3763 107.707 97.7258 109.185C98.3305 111.298 98.4439 113.521 98.0574 115.684C97.4834 118.309 96.5285 120.835 95.2233 123.181L89.1287 134.554L104.997 130.163Z" fill="#3685D3"/>
<path d="M692.582 89.1345C691.858 92.2096 690.614 95.1369 688.903 97.7888C687.388 100.117 685.439 102.13 683.163 103.717C680.941 105.239 678.441 106.303 675.806 106.847C672.993 107.421 670.104 107.501 667.264 107.085L663.798 118.878C663.577 119.596 662.864 119.998 661.659 120.082C659.982 120.109 658.311 119.885 656.701 119.417C655.364 119.079 654.249 118.764 653.354 118.474C652.634 118.258 651.94 117.963 651.286 117.594C650.873 117.374 650.531 117.042 650.299 116.635C650.122 116.26 650.07 115.838 650.149 115.43L653.196 100.919C653.407 99.8454 653.735 98.7982 654.175 97.7968C654.471 97.1102 654.942 96.5142 655.541 96.0691C656.086 95.6888 656.732 95.4792 657.396 95.4668C658.196 95.462 658.992 95.566 659.764 95.7758L660.617 95.9898C662.507 96.516 664.486 96.6402 666.427 96.3544C668.049 96.0998 669.598 95.497 670.966 94.5871C672.279 93.6893 673.379 92.5123 674.187 91.1396C675.062 89.6588 675.713 88.0564 676.122 86.3845C676.594 84.576 676.77 82.7022 676.643 80.8369C676.522 79.1418 676.031 77.4941 675.206 76.0104C674.341 74.5022 673.141 73.2142 671.701 72.246C669.975 71.0782 668.056 70.2301 666.032 69.7416C664.201 69.2443 662.316 68.9781 660.419 68.9491C658.948 68.9428 657.478 69.0488 656.022 69.2661C654.77 69.4669 653.717 69.6756 652.864 69.8922C652.259 70.0921 651.617 70.1517 650.986 70.0665C650.7 69.9926 650.447 69.8253 650.267 69.591C650.037 69.2491 649.914 68.8464 649.912 68.4339C649.882 67.7077 649.924 66.9803 650.038 66.2624C650.21 65.1013 650.444 63.9504 650.741 62.815C650.975 61.7706 651.294 60.7474 651.696 59.7559C651.94 59.1825 652.353 58.6982 652.88 58.369C653.719 57.9533 654.616 57.6674 655.541 57.521C657.005 57.2492 658.489 57.0955 659.977 57.0613C661.836 56.9964 663.698 57.0441 665.551 57.204C667.639 57.3807 669.709 57.7306 671.74 58.2501C675.935 59.2025 679.92 60.9218 683.495 63.3222C686.338 65.2618 688.727 67.7982 690.497 70.756C692.081 73.4698 693.052 76.5001 693.339 79.6322C693.627 82.8199 693.371 86.0334 692.582 89.1345ZM661.556 136.789C661.229 138.207 660.744 139.584 660.112 140.894C659.647 141.864 658.926 142.686 658.027 143.272C657.104 143.806 656.054 144.08 654.988 144.064C653.566 144.056 652.152 143.862 650.78 143.485C649.362 143.163 647.992 142.654 646.707 141.972C645.772 141.471 644.99 140.726 644.441 139.816C643.925 138.871 643.679 137.802 643.73 136.725C643.788 135.271 644.008 133.827 644.386 132.422C644.72 130.975 645.213 129.569 645.854 128.23C646.319 127.239 647.042 126.393 647.946 125.781C648.856 125.22 649.902 124.923 650.97 124.925C652.424 124.934 653.871 125.136 655.272 125.527C656.647 125.85 657.974 126.35 659.219 127.017C660.172 127.52 660.965 128.281 661.509 129.212C662.022 130.186 662.262 131.282 662.204 132.382C662.149 133.87 661.932 135.348 661.556 136.789Z" fill="#3685D3"/>
<path d="M299.656 47.6163C304.51 47.6163 308.723 48.4163 312.296 50.0163C315.923 51.6163 318.696 53.9096 320.616 56.8963C322.536 59.8829 323.496 63.4296 323.496 67.5363C323.496 71.5896 322.536 75.1363 320.616 78.1763C318.696 81.1629 315.923 83.4563 312.296 85.0563C308.723 86.6563 304.51 87.4563 299.656 87.4563H287.016V103.616H276.616V47.6163H299.656ZM299.176 78.6563C303.71 78.6563 307.15 77.6963 309.496 75.7763C311.843 73.8563 313.016 71.1096 313.016 67.5363C313.016 63.9629 311.843 61.2163 309.496 59.2963C307.15 57.3763 303.71 56.4163 299.176 56.4163H287.016V78.6563H299.176ZM370.222 103.616L358.782 87.2163C358.302 87.2696 357.582 87.2963 356.622 87.2963H343.982V103.616H333.582V47.6163H356.622C361.475 47.6163 365.689 48.4163 369.262 50.0163C372.889 51.6163 375.662 53.9096 377.582 56.8963C379.502 59.8829 380.462 63.4296 380.462 67.5363C380.462 71.7496 379.422 75.3763 377.342 78.4163C375.315 81.4563 372.382 83.7229 368.542 85.2163L381.422 103.616H370.222ZM369.982 67.5363C369.982 63.9629 368.809 61.2163 366.462 59.2963C364.115 57.3763 360.675 56.4163 356.142 56.4163H343.982V78.7363H356.142C360.675 78.7363 364.115 77.7763 366.462 75.8563C368.809 73.8829 369.982 71.1096 369.982 67.5363ZM433.797 94.8963V103.616H391.797V47.6163H432.677V56.3363H402.197V70.8963H429.237V79.4563H402.197V94.8963H433.797ZM468.131 47.6163C472.985 47.6163 477.198 48.4163 480.771 50.0163C484.398 51.6163 487.171 53.9096 489.091 56.8963C491.011 59.8829 491.971 63.4296 491.971 67.5363C491.971 71.5896 491.011 75.1363 489.091 78.1763C487.171 81.1629 484.398 83.4563 480.771 85.0563C477.198 86.6563 472.985 87.4563 468.131 87.4563H455.491V103.616H445.091V47.6163H468.131ZM467.651 78.6563C472.185 78.6563 475.625 77.6963 477.971 75.7763C480.318 73.8563 481.491 71.1096 481.491 67.5363C481.491 63.9629 480.318 61.2163 477.971 59.2963C475.625 57.3763 472.185 56.4163 467.651 56.4163H455.491V78.6563H467.651ZM502.057 47.6163H512.457V103.616H502.057V47.6163Z" fill="white"/>
</g>
<defs>
<clipPath id="clip0">
<rect width="760" height="500" fill="white"/>
</clipPath>
</defs>
</svg>
