<svg width="486" height="600" viewBox="0 0 486 600" fill="none" xmlns="http://www.w3.org/2000/svg">
<path fill-rule="evenodd" clip-rule="evenodd" d="M311.189 595.929C483.844 537.492 493.154 277.431 483.355 176.305C475.131 91.4312 309.667 49.603 257.683 26.8558C192.047 -1.86503 78.2804 -27.9082 12.0718 63.1283C-46.9932 144.343 129.882 236.657 129.882 349.921C129.882 463.184 115.165 628.033 311.189 595.929Z" fill="#EEEEEE"/>
<path d="M186.079 149.741C186.079 161.281 176.735 170.635 165.21 170.635C160.743 170.635 156.605 169.231 153.21 166.838L144.341 170.635L144.341 161.059C144.341 161.059 144.341 153.783 144.341 149.741C144.341 138.202 153.684 128.847 165.21 128.847C176.735 128.847 186.079 138.202 186.079 149.741Z" fill="url(#paint0_linear)"/>
<ellipse cx="165.21" cy="149.741" rx="10.4343" ry="10.4471" fill="white"/>
<path d="M248.659 348.236L239.989 346.943L244.974 311.786C246.737 299.756 256.764 290.839 268.6 290.777H292.161V299.689H268.687C261.152 299.723 254.766 305.398 253.644 313.056L248.659 348.236Z" fill="#CECECE"/>
<rect width="64.422" height="22.6082" transform="matrix(0.14125 -0.989974 0.989926 0.141589 312.071 341.088)" fill="#A8A8A8"/>
<rect x="304.334" y="358.683" width="5.21715" height="99.2472" fill="#E8E8E8"/>
<path d="M368.48 355.2H241.927C237.025 355.177 233.057 351.293 233.033 346.494C233.057 341.696 237.025 337.812 241.927 337.789H368.48C373.382 337.812 377.35 341.696 377.374 346.494C377.35 351.293 373.382 355.177 368.48 355.2Z" fill="#E8E8E8"/>
<path d="M321.78 450.965H290.578C284.729 450.965 279.987 455.643 279.987 461.412H332.159C332.16 455.723 327.546 451.079 321.78 450.965Z" fill="#CECECE"/>
<path d="M370.162 355.2H316.763C311.829 355.177 307.836 351.293 307.812 346.494C307.836 341.696 311.829 337.812 316.763 337.789H370.162C375.096 337.812 379.089 341.696 379.113 346.494C379.089 351.293 375.096 355.177 370.162 355.2Z" fill="#CECECE"/>
<path d="M313.655 379.577H302.097C299.357 379.581 297.035 377.575 296.661 374.88L293.9 355.2H321.724L318.963 374.88C318.596 377.528 316.346 379.518 313.655 379.577Z" fill="#CECECE"/>
<path d="M348.333 316.887H313.253C306.559 317.057 300.142 314.249 295.783 309.241C291.424 304.233 289.585 297.558 290.777 291.066L299.951 227.805C302.403 213.263 314.941 202.452 329.897 201.984H364.977C371.671 201.814 378.088 204.622 382.447 209.63C386.806 214.638 388.645 221.313 387.453 227.805L378.279 291.088C375.818 305.621 363.282 316.421 348.333 316.887Z" fill="#CECECE"/>
<path d="M337.898 316.887H302.819C296.124 317.057 289.708 314.249 285.349 309.241C280.99 304.233 279.151 297.558 280.343 291.066L289.517 227.805C291.968 213.263 304.507 202.452 319.463 201.984H354.543C361.237 201.814 367.653 204.622 372.013 209.63C376.372 214.638 378.21 221.313 377.019 227.805L367.845 291.088C365.384 305.621 352.848 316.421 337.898 316.887Z" fill="#E8E8E8"/>
<path d="M292.576 131.05C297.012 132.177 289.425 146.599 282.701 152.57C276.459 158.114 274.432 126.431 292.576 131.05Z" fill="#151B59"/>
<path d="M267.814 410.918L262.548 452.958C262.282 454.775 260.836 456.132 259.108 456.187H246.027C245.316 456.216 244.628 455.918 244.14 455.368C243.652 454.819 243.411 454.072 243.479 453.319L246.027 410.918H267.814Z" fill="#FCB692"/>
<path d="M270.736 464.83H226.622C226.387 464.83 226.179 464.683 226.105 464.465C226.031 464.247 226.107 464.006 226.295 463.868L241.559 452.813C241.8 452.636 242.142 452.684 242.322 452.92C242.503 453.156 242.454 453.492 242.213 453.669L228.301 463.804H270.082L268.032 453.391C267.979 453.102 268.174 452.825 268.468 452.771C268.61 452.739 268.759 452.768 268.88 452.849C269 452.93 269.08 453.057 269.1 453.198L271.281 464.253C271.314 464.412 271.272 464.578 271.166 464.702C271.06 464.827 270.901 464.898 270.736 464.895V464.83Z" fill="#6BADEE"/>
<path d="M202.11 247.247C197.138 245.123 189.068 243.653 188.332 240.675C187.047 236.966 188.211 232.93 191.342 230.231C194.418 227.808 208.686 237.319 208.686 237.319L202.11 247.247Z" fill="#FCB692"/>
<path d="M203.062 238.541C200.593 235.748 186.167 237.569 187.973 231.133C189.139 226.994 199.153 227.677 201.165 229.684C202.353 230.864 207.863 237.051 208.686 236.782L203.062 238.541Z" fill="#FCB692"/>
<path d="M213.903 410.918L208.651 452.958C208.386 454.775 206.944 456.132 205.22 456.187H192.109C191.401 456.216 190.715 455.918 190.228 455.368C189.741 454.819 189.5 454.072 189.568 453.319L192.194 410.941L213.903 410.918Z" fill="#FCB692"/>
<path d="M262.64 290.777L212.498 309.3C199.223 314.206 190.303 326.663 189.99 340.734L187.818 440.518H213.606L233.158 341.9L299.117 337.776L262.64 290.777Z" fill="#11163D"/>
<path fill-rule="evenodd" clip-rule="evenodd" d="M283.588 188.047H321.381C327.595 188.056 333.54 190.578 337.862 195.038C342.184 199.498 344.514 205.516 344.321 211.721L341.121 290.777H260.216L260.345 259.046L259.394 260.558L257.47 263.604L256.281 265.462C255.562 266.578 254.752 267.632 253.859 268.615C250.251 272.558 245.396 275.143 240.108 275.938C234.877 276.751 229.526 275.72 224.974 273.022L224.152 272.525L223.741 272.266L223.525 272.114L222.79 271.574L221.341 270.494L218.444 268.334C214.581 265.426 210.776 262.438 207.028 259.37C206.284 258.748 205.534 258.133 204.783 257.518C203.657 256.595 202.531 255.672 201.428 254.726L198.747 252.458L197.364 251.27L196.672 250.687C196.347 250.644 196.391 250.039 198.055 246.907C199.584 244.074 201.333 241.366 203.288 238.807C205.471 235.999 206.012 235.718 206.185 235.999L207.006 236.388L208.693 237.079L211.979 238.634C213.277 239.256 214.574 239.902 215.871 240.547C216.736 240.978 217.601 241.408 218.466 241.831C222.819 243.962 227.121 246.202 231.373 248.549L234.552 250.298L234.919 250.514L236.584 247.339C241.059 238.807 245.622 230.34 250.378 221.959C254.356 214.939 258.508 207.984 262.832 201.158C266.638 193.152 274.716 188.049 283.588 188.047ZM236.149 251.22L236.865 251.638L236.973 251.702C236.751 251.463 236.464 251.296 236.149 251.22ZM236.149 251.22L236.087 251.184H235.935C236.008 251.192 236.079 251.204 236.149 251.22Z" fill="#6BADEE"/>
<path d="M278.8 273.365C278.591 273.365 278.4 273.241 278.306 273.044C278.213 272.847 278.233 272.611 278.359 272.435L292.947 252.653C293.143 252.434 293.467 252.409 293.691 252.597C293.916 252.785 293.966 253.122 293.807 253.374L279.219 273.156C279.116 273.287 278.962 273.364 278.8 273.365Z" fill="#151B59"/>
<path d="M331.092 290.777H262.017V310.626C251.117 316.448 244.187 327.705 243.882 340.086L241.728 440.518H267.359L286.744 341.857L322.498 339.157H322.885C331.781 338.963 341.732 330.712 341.925 321.878L342.593 290.82L331.092 290.777Z" fill="#151B59"/>
<path d="M306.073 273.973C299.934 275.14 291.871 278.068 287.332 276.287C284.241 275.14 278.686 270.145 280.264 266.603C281.842 263.061 302.485 262.918 302.485 262.918L306.073 273.973Z" fill="#FCB692"/>
<path d="M342.859 198.637C346.548 205.885 349.805 213.33 352.89 220.839C354.429 224.597 355.931 228.37 357.398 232.158L357.937 233.572L358.39 234.857L358.865 236.271C359.418 238.203 359.773 240.187 359.922 242.192C360.742 254.425 353.32 265.691 341.824 269.661L340.487 270.096L339.753 270.271L338.286 270.641L335.353 271.359C333.39 271.816 331.427 272.295 329.442 272.708C325.488 273.579 321.512 274.355 317.514 275.037C315.508 275.364 313.502 275.734 311.496 276.017L308.476 276.474L306.966 276.692L306.211 276.8C306.017 277.018 305.607 276.583 304.334 273.253C303.186 270.22 302.235 267.115 301.487 263.958C300.689 260.476 300.775 259.888 301.055 259.953L301.746 259.605L303.126 258.93L305.866 257.581C307.699 256.667 309.554 255.818 311.388 254.947C315.069 253.22 318.787 251.588 322.54 250.05C324.395 249.244 326.293 248.548 328.17 247.873L330.996 246.785L332.419 246.132L333.131 245.87C333.368 245.604 333.449 245.233 333.347 244.891C333.313 244.778 333.235 244.684 333.131 244.63H333.002V244.499L332.354 243.128C330.658 239.442 328.997 235.734 327.372 232.005C324.136 224.561 321.073 217.03 318.441 209.325C316.22 202.651 319.455 195.376 325.872 192.614C332.289 189.852 339.731 192.531 342.967 198.768L342.859 198.637Z" fill="#60A5E9"/>
<path d="M201.251 223.189C198.116 221.607 195.236 226.252 194.777 229.869C194.724 232.821 195.319 235.757 196.536 238.541L203.469 233.342C200.665 228.985 202.832 223.991 201.251 223.189Z" fill="#FCB692"/>
<path d="M312.677 157.334C312.074 161.765 311.888 166.243 312.12 170.709C312.249 172.873 312.484 175.189 312.826 177.483C313.168 179.854 313.647 182.203 314.26 184.517C316.332 192.418 311.89 200.569 304.178 203.015C296.466 205.46 288.218 201.333 285.459 193.65C284.497 190.75 283.32 187.807 282.507 184.733C281.694 181.66 280.816 178.479 280.174 175.254C278.919 168.773 278.274 162.186 278.249 155.581V155.17C278.189 145.5 285.892 137.613 295.452 137.553C305.012 137.494 312.81 145.284 312.869 154.954C312.854 155.751 312.789 156.546 312.677 157.334Z" fill="#FCB692"/>
<path d="M305.976 172.986C307.399 183.034 292.824 196.844 286.993 185.578C277.977 168.176 305.976 172.986 305.976 172.986Z" fill="#DD8B66"/>
<path d="M310.649 158.704C310.649 158.574 310.649 158.704 310.649 158.704V158.878L310.416 159.312L309.907 160.266L308.869 162.434C308.169 163.843 307.512 165.318 306.876 166.77C306.24 168.223 305.626 169.719 305.032 171.107C304.43 172.604 303.722 174.053 302.913 175.444L301.577 177.612C298.395 182.831 292.383 185.486 286.488 184.275C280.592 183.064 276.048 178.241 275.082 172.17C274.487 167.218 274.745 162.198 275.846 157.338C276.302 154.938 276.882 152.564 277.584 150.226C277.923 149.056 278.304 147.863 278.728 146.692L279.406 144.892C279.512 144.589 279.661 144.264 279.788 143.938L280.318 142.746C282.881 136.808 288.45 132.813 294.78 132.37C301.11 131.928 307.159 135.11 310.488 140.635C313.818 146.16 313.88 153.118 310.649 158.704Z" fill="#FCB692"/>
<path d="M296.508 153.224C296.989 153.224 297.378 152.834 297.378 152.353C297.378 151.872 296.989 151.483 296.508 151.483C296.028 151.483 295.639 151.872 295.639 152.353C295.639 152.834 296.028 153.224 296.508 153.224Z" fill="#151B59"/>
<path d="M280.857 153.224C281.337 153.224 281.726 152.834 281.726 152.353C281.726 151.872 281.337 151.483 280.857 151.483C280.377 151.483 279.987 151.872 279.987 152.353C279.987 152.834 280.377 153.224 280.857 153.224Z" fill="#151B59"/>
<path d="M290.244 165.412L285.204 164.238L287.567 153.224L288.354 153.416L286.169 163.576L290.422 164.579L290.244 165.412Z" fill="#DD8B66"/>
<path d="M303.638 148C301.03 145.471 295.682 145.269 295.639 145.269V144.518C298.868 144.603 301.954 145.663 304.334 147.505L303.638 148Z" fill="#151B59"/>
<path d="M275.455 146.259L274.77 145.876C277.058 144.615 280.43 144.189 283.465 144.78L283.111 145.282C280.433 144.786 277.483 145.163 275.455 146.259Z" fill="#151B59"/>
<path d="M297.365 167.153C294.522 168.059 288.683 169.225 288.683 169.225C290.39 170.316 292.574 170.805 294.739 170.583C297.713 169.956 297.365 167.153 297.365 167.153Z" fill="white"/>
<path d="M316.942 141.53C316.942 141.289 317.071 141.071 317.135 140.83C317.665 137.179 316.631 133.473 314.294 130.646L313.584 131.193C315.622 133.747 316.596 137.01 316.296 140.284C316.511 131.542 306.976 128.33 300.992 128.986C292.274 122.43 276.776 134.908 283.277 137.727C288.833 139.861 294.828 140.545 300.712 139.716C302.646 141.981 304.876 143.966 307.341 145.616C303.682 152.981 306.158 167.164 309.494 162.881C318.771 150.511 319.568 143.693 316.942 141.53Z" fill="#151B59"/>
<path d="M310.429 156.677C313.132 152.152 320.652 157.447 317.479 162.696C310.053 174.757 304.225 167.29 310.429 156.677Z" fill="#FCB692"/>
<path d="M213.359 464.894H162.303C162.04 464.907 161.804 464.732 161.746 464.477C161.687 464.223 161.821 463.964 162.064 463.862L185.973 452.749C186.234 452.664 186.52 452.785 186.636 453.032C186.753 453.279 186.664 453.573 186.429 453.717L164.694 463.798H212.729L212.294 453.265C212.289 453.123 212.34 452.984 212.438 452.879C212.536 452.774 212.672 452.712 212.816 452.706C213.108 452.706 213.348 452.934 213.359 453.222L213.903 464.335C213.909 464.481 213.854 464.624 213.752 464.729C213.649 464.835 213.507 464.894 213.359 464.894Z" fill="#6BADEE"/>
<path d="M317.239 144.422L281.33 136.162C280.316 135.931 279.431 135.285 278.87 134.365C278.308 133.446 278.117 132.33 278.338 131.262L279.91 123.624L323.464 133.655L321.891 141.293C321.423 143.508 319.343 144.907 317.239 144.422Z" fill="#FFCA55"/>
<path d="M324.936 134.071L279.987 127.683L280.898 123.624L325.203 132.939L324.936 134.071Z" fill="#EFAC26"/>
<rect width="1.74108" height="66.0876" transform="matrix(0.213293 -0.976988 0.976879 0.213791 269.26 119.151)" fill="#EFAC26"/>
<rect width="1.74108" height="33.0438" transform="matrix(0.213293 -0.976988 0.976879 0.213791 301.051 127.036)" fill="#FFCA55"/>
<path d="M327.253 154.963C327.163 154.952 327.08 154.882 327.022 154.77C326.964 154.658 326.935 154.512 326.943 154.365L328.007 131.142C328.007 130.836 328.158 130.588 328.344 130.588C328.53 130.588 328.681 130.836 328.681 131.142L327.616 154.365C327.625 154.527 327.589 154.687 327.519 154.803C327.449 154.918 327.351 154.977 327.253 154.963Z" fill="#151B59"/>
<path d="M326.916 348.236L318.246 346.943L323.232 311.786C324.994 299.756 335.021 290.839 346.857 290.777H370.418V299.689H346.857C339.323 299.723 332.937 305.398 331.815 313.056L326.916 348.236Z" fill="#CECECE"/>
<path d="M13.9124 273.365V279.647V471.859H32.46V279.647H118.395V471.859H136.942V279.647H252.584V471.859H271.153V279.647H357.087V471.859H375.635V279.647V273.365H13.9124Z" fill="#FFCA55"/>
<path d="M263.207 273.365V279.647H253.901V282.788H263.207V471.859H272.534V282.788V279.647H358.763V282.788H368.069V471.859H377.374V282.788V279.647V273.365H263.207Z" fill="#EFAC26"/>
<path d="M13.9124 278.589V281.747H22.6076V471.859H31.3029V281.747V278.589H22.6076H13.9124Z" fill="#EFAC26"/>
<path d="M118.255 278.589V281.747H126.951V471.859H135.646V281.747V278.589H126.951H118.255Z" fill="#EFAC26"/>
<path d="M176.441 273.365H73.9825C72.5065 273.354 71.313 272.191 71.3011 270.753C71.313 269.316 72.5065 268.153 73.9825 268.142H176.441C177.917 268.153 179.11 269.316 179.122 270.753C179.11 272.191 177.917 273.354 176.441 273.365Z" fill="#151B59"/>
<path d="M197.419 273.365H160.826C159.41 273.354 158.265 272.196 158.254 270.764C158.254 269.324 159.402 268.153 160.826 268.142H197.419C198.835 268.153 199.98 269.311 199.991 270.743C199.991 272.183 198.843 273.354 197.419 273.365Z" fill="#6BADEE"/>
<path d="M162.534 269.879H78.29C73.0119 269.636 68.5867 265.751 67.59 260.486L59.297 209.633C58.805 207.297 59.3984 204.862 60.9063 203.028C62.4141 201.194 64.6689 200.166 67.0211 200.239H151.177C156.489 200.442 160.96 204.336 161.965 209.633L170.258 260.486C170.75 262.821 170.156 265.257 168.648 267.09C167.141 268.924 164.886 269.952 162.534 269.879Z" fill="#6BADEE"/>
<path d="M160.719 269.876H76.6082C71.3051 269.673 66.8404 265.779 65.8376 260.483L57.5577 209.632C57.0665 207.297 57.659 204.861 59.1644 203.028C60.6699 201.194 62.9211 200.166 65.2696 200.239H149.315C154.676 200.37 159.223 204.28 160.238 209.632L168.518 260.483C169.014 262.834 168.411 265.286 166.885 267.123C165.359 268.961 163.082 269.977 160.719 269.876Z" fill="#151B59"/>
<path d="M75.2888 99.2471H52.1715V149.741H88.6916V112.562L75.2888 99.2471Z" fill="#00CCCC"/>
<path d="M79.4498 160.188H42.2837C41.9819 160.188 41.7372 159.947 41.7372 159.65V108.492C41.7372 108.194 41.9819 107.953 42.2837 107.953H65.7639C66.0658 107.953 66.3105 108.194 66.3105 108.492C66.3105 108.789 66.0658 109.031 65.7639 109.031H42.7429V159.111H78.9032V121.982C78.9032 121.684 79.1479 121.443 79.4498 121.443C79.7516 121.443 79.9963 121.684 79.9963 121.982V159.65C79.9963 159.947 79.7516 160.188 79.4498 160.188Z" fill="#6BADEE"/>
<path d="M63.8376 154.094H47.4617C47.1815 154.094 46.9543 153.899 46.9543 153.659C46.9543 153.419 47.1815 153.224 47.4617 153.224H63.8376C64.1177 153.224 64.3449 153.419 64.3449 153.659C64.3449 153.899 64.1177 154.094 63.8376 154.094Z" fill="#6BADEE"/>
<path d="M70.7681 148.871H47.4873C47.193 148.871 46.9543 148.676 46.9543 148.436C46.9543 148.195 47.193 148 47.4873 148H70.7681C71.0624 148 71.3011 148.195 71.3011 148.436C71.3011 148.676 71.0624 148.871 70.7681 148.871Z" fill="#6BADEE"/>
<path d="M70.7681 140.165H47.4873C47.193 140.165 46.9543 139.97 46.9543 139.73C46.9543 139.489 47.193 139.294 47.4873 139.294H70.7681C71.0624 139.294 71.3011 139.489 71.3011 139.73C71.3011 139.97 71.0624 140.165 70.7681 140.165Z" fill="#6BADEE"/>
<path d="M67.2697 133.2H47.5076C47.202 133.2 46.9543 133.005 46.9543 132.765C46.9543 132.524 47.202 132.33 47.5076 132.33H67.2697C67.5753 132.33 67.823 132.524 67.823 132.765C67.823 133.005 67.5753 133.2 67.2697 133.2Z" fill="#6BADEE"/>
<path d="M70.7681 127.977H47.4873C47.193 127.977 46.9543 127.782 46.9543 127.541C46.9543 127.301 47.193 127.106 47.4873 127.106H70.7681C71.0624 127.106 71.3011 127.301 71.3011 127.541C71.3011 127.782 71.0624 127.977 70.7681 127.977Z" fill="#6BADEE"/>
<path d="M58.5683 121.012H47.5138C47.2048 121.012 46.9543 120.817 46.9543 120.577C46.9543 120.336 47.2048 120.141 47.5138 120.141H58.5683C58.8772 120.141 59.1277 120.336 59.1277 120.577C59.1277 120.817 58.8772 121.012 58.5683 121.012Z" fill="#6BADEE"/>
<path fill-rule="evenodd" clip-rule="evenodd" d="M66.5981 121.882H79.4688C79.6808 121.888 79.8745 121.763 79.9565 121.567C80.0384 121.371 79.9916 121.145 79.8388 120.997L66.9682 108.111C66.821 107.958 66.5951 107.911 66.3995 107.993C66.2038 108.075 66.0785 108.269 66.0841 108.481V121.368C66.0841 121.652 66.3142 121.882 66.5981 121.882ZM78.2558 120.853H67.1327L67.1122 109.737L78.2558 120.853Z" fill="#6BADEE"/>
<path d="M134.7 78.353C124.639 78.3155 115.718 71.868 112.519 62.3205C109.32 52.7731 112.553 42.247 120.558 36.1462C128.563 30.0454 139.562 29.7254 147.908 35.3505C148.096 35.4487 148.211 35.6464 148.203 35.8587C148.196 36.071 148.067 36.2599 147.872 36.3443C147.677 36.4287 147.451 36.3934 147.292 36.2537C138.772 30.4985 127.432 31.2885 119.792 38.1694C112.151 45.0502 110.175 56.2539 114.998 65.3374C119.822 74.421 130.206 79.0502 140.179 76.5631C150.153 74.076 157.152 65.1115 157.153 54.825C157.153 54.5208 157.399 54.2742 157.703 54.2742C158.007 54.2742 158.254 54.5208 158.254 54.825C158.254 61.0726 155.771 67.0638 151.352 71.4774C146.934 75.891 140.943 78.3647 134.7 78.353Z" fill="#151B59"/>
<path d="M132.168 66.1647L144.341 54.8471L132.168 43.5294V66.1647Z" fill="#00CCCC"/>
<rect x="217.381" y="271.624" width="53.9106" height="1.74118" fill="white"/>
<rect x="219.12" y="271.624" width="53.9106" height="1.74118" fill="white"/>
<path d="M342.144 418.104C353.13 454.64 377.136 457.93 377.136 457.93C377.136 457.93 395.259 441.635 384.272 405.099C373.286 368.562 337.407 325.6 337.407 325.6C337.407 325.6 331.157 381.567 342.144 418.104Z" fill="#6BADEE"/>
<path d="M337.393 325.6L377.374 457.93C377.374 457.93 353.242 454.64 342.198 418.104C331.153 381.567 337.393 325.6 337.393 325.6Z" fill="#4686C5"/>
<path d="M351.778 383.426C347.496 429.095 372.697 444 372.697 444C372.697 444 400.276 434.33 404.601 388.64C408.926 342.949 388.371 278.589 388.371 278.589C388.371 278.589 356.103 337.757 351.778 383.426Z" fill="#6BADEE"/>
<path d="M389.547 278.589L373.382 444C373.382 444 347.324 429.203 351.807 383.426C356.29 337.649 389.547 278.589 389.547 278.589Z" fill="#4686C5"/>
<path d="M377.455 398.294C363.098 438.612 382.47 457.93 382.47 457.93C382.47 457.93 409.547 455.592 423.861 415.208C438.175 374.825 434.279 311.671 434.279 311.671C434.279 311.671 391.768 357.845 377.455 398.294Z" fill="#6BADEE"/>
<path d="M434.763 311.671L382.567 457.93C382.567 457.93 363.091 438.615 377.417 398.238C391.743 357.86 434.763 311.671 434.763 311.671Z" fill="#4686C5"/>
<path d="M357.947 497.977H403.758L410.416 445.742H351.288L357.947 497.977Z" fill="#151B59"/>
<defs>
<linearGradient id="paint0_linear" x1="144.341" y1="135.812" x2="180.904" y2="170.591" gradientUnits="userSpaceOnUse">
<stop stop-color="#04CCCE"/>
<stop offset="1" stop-color="#6BAEEE"/>
</linearGradient>
</defs>
</svg>
