<svg width="192" height="24" viewBox="0 0 192 24" fill="none" xmlns="http://www.w3.org/2000/svg">
<path d="M124.163 7.94873H119.952C119.683 8.47262 119.505 8.86865 119.454 8.96701H124.562C124.447 8.61687 124.314 8.27788 124.163 7.94873Z" fill="white"/>
<path d="M117.817 10.4712C117.413 10.4712 117.06 10.5243 116.512 10.6672L116.369 11.5059L116.46 11.4816L116.617 11.4409C116.851 11.3767 117.204 11.338 117.517 11.338C118.026 11.338 118.222 11.4298 118.222 11.6757C118.222 11.7439 118.209 11.795 118.183 11.9176C118.013 11.8993 117.856 11.8888 117.739 11.8888C116.525 11.8888 115.82 12.4192 115.82 13.3241C115.82 13.926 116.225 14.341 116.813 14.341C117.309 14.341 117.688 14.1974 117.962 13.8912L117.935 14.2768H118.849L118.862 14.1758L118.875 14.0479L118.901 13.8591L118.94 13.6231L119.175 12.2999C119.241 11.8855 119.253 11.7458 119.253 11.5622C119.253 10.8502 118.758 10.4712 117.817 10.4712ZM117.27 13.5516C117.022 13.5516 116.879 13.4021 116.879 13.172C116.879 12.7956 117.192 12.6054 117.805 12.6054C117.884 12.6054 117.936 12.6074 118.054 12.6199C118.027 13.1706 117.714 13.5516 117.27 13.5516Z" fill="white"/>
<path d="M114.385 9.69971L113.171 12.5355L113.092 9.69971H111.382L110.533 14.279H111.525L112.178 10.7803L112.361 14.279H113.353L114.854 10.758L114.201 14.279H115.298L116.159 9.69971H114.385Z" fill="white"/>
<path d="M134.32 13.9361C134.319 13.9112 134.306 13.8856 134.293 13.8718C134.267 13.8587 134.241 13.8574 134.228 13.8574H134.124V14.1145H134.176V14.0141H134.215L134.255 14.1145H134.32L134.281 14.003C134.307 13.9918 134.32 13.9643 134.32 13.9361ZM134.241 13.965C134.228 13.9702 134.215 13.9702 134.215 13.9702H134.176V13.9033H134.203C134.216 13.9033 134.242 13.9033 134.242 13.9092C134.255 13.9145 134.255 13.925 134.255 13.9348C134.255 13.9459 134.254 13.9591 134.241 13.965Z" fill="white"/>
<path d="M139.073 0H104.927C104.414 0 104 0.42685 104 0.953364V23.0466C104 23.5732 104.414 24 104.927 24H139.073C139.586 24 140 23.5732 140 23.0466V0.953364C140 0.42685 139.586 0 139.073 0ZM136.768 17.4274C136.741 17.4773 136.705 17.5153 136.658 17.5422C136.61 17.5691 136.561 17.5828 136.51 17.5828C136.457 17.5828 136.408 17.5691 136.36 17.5422C136.314 17.5153 136.277 17.4773 136.25 17.4274C136.223 17.3796 136.21 17.3284 136.21 17.2753C136.21 17.2222 136.223 17.1717 136.25 17.1219C136.276 17.072 136.315 17.0347 136.362 17.0078C136.41 16.9822 136.458 16.9684 136.509 16.9684C136.559 16.9684 136.608 16.9822 136.655 17.0078C136.703 17.0347 136.74 17.072 136.767 17.1219C136.793 17.1717 136.806 17.2229 136.806 17.2753C136.806 17.3278 136.795 17.3809 136.768 17.4274ZM137.436 12.0003C137.437 17.2491 133.303 21.5058 128.2 21.5071C125.814 21.5077 123.637 20.5773 121.998 19.0489C120.359 20.5747 118.187 21.5045 115.805 21.5045C110.705 21.5045 106.566 17.2471 106.566 12.0003C106.566 6.77453 110.672 2.52963 115.745 2.49553C115.765 2.49553 115.785 2.49553 115.805 2.49553C118.187 2.49553 120.359 3.42529 121.999 4.95107C123.637 3.42464 125.811 2.49422 128.195 2.49357C133.298 2.4916 137.436 6.74633 137.437 11.9957C137.436 11.997 137.436 11.9977 137.436 12.0003Z" fill="white"/>
<path d="M122.914 5.93262H121.158C120.922 6.26046 120.7 6.60928 120.5 6.95024H123.631C123.414 6.59486 123.174 6.25521 122.914 5.93262Z" fill="white"/>
<path d="M124.855 11.3506C125.077 11.3506 125.364 11.3703 125.652 11.4051L125.808 10.5441C125.521 10.5035 125.09 10.4707 124.829 10.4707C123.602 10.4707 123.17 11.0438 123.171 11.729C123.171 12.1984 123.432 12.523 124.019 12.7669C124.462 12.9525 124.528 13.0075 124.528 13.178C124.528 13.4088 124.333 13.5137 123.903 13.5137C123.562 13.5137 123.263 13.4678 122.91 13.3669L122.753 14.2258L122.806 14.2356L123.001 14.2724C123.066 14.2855 123.171 14.2966 123.302 14.3058C123.562 14.3255 123.757 14.3366 123.901 14.3366C125.077 14.3366 125.612 13.9439 125.612 13.0947C125.612 12.5833 125.39 12.285 124.829 12.0581C124.372 11.8699 124.319 11.8273 124.319 11.6529C124.319 11.4529 124.502 11.3506 124.855 11.3506Z" fill="white"/>
<path d="M130.575 10.5461C130.522 10.533 130.482 10.5258 130.482 10.5238C130.444 10.5179 130.404 10.5146 130.365 10.5146C130.011 10.5146 129.751 10.6799 129.412 11.1198L129.516 10.5546H128.524L127.858 14.2789H128.955C129.347 12.0017 129.516 11.6018 130.038 11.6018C130.077 11.6018 130.116 11.6051 130.168 11.611L130.299 11.6385L130.692 10.5868C130.601 10.5507 130.588 10.5507 130.575 10.5461Z" fill="white"/>
<path d="M127.283 11.4599H127.844L128.001 10.5537H127.44L127.597 9.69873H126.513L126.004 12.5418L125.952 12.8362L125.886 13.2027C125.873 13.3207 125.86 13.4322 125.86 13.5364C125.86 14.0649 126.16 14.3547 126.722 14.3547C126.97 14.3547 127.205 14.318 127.505 14.2334L127.649 13.4073C127.571 13.4315 127.48 13.4433 127.362 13.4433C127.101 13.4433 126.982 13.3607 126.982 13.168C126.982 13.1339 126.982 13.0821 126.996 13.0139L127.283 11.4599Z" fill="white"/>
<path d="M134.215 13.6968C134.058 13.6968 133.927 13.8273 133.927 13.9866C133.927 14.1479 134.058 14.2784 134.215 14.2784C134.372 14.2784 134.502 14.1479 134.502 13.9866C134.502 13.8279 134.372 13.6968 134.215 13.6968ZM134.215 14.2089C134.098 14.2089 133.993 14.1099 133.993 13.9866C133.993 13.8646 134.098 13.7663 134.215 13.7663C134.333 13.7663 134.424 13.8646 134.424 13.9866C134.424 14.1099 134.333 14.2089 134.215 14.2089Z" fill="white"/>
<path d="M132.388 10.4482C131.082 10.4482 130.234 11.3433 130.234 12.6618C130.234 13.6067 130.729 14.3791 131.971 14.3791C133.092 14.3791 133.928 13.8289 134.098 12.591C134.124 12.3746 134.124 12.3596 134.124 12.1288C134.124 11.1833 133.524 10.4482 132.388 10.4482ZM132.923 12.5589C132.832 13.1392 132.323 13.4716 132.088 13.4716C131.696 13.4795 131.461 13.1392 131.461 12.6336C131.461 12.0357 131.8 11.357 132.362 11.357C132.806 11.357 132.962 11.7262 132.962 12.1143C132.962 12.2756 132.949 12.4225 132.923 12.5589Z" fill="white"/>
<path d="M122.699 12.7345C122.792 12.3568 122.831 12.0893 122.831 11.8139C122.831 10.9884 122.256 10.4619 121.356 10.4619C120.259 10.4619 119.45 11.4028 119.45 12.6794C119.45 13.7777 120.09 14.3488 121.317 14.3488C121.695 14.3488 122.061 14.2996 122.426 14.1987L122.609 13.2663C122.217 13.4302 121.865 13.503 121.473 13.503C120.846 13.503 120.52 13.2833 120.52 12.8519C120.52 12.8171 120.52 12.7916 120.533 12.7345H122.699ZM121.343 11.3143C121.669 11.3143 121.852 11.4907 121.852 11.793C121.852 11.8428 121.852 11.9044 121.852 11.9844L120.638 11.9831C120.742 11.5503 120.991 11.3143 121.343 11.3143Z" fill="white"/>
<path d="M119.819 16.0137C119.979 16.3664 120.166 16.7028 120.365 17.0313H123.643C123.842 16.7041 124.021 16.3651 124.181 16.0137H119.819Z" fill="white"/>
<path d="M121.052 18.0078C121.345 18.377 121.655 18.7291 121.997 19.0464C122.004 19.0392 122.013 19.0333 122.02 19.0254H122.022C122.358 18.7101 122.672 18.3704 122.96 18.0078H121.052Z" fill="white"/>
<path d="M59.7259 9.78393C59.5799 9.68557 59.3625 9.63574 59.077 9.63574L58.8329 9.63705C58.6729 9.63574 58.5091 9.76819 58.4778 9.92818L58.2528 10.9248C58.2178 11.0861 58.3179 11.2179 58.4798 11.2179H58.662C59.0668 11.2179 59.3804 11.1333 59.6054 10.9628C59.8304 10.7937 59.9458 10.553 59.9407 10.2416C59.9419 10.0357 59.8699 9.88162 59.7259 9.78393Z" fill="white"/>
<path d="M63.7096 12.0811C63.6656 12.0824 63.3284 12.1217 63.1576 12.1433C62.9664 12.1715 62.8007 12.2109 62.6662 12.2574L62.35 12.4791C62.2761 12.5748 62.241 12.6967 62.241 12.8535L62.3851 13.1406C62.4826 13.197 62.6267 13.2246 62.8102 13.2246C62.9313 13.2246 63.0626 13.1944 63.2003 13.1367L63.4935 12.9813L63.6095 12.8226C63.6554 12.6377 63.7504 12.2266 63.7612 12.1755L63.7096 12.0811Z" fill="white"/>
<path d="M87.0732 0H52.9268C52.4143 0 52 0.42685 52 0.953364V23.046C52 23.5725 52.4143 24 52.9268 24H87.0732C87.5857 24 88 23.5732 88 23.0466V0.953364C88 0.42685 87.5857 0 87.0732 0ZM60.5946 11.6423C60.0873 12.0266 59.381 12.218 58.4683 12.2193H58.2554C58.0916 12.2193 57.9316 12.3518 57.8978 12.5104L57.6416 13.65C57.6052 13.8126 57.4453 13.9425 57.2834 13.9425H56.5376C56.3757 13.9425 56.2744 13.8087 56.3126 13.65L57.3611 8.95336C57.3994 8.79207 57.5581 8.6629 57.72 8.66027L59.2778 8.65962C59.6143 8.6629 59.9056 8.68388 60.158 8.73109C60.4066 8.77961 60.6233 8.86091 60.8069 8.97631C60.9828 9.0904 61.1249 9.24318 61.2142 9.42808C61.3136 9.61298 61.3576 9.84444 61.3576 10.1198C61.3576 10.7493 61.1058 11.2581 60.5946 11.6423ZM65.2234 11.043L65.1953 11.2404L64.651 13.6612C64.6191 13.8067 64.4789 13.9307 64.3304 13.9484L64.3202 13.9523H64.2125H63.6401H63.6267L63.6242 13.9497C63.482 13.9359 63.3941 13.812 63.4246 13.6625V13.6612L63.4259 13.6566L63.454 13.5333L63.4501 13.5287L63.1691 13.7195L62.8631 13.8953L62.5023 14.0225C62.3914 14.05 62.2353 14.0664 62.0339 14.0664C61.7158 14.0664 61.4494 13.9766 61.2479 13.791C61.0478 13.6015 60.9445 13.3596 60.9445 13.0632C60.9445 12.7485 61.0153 12.4823 61.1574 12.2606C61.3047 12.0403 61.515 11.8685 61.7993 11.74C62.0638 11.6161 62.3819 11.5243 62.7452 11.4725C63.1161 11.4174 63.4221 11.3774 63.846 11.3499L63.953 11.2817L63.9664 11.1735C63.9664 11.007 63.8912 10.8922 63.7414 10.8247C63.5897 10.7591 63.3615 10.7263 63.0632 10.7263C62.8606 10.7237 62.6056 10.7663 62.364 10.8227C62.111 10.8817 62.0415 10.9204 61.9178 10.9584C61.8605 10.9788 61.7222 10.9886 61.7738 10.7421L61.8649 10.3559C61.8649 10.3559 61.9096 10.0641 62.1932 10.0005C62.3302 9.96902 62.3519 9.96312 62.5756 9.92771C62.8784 9.87985 63.178 9.85559 63.4782 9.85559C64.0856 9.85559 64.5305 9.93689 64.8116 10.1002C65.094 10.2628 65.238 10.5172 65.2368 10.8588L65.2234 11.043ZM66.4223 15.8125L65.6498 15.8138C65.4892 15.8138 65.4363 15.6826 65.5344 15.5214L66.1954 14.3359C66.1954 14.3359 66.2483 14.2683 66.2011 13.8815C66.0992 13.1825 65.5918 10.211 65.5918 10.211C65.5548 10.0503 65.6542 9.91853 65.8149 9.91853L66.4835 9.91722C66.6881 9.91722 66.8526 10.0556 66.8895 10.2182L67.2222 12.279L67.3459 12.2803C67.4498 12.0908 68.5181 10.2051 68.5181 10.2051C68.62 10.0464 68.8266 9.91197 68.9872 9.91197C68.9872 9.91197 69.7055 9.91394 69.8821 9.91197C70.1472 9.90804 69.8617 10.35 69.8617 10.35L66.8889 15.5214C66.7933 15.6826 66.5817 15.8125 66.4223 15.8125ZM74.1456 11.6626C73.6363 12.0449 72.9269 12.2383 72.0142 12.2383H71.8013C71.6407 12.2357 71.48 12.3701 71.4431 12.5288L71.1907 13.6704C71.1537 13.8297 70.9905 13.9608 70.8324 13.9589L70.0848 13.9608C69.9261 13.9615 69.8215 13.829 69.8598 13.6697L70.9089 8.97041C70.9472 8.81108 71.104 8.68125 71.2659 8.67863L72.8256 8.67732C73.1602 8.67863 73.4547 8.70289 73.702 8.74813C73.9538 8.79534 74.1705 8.87665 74.3515 8.9927C74.5293 9.11007 74.6689 9.26022 74.762 9.44644C74.8576 9.63003 74.9041 9.86214 74.9054 10.1375C74.9054 10.7663 74.6498 11.2738 74.1456 11.6626ZM78.7718 11.0463L78.7444 11.245L78.1988 13.6638C78.1682 13.81 78.0273 13.9339 77.8807 13.9523L77.8705 13.9562H77.7635C77.6092 13.9562 77.2841 13.9562 77.1904 13.9562H77.1771L77.1758 13.9523C77.0311 13.9385 76.9419 13.8153 76.9769 13.6651L76.9756 13.6631L76.9788 13.6605L77.0037 13.5373L76.9992 13.5314L76.72 13.7248L76.4122 13.8998L76.0521 14.0251C75.9411 14.0546 75.7843 14.067 75.5848 14.0703C75.2661 14.0703 75.0023 13.9772 74.7996 13.793C74.5982 13.6054 74.4943 13.3622 74.4943 13.0645C74.4943 12.7517 74.565 12.4842 74.7078 12.2639C74.8538 12.0436 75.0673 11.8725 75.349 11.7426C75.6154 11.6181 75.9354 11.5276 76.2968 11.4751C76.6652 11.42 76.9712 11.38 77.3982 11.3532L77.5053 11.2837L77.5168 11.1755C77.5168 11.0102 77.4428 10.8942 77.2911 10.8273C77.1394 10.7611 76.9113 10.7283 76.6142 10.7283C76.4103 10.727 76.1547 10.769 75.9137 10.8247C75.662 10.885 75.5938 10.9224 75.4708 10.9604C75.4083 10.9794 75.2738 10.9906 75.3248 10.744L75.4159 10.3585C75.4159 10.3585 75.4586 10.0661 75.7436 10.0031C75.8819 9.9723 75.9042 9.96509 76.1273 9.93164C76.4281 9.88181 76.7296 9.85755 77.0298 9.85755C77.6347 9.85755 78.079 9.94017 78.3626 10.1034C78.6469 10.266 78.789 10.5191 78.789 10.8607L78.7718 11.0463ZM81.162 9.0091L80.1626 13.6651L80.1276 13.7202C80.0683 13.8513 79.9421 13.9575 79.805 13.9575H79.1115L79.0988 13.9412C78.9669 13.9202 78.8808 13.8107 78.912 13.6677L78.9108 13.6645L78.9407 13.53L79.8751 9.16187L79.9083 9.00975L79.9459 8.95009C80.0064 8.82157 80.1301 8.71732 80.2671 8.71732H80.9345C81.097 8.71732 81.1945 8.8478 81.1601 9.00779L81.162 9.0091ZM82.4865 8.50553H82.2367V8.84714L82.2386 8.93894L82.2558 9.00057L82.2953 9.03991L82.3718 9.05237L82.4343 9.04319L82.4808 9.02877H82.4865V9.14089L82.412 9.15597L82.3412 9.16187L82.1717 9.09958L82.1137 8.90288V8.50553H82.0295V8.39931H82.1137V8.18621H82.2367V8.39931H82.4865V8.50553ZM83.6944 8.66224V9.14548H83.5739V8.71929L83.5663 8.62814L83.5504 8.55602L83.5083 8.5134L83.4273 8.49832L83.326 8.5252L83.2221 8.59274L83.224 8.62946L83.2253 8.6688V9.14679H83.1042V8.7206L83.0991 8.62814L83.0819 8.55668L83.0411 8.51406L82.9589 8.49897L82.8588 8.52455L82.7574 8.58946V9.14679H82.6376V8.39997H82.7574V8.48324L82.8734 8.40718L82.9933 8.37964L83.1195 8.41046L83.1972 8.49963L83.3311 8.40718L83.4618 8.37964L83.6383 8.45373L83.6957 8.66224H83.6944Z" fill="white"/>
<path d="M77.2586 12.085C77.2146 12.0843 76.8787 12.125 76.7105 12.1473C76.5173 12.1755 76.3522 12.2141 76.219 12.2613C76.0826 12.3164 75.9717 12.3905 75.8997 12.483C75.8283 12.5787 75.7926 12.7007 75.7926 12.858L75.9386 13.1446C76.0316 13.2016 76.1738 13.2291 76.3631 13.2291C76.4823 13.2291 76.6136 13.199 76.7506 13.1419L77.0419 12.9865L77.1617 12.8279C77.2063 12.641 77.3032 12.2312 77.3109 12.18L77.2586 12.085Z" fill="white"/>
<path d="M73.271 9.80216C73.1238 9.70315 72.9096 9.65463 72.6234 9.65332L72.3806 9.65463C72.22 9.65332 72.0568 9.78708 72.0237 9.94641L71.798 10.9424C71.7617 11.1024 71.8656 11.2361 72.0268 11.2348H72.2123C72.6158 11.2348 72.9288 11.1496 73.1544 10.983C73.3775 10.8119 73.4909 10.5732 73.4897 10.2592C73.4858 10.0546 73.4164 9.90051 73.271 9.80216Z" fill="white"/>
<path d="M35.0732 0H0.926771C0.414306 0 0 0.42685 0 0.953364V23.0466C0 23.5732 0.414306 24 0.926771 24H35.0732C35.5857 24 36 23.5732 36 23.0466V0.953364C36 0.42685 35.5857 0 35.0732 0ZM2.78732 7.25252H6.62953C7.14773 7.27285 7.56523 7.44267 7.70928 8.01246L8.5449 12.1465C7.72394 9.9841 5.74547 8.1849 2.75545 7.44004L2.78732 7.25252ZM7.43647 16.6813L5.21707 8.88124C6.81246 9.93164 8.17139 11.5984 8.65007 12.7583L8.90885 13.7215L11.336 7.34235H13.9621L10.0593 16.6793L7.43647 16.6813ZM15.8921 16.6878H13.414L14.9635 7.33251H17.4429L15.8921 16.6878ZM20.2047 16.8281C19.0938 16.8163 18.0236 16.5901 17.4436 16.3285L17.7922 14.2349L18.1115 14.3837C18.9255 14.7332 19.4526 14.8748 20.445 14.8748C21.157 14.8748 21.92 14.5883 21.927 13.9615C21.9314 13.5517 21.6077 13.2592 20.6426 12.8003C19.7018 12.3531 18.4564 11.603 18.4717 10.2595C18.4851 8.44128 20.2111 7.17253 22.6606 7.17253C23.6205 7.17253 24.3899 7.37579 24.8807 7.56528L24.546 9.59331L24.3223 9.48512C23.8659 9.29629 23.2789 9.11401 22.4675 9.12712C21.4974 9.12712 21.0474 9.54282 21.0474 9.93164C21.0423 10.3696 21.5726 10.6581 22.4394 11.0922C23.8691 11.7597 24.5301 12.5695 24.5212 13.6336C24.5021 15.5745 22.811 16.8281 20.2047 16.8281ZM30.9448 16.6917C30.9448 16.6917 30.7186 15.6164 30.6433 15.2899C30.2826 15.2899 27.7534 15.286 27.4691 15.286C27.3729 15.5384 26.9484 16.6917 26.9484 16.6917H24.3459L28.0256 8.11868C28.2869 7.50955 28.7299 7.34235 29.3239 7.34235H31.2387L33.2445 16.6911L30.9448 16.6917Z" fill="white"/>
<path d="M29.6657 10.6717L29.4987 9.86523C29.3725 10.2173 29.1551 10.7832 29.1691 10.7583C29.1691 10.7583 28.3858 12.8348 28.1818 13.3731H30.24C30.1405 12.9043 29.6657 10.6717 29.6657 10.6717Z" fill="white"/>
<path d="M165.594 10.4077C164.919 10.4077 164.402 10.6306 164.402 10.6306L164.26 11.5027C164.26 11.5027 164.686 11.3244 165.332 11.3244C165.698 11.3244 165.966 11.3663 165.966 11.6725C165.966 11.8587 165.933 11.9276 165.933 11.9276C165.933 11.9276 165.645 11.9033 165.511 11.9033C164.66 11.9033 163.766 12.2758 163.766 13.4029C163.766 14.2907 164.352 14.4933 164.716 14.4933C165.41 14.4933 165.71 14.0304 165.725 14.0291L165.692 14.4159H166.559L166.945 11.6293C166.944 10.4457 165.942 10.4077 165.594 10.4077ZM165.108 13.6455C164.803 13.6455 164.723 13.4062 164.723 13.2632C164.723 12.9865 164.869 12.6534 165.59 12.6534C165.758 12.6541 165.776 12.6718 165.804 12.677C165.823 12.8475 165.701 13.6455 165.108 13.6455Z" fill="white"/>
<path d="M168.722 11.3422C168.86 11.3422 169.394 11.3874 169.394 11.3874L169.518 10.4944C169.518 10.4944 169.173 10.415 168.61 10.415C167.882 10.415 167.144 10.714 167.144 11.7362C167.144 12.8955 168.376 12.7775 168.376 13.2666C168.376 13.5918 168.032 13.6187 167.766 13.6187C167.307 13.6187 166.894 13.4574 166.893 13.464L166.761 14.3498C166.785 14.3564 167.04 14.4731 167.865 14.4731C168.086 14.4731 169.353 14.5321 169.353 13.1873C169.353 11.9297 168.181 12.1782 168.181 11.6726C168.181 11.4209 168.371 11.3422 168.722 11.3422Z" fill="white"/>
<path d="M170.791 11.4562H171.312L171.438 10.5042H170.947L171.047 9.91406H170.063C170.042 9.9357 169.483 13.2423 169.483 13.6436C169.483 14.2409 169.808 14.5058 170.267 14.5012C170.626 14.4986 170.905 14.3963 171.004 14.3681L171.127 13.5079C171.06 13.5079 170.961 13.538 170.874 13.538C170.531 13.538 170.494 13.3498 170.515 13.2115L170.791 11.4562Z" fill="white"/>
<path d="M174.914 5.93262H173.158C172.922 6.26046 172.7 6.60928 172.5 6.95024H175.631C175.414 6.59486 175.174 6.25521 174.914 5.93262Z" fill="white"/>
<path d="M188.61 17.3795C188.591 17.35 188.575 17.3277 188.562 17.3139C188.555 17.3074 188.546 17.3002 188.534 17.2969C188.562 17.2949 188.585 17.2844 188.601 17.2667C188.617 17.249 188.626 17.228 188.626 17.2038C188.626 17.1867 188.621 17.1703 188.612 17.1552C188.602 17.1402 188.588 17.129 188.571 17.1231C188.555 17.1166 188.527 17.1133 188.49 17.1133H188.379V17.4444H188.431V17.3041H188.461C188.479 17.3041 188.494 17.308 188.502 17.3159C188.515 17.327 188.534 17.3526 188.557 17.3926L188.585 17.4451H188.649L188.61 17.3795ZM188.494 17.2602H188.43V17.1605H188.49C188.515 17.1605 188.531 17.1625 188.541 17.1664C188.551 17.1703 188.557 17.1762 188.563 17.1834C188.568 17.1913 188.571 17.1998 188.571 17.209C188.571 17.2241 188.566 17.2372 188.555 17.2464C188.544 17.2549 188.523 17.2602 188.494 17.2602Z" fill="white"/>
<path d="M176.163 7.94873H171.952C171.683 8.47262 171.505 8.86865 171.454 8.96701H176.562C176.447 8.61687 176.314 8.27788 176.163 7.94873Z" fill="white"/>
<path d="M162.561 9.60205L161.591 12.5592L161.541 9.60205H160.105L159.319 14.4207H160.268L160.866 10.7882L160.954 14.4207H161.632L162.896 10.7882L162.336 14.4207H163.343L164.118 9.60205H162.561Z" fill="white"/>
<path d="M181.54 10.4077C180.864 10.4077 180.348 10.6306 180.348 10.6306L180.204 11.5027C180.204 11.5027 180.631 11.3244 181.276 11.3244C181.643 11.3244 181.911 11.3663 181.911 11.6725C181.911 11.8587 181.877 11.9276 181.877 11.9276C181.877 11.9276 181.589 11.9033 181.454 11.9033C180.604 11.9033 179.711 12.2758 179.711 13.4029C179.711 14.2907 180.297 14.4933 180.661 14.4933C181.354 14.4933 181.654 14.0304 181.67 14.0291L181.637 14.4159H182.503L182.889 11.6293C182.891 10.4457 181.888 10.4077 181.54 10.4077ZM181.055 13.6455C180.749 13.6455 180.67 13.4062 180.67 13.2632C180.67 12.9865 180.816 12.6534 181.537 12.6534C181.705 12.6541 181.723 12.6718 181.751 12.677C181.77 12.8475 181.647 13.6455 181.055 13.6455Z" fill="white"/>
<path d="M188.641 13.9764C188.615 13.9265 188.576 13.8885 188.529 13.8623C188.481 13.8354 188.433 13.8223 188.382 13.8223C188.333 13.8229 188.284 13.836 188.235 13.8623C188.188 13.8885 188.151 13.9265 188.124 13.9764C188.097 14.0255 188.084 14.0767 188.084 14.1298C188.084 14.1829 188.097 14.2334 188.124 14.2819C188.15 14.3304 188.187 14.3691 188.234 14.3966C188.282 14.4235 188.331 14.4373 188.382 14.4373C188.434 14.4373 188.484 14.4235 188.531 14.3966C188.578 14.3691 188.615 14.3304 188.641 14.2819C188.668 14.2334 188.68 14.1829 188.68 14.1298C188.68 14.0754 188.668 14.0242 188.641 13.9764ZM188.599 14.2563C188.578 14.297 188.547 14.3278 188.507 14.3521C188.467 14.3744 188.427 14.3862 188.384 14.3862C188.341 14.3862 188.299 14.3744 188.26 14.3521C188.22 14.3291 188.19 14.2976 188.167 14.2563C188.144 14.215 188.134 14.1731 188.134 14.1291C188.134 14.0852 188.145 14.0426 188.169 14.0013C188.191 13.9606 188.221 13.9291 188.262 13.9062C188.302 13.8832 188.343 13.8734 188.384 13.8734C188.425 13.8734 188.466 13.8839 188.505 13.9062C188.546 13.9291 188.576 13.96 188.598 14.0013C188.62 14.0426 188.633 14.0852 188.633 14.1291C188.633 14.1731 188.622 14.2157 188.599 14.2563Z" fill="white"/>
<path d="M188.484 14.2345C188.465 14.2037 188.449 14.182 188.436 14.1689C188.429 14.1617 188.421 14.1558 188.409 14.1519C188.436 14.1499 188.459 14.1394 188.475 14.1217C188.491 14.1046 188.501 14.0823 188.501 14.0587C188.501 14.0424 188.496 14.0253 188.486 14.0102C188.475 13.9958 188.462 13.9847 188.446 13.9781C188.43 13.9715 188.402 13.9683 188.364 13.9683H188.252V14.2987H188.305V14.1584H188.334C188.353 14.1584 188.368 14.1623 188.377 14.1696C188.39 14.1814 188.408 14.2063 188.431 14.2476L188.459 14.2994H188.523L188.484 14.2345ZM188.369 14.1132H188.306V14.0128H188.364C188.39 14.0128 188.407 14.0148 188.417 14.0181C188.425 14.0227 188.433 14.0273 188.438 14.0358C188.443 14.0443 188.446 14.0515 188.446 14.0627C188.446 14.0771 188.44 14.0896 188.431 14.0987C188.419 14.1099 188.399 14.1132 188.369 14.1132Z" fill="white"/>
<path d="M184.882 10.4556C184.442 10.4556 184.115 11.0739 184.115 11.0739L184.203 10.5054H183.286L182.672 14.4277H183.682C183.969 12.7518 184.022 11.3925 184.704 11.641C184.825 10.9932 184.941 10.7421 185.072 10.4687C185.072 10.4693 185.01 10.4556 184.882 10.4556Z" fill="white"/>
<path d="M187.419 9.60695L187.207 10.9609C187.207 10.9609 186.837 10.4344 186.257 10.4344C185.355 10.4351 184.604 11.553 184.604 12.8368C184.604 13.6663 185.005 14.4787 185.824 14.4787C186.413 14.4787 186.74 14.0558 186.74 14.0558L186.697 14.417H187.654L188.406 9.60498L187.419 9.60695ZM186.172 13.4952C185.817 13.4952 185.651 13.1896 185.651 12.7096C185.651 11.9248 185.994 11.4075 186.427 11.4075C186.78 11.4081 186.961 11.6579 186.961 12.2467C186.961 12.7811 186.704 13.4952 186.172 13.4952Z" fill="white"/>
<path d="M191.073 0H156.927C156.414 0 156 0.42685 156 0.953364V23.0466C156 23.5732 156.414 24 156.927 24H191.073C191.586 24 192 23.5732 192 23.0466V0.953364C192 0.42685 191.586 0 191.073 0ZM188.768 17.4274C188.741 17.4773 188.705 17.5153 188.658 17.5422C188.61 17.5691 188.561 17.5828 188.51 17.5828C188.457 17.5828 188.408 17.5691 188.36 17.5422C188.314 17.5153 188.277 17.4773 188.25 17.4274C188.223 17.3796 188.21 17.3284 188.21 17.2753C188.21 17.2222 188.223 17.1717 188.25 17.1219C188.276 17.072 188.315 17.0347 188.362 17.0078C188.41 16.9822 188.458 16.9684 188.509 16.9684C188.559 16.9684 188.608 16.9822 188.655 17.0078C188.703 17.0347 188.74 17.072 188.767 17.1219C188.793 17.1717 188.806 17.2229 188.806 17.2753C188.806 17.3278 188.795 17.3809 188.768 17.4274ZM189.436 12.0003C189.437 17.2491 185.303 21.5058 180.2 21.5071C177.814 21.5077 175.637 20.5773 173.998 19.0489C172.359 20.5747 170.187 21.5045 167.805 21.5045C162.705 21.5045 158.566 17.2471 158.566 12.0003C158.566 6.77453 162.672 2.52963 167.745 2.49553C167.765 2.49553 167.785 2.49553 167.805 2.49553C170.187 2.49553 172.359 3.42529 173.999 4.95107C175.637 3.42464 177.811 2.49422 180.195 2.49357C185.298 2.4916 189.436 6.74633 189.437 11.9957C189.436 11.997 189.436 11.9977 189.436 12.0003Z" fill="white"/>
<path d="M173.052 18.0098C173.345 18.3783 173.655 18.7297 173.997 19.0484C174.004 19.0412 174.013 19.0346 174.02 19.028C174.02 19.028 174.02 19.028 174.02 19.0274H174.022C174.358 18.712 174.672 18.3724 174.96 18.0098H173.052Z" fill="white"/>
<path d="M174.31 12.7931C174.31 12.7931 174.44 12.1374 174.44 11.8705C174.44 11.2037 174.117 10.3906 173.037 10.3906C172.048 10.3913 171.316 11.4876 171.316 12.7268C171.316 14.1569 172.233 14.4965 173.015 14.4965C173.737 14.4965 174.054 14.33 174.054 14.33L174.227 13.3543C174.227 13.3543 173.679 13.6035 173.183 13.6035C172.127 13.6035 172.311 12.7931 172.311 12.7931H174.31ZM173.041 11.2987C173.596 11.2987 173.493 11.9407 173.493 11.9918H172.401C172.401 11.9256 172.505 11.2987 173.041 11.2987Z" fill="white"/>
<path d="M178.924 10.5249C179.424 10.5249 179.826 10.814 179.826 10.814L179.987 9.74199C179.987 9.74199 179.392 9.49414 178.879 9.49414C177.744 9.49414 176.639 10.5078 176.639 12.4113C176.639 13.6735 177.235 14.5068 178.41 14.5068C178.741 14.5068 179.27 14.3685 179.27 14.3685L179.446 13.2643C179.446 13.2643 178.964 13.5128 178.633 13.5128C177.934 13.5122 177.654 12.964 177.654 12.3765C177.654 11.1812 178.255 10.5249 178.924 10.5249Z" fill="white"/>
<path d="M171.819 16.0132C171.979 16.3666 172.165 16.703 172.365 17.0308H175.643C175.842 16.7043 176.021 16.3646 176.181 16.0132H171.819Z" fill="white"/>
<path d="M176.621 10.4566C176.181 10.4566 175.855 11.0749 175.855 11.0749L175.943 10.5065H175.027L174.414 14.4288H175.423C175.709 12.7535 175.763 11.3936 176.446 11.6421C176.565 10.9936 176.681 10.7425 176.811 10.4684C176.811 10.4684 176.75 10.4553 176.621 10.4566Z" fill="white"/>
</svg>
