<svg width="25" height="24" viewBox="0 0 25 24" fill="none" xmlns="http://www.w3.org/2000/svg">
<path d="M21.172 0H2.91522C1.34245 0 0 1.47736 0 3.04531V21.3139C0 22.8813 1.34245 24 2.91522 24H21.172C22.7447 24 24.0028 22.8813 24.0028 21.3139V3.04531C24.0028 1.47736 22.7447 0 21.172 0ZM20.6073 3.42847C21.0623 3.42847 21.4313 3.79741 21.4313 4.25244V6.89069C21.4313 7.34572 21.0623 7.71466 20.6073 7.71466H17.9687C17.5137 7.71466 17.1447 7.34572 17.1447 6.89069V4.25244C17.1447 3.79741 17.5137 3.42847 17.9687 3.42847H20.6073ZM12.0713 7.61312C14.6152 7.61312 16.6771 9.67064 16.6771 12.2075C16.6771 14.7448 14.6152 16.8023 12.0713 16.8023C9.52799 16.8023 7.46556 14.7448 7.46556 12.2075C7.46556 9.67064 9.52794 7.61312 12.0713 7.61312ZM21.4313 20.7011C21.4313 21.0697 21.0395 21.4289 20.6697 21.4289H3.47367C3.104 21.4289 2.57155 21.0697 2.57155 20.7011V10.2858H5.04482C4.87643 11.1432 4.78557 11.543 4.78557 12.2075C4.78557 16.2153 8.05377 19.475 12.0713 19.475C16.0892 19.475 19.3575 16.2145 19.3575 12.2067C19.3575 11.543 19.2666 11.1432 19.099 10.2858H21.4313V20.7011Z" fill="white"/>
</svg>
