<svg width="109" height="130" viewBox="0 0 109 130" fill="none" xmlns="http://www.w3.org/2000/svg">
<path d="M101.975 25.9L56.9046 3C55.4205 4.67179 54.1569 6.52691 53.1446 8.52L50.9346 12.87L42.8346 28.81C39.6957 34.9869 39.1392 42.1577 41.2874 48.7449C43.4357 55.3321 48.1127 60.7962 54.2896 63.935C60.4665 67.0739 67.6373 67.6304 74.2245 65.4821C80.8117 63.3339 86.2757 58.6569 89.4146 52.48L97.5146 36.54L99.7246 32.19C100.74 30.1981 101.496 28.0842 101.975 25.9Z" fill="white"/>
<path d="M59.2421 45.528L43.9567 75.6182L51.7043 79.5539L66.9898 49.4637L59.2421 45.528Z" fill="white"/>
<path d="M6.07214 104.062L51.1421 126.962C52.6262 125.29 53.8898 123.435 54.9021 121.442L57.1121 117.092L65.2121 101.152C68.274 94.981 68.7748 87.8503 66.6058 81.3117C64.4368 74.773 59.7734 69.3555 53.6303 66.2378C47.4871 63.12 40.3613 62.5544 33.8032 64.664C27.2452 66.7736 21.7855 71.3876 18.6121 77.5022L10.5121 93.4422L8.30214 97.7922C7.29492 99.7787 6.54553 101.886 6.07214 104.062Z" fill="white"/>
<path d="M53.9322 75.0823L60.8622 61.4523L53.2322 57.5823L46.3022 71.2123C42.2254 70.2229 37.9341 70.6384 34.1229 72.3916C30.3117 74.1447 27.2037 77.1329 25.3022 80.8723L19.5322 92.2323L17.9622 95.3323C17.239 96.7543 16.7013 98.2634 16.3622 99.8223L48.4922 116.142C49.5503 114.949 50.451 113.625 51.1722 112.202L52.7422 109.102L58.5122 97.7423C60.412 94.0013 60.9933 89.7285 60.1621 85.616C59.3309 81.5034 57.1357 77.7918 53.9322 75.0823Z" fill="#6BADEE"/>
<path opacity="0.3" d="M50.1622 10.9322L51.7221 11.7222L51.2722 12.6122L43.1722 28.5022C40.339 34.0804 39.6014 40.4899 41.0933 46.5658C42.5852 52.6417 46.2076 57.9806 51.3022 61.6122L49.9122 64.3522C43.9695 62.381 37.5166 62.6091 31.728 64.995C25.9393 67.381 21.1999 71.7661 18.3722 77.3522L10.2722 93.2922L9.82216 94.1822L8.26215 93.3922C6.90663 92.7338 5.34682 92.6339 3.91836 93.1139C2.48991 93.594 1.30699 94.6156 0.624165 95.959C-0.0586625 97.3023 -0.186826 98.8601 0.267255 100.297C0.721335 101.734 1.72137 102.935 3.05215 103.642L27.7221 116.172L80.0422 13.1722L55.3722 0.6722C54.6976 0.3138 53.9584 0.093398 53.1977 0.0238695C52.437 -0.045659 51.67 0.0370762 50.9417 0.267247C50.2133 0.497418 49.5381 0.870419 48.9555 1.36445C48.3729 1.85847 47.8946 2.46363 47.5485 3.14458C47.2023 3.82553 46.9954 4.56862 46.9396 5.33045C46.8839 6.09228 46.9805 6.85758 47.2238 7.58165C47.4672 8.30573 47.8523 8.97407 48.3568 9.54763C48.8613 10.1212 49.475 10.5885 50.1622 10.9222V10.9322Z" fill="#939389"/>
<path d="M107.842 33.7822C107.151 35.1413 105.949 36.1702 104.499 36.6428C103.049 37.1153 101.471 36.9928 100.112 36.3022L50.4122 11.0522C49.0531 10.3611 48.0242 9.15857 47.5516 7.70899C47.079 6.2594 47.2015 4.68149 47.8922 3.32221C48.5833 1.96315 49.7858 0.934209 51.2354 0.461641C52.685 -0.0109265 54.2629 0.111571 55.6222 0.802202L105.322 26.0522C106.681 26.7433 107.71 27.9458 108.183 29.3954C108.655 30.845 108.533 32.4229 107.842 33.7822Z" fill="#434242"/>
<path d="M0.772153 96.0422C1.11259 95.3676 1.58267 94.7666 2.15551 94.2737C2.72836 93.7809 3.39274 93.4058 4.11065 93.1699C4.82857 92.934 5.58595 92.8419 6.33948 92.899C7.09301 92.956 7.82791 93.161 8.50216 93.5022L58.2022 118.752C58.882 119.09 59.4881 119.559 59.9858 120.132C60.4834 120.705 60.8626 121.371 61.1015 122.092C61.3405 122.812 61.4344 123.573 61.3778 124.33C61.3213 125.087 61.1154 125.825 60.7722 126.502C60.0811 127.861 58.8785 128.89 57.4289 129.363C55.9794 129.835 54.4014 129.713 53.0421 129.022L3.34215 103.772C2.66491 103.434 2.06102 102.966 1.5651 102.395C1.06918 101.823 0.690995 101.159 0.45223 100.441C0.213465 99.7226 0.118819 98.9644 0.173719 98.2096C0.228618 97.4548 0.431984 96.7183 0.772153 96.0422Z" fill="#434242"/>
<path d="M48.7021 34.8423C46.8297 38.5775 46.2673 42.8337 47.1052 46.927C47.9431 51.0204 50.1327 54.7132 53.3222 57.4123L46.3922 71.0423L54.0221 74.9223L60.9521 61.2923C65.0198 62.2881 69.3044 61.8844 73.1145 60.1463C76.9246 58.4082 80.0379 55.437 81.9521 51.7123L48.7021 34.8423Z" fill="#6BADEE"/>
</svg>
