<svg width="71" height="90" viewBox="0 0 71 90" fill="none" xmlns="http://www.w3.org/2000/svg">
<path d="M35.2374 88.204C53.7091 88.1654 68.6519 73.1598 68.6133 54.6881C68.5746 36.2165 53.569 21.2736 35.0973 21.3123C16.6257 21.351 1.68279 36.3566 1.72148 54.8282C1.76016 73.2999 16.7658 88.2427 35.2374 88.204Z" fill="white"/>
<path d="M35.1616 90C25.8292 89.9897 16.8829 86.2739 10.2894 79.6694C3.69585 73.065 -0.00514657 64.1125 5.37158e-06 54.7801C0.00515731 45.4478 3.71604 36.4994 10.3168 29.9022C16.9176 23.3051 25.8681 19.5991 35.2004 19.5991C44.5328 19.5991 53.4832 23.3051 60.084 29.9022C66.6848 36.4994 70.3957 45.4478 70.4009 54.7801C70.406 64.1125 66.705 73.065 60.1115 79.6694C53.518 86.2739 44.5717 89.9897 35.2393 90H35.1616ZM35.1616 23.1191C26.7682 23.1191 18.7187 26.4534 12.7837 32.3884C6.84873 38.3234 3.51449 46.3729 3.51449 54.7662C3.51449 63.1595 6.84873 71.2091 12.7837 77.1441C18.7187 83.0791 26.7682 86.4133 35.1616 86.4133V88.2122L35.2282 86.4133C43.6215 86.4045 51.6676 83.0618 57.5963 77.1205C63.525 71.1793 66.8508 63.1262 66.842 54.7329C66.8331 46.3396 63.4904 38.2936 57.5492 32.3648C51.608 26.4361 43.5549 23.1103 35.1616 23.1191Z" fill="#6BADEE"/>
<path d="M37.6489 7.6731H31.1196C30.5247 7.6731 30.0425 8.15534 30.0425 8.75021V12.0815C30.0425 12.6764 30.5247 13.1586 31.1196 13.1586H37.6489C38.2438 13.1586 38.726 12.6764 38.726 12.0815V8.75021C38.726 8.15534 38.2438 7.6731 37.6489 7.6731Z" fill="#6BADEE"/>
<path d="M36.3547 12.7456L33.723 12.7498L33.7339 19.701L36.3656 19.6969L36.3547 12.7456Z" fill="#6BADEE"/>
<path d="M34.9618 19.0327C33.0801 19.0327 31.2406 18.4748 29.6759 17.4297C28.1112 16.3845 26.8915 14.8989 26.1709 13.1606C25.4503 11.4224 25.2612 9.50955 25.6275 7.66387C25.9938 5.81818 26.899 4.12251 28.2288 2.79119C29.5586 1.45987 31.2532 0.552656 33.0984 0.184213C34.9437 -0.18423 36.8567 0.00264441 38.5958 0.721211C40.3349 1.43978 41.8219 2.65778 42.8689 4.22127C43.9159 5.78477 44.4759 7.62355 44.4781 9.50523C44.4781 12.0301 43.4758 14.4518 41.6915 16.2382C39.9072 18.0246 37.4867 19.0297 34.9618 19.0327ZM34.9618 1.81C33.9244 1.77063 32.8898 1.94095 31.9198 2.31077C30.9498 2.68059 30.0643 3.24231 29.3165 3.96231C28.5687 4.68231 27.9738 5.54579 27.5674 6.50107C27.1611 7.45635 26.9516 8.48377 26.9516 9.52188C26.9516 10.56 27.1611 11.5874 27.5674 12.5427C27.9738 13.498 28.5687 14.3615 29.3165 15.0815C30.0643 15.8015 30.9498 16.3632 31.9198 16.733C32.8898 17.1028 33.9244 17.2732 34.9618 17.2338C36.9564 17.1581 38.8442 16.3125 40.2287 14.8745C41.6131 13.4365 42.3865 11.518 42.3865 9.52188C42.3865 7.52576 41.6131 5.60729 40.2287 4.16931C38.8442 2.73132 36.9564 1.8857 34.9618 1.81Z" fill="#6BADEE"/>
<path d="M35.0676 60.1109C37.9928 60.1047 40.3593 57.7284 40.3532 54.8031C40.347 51.8778 37.9707 49.5113 35.0454 49.5175C32.1201 49.5236 29.7536 51.9 29.7598 54.8253C29.7659 57.7506 32.1423 60.117 35.0676 60.1109Z" fill="#6BADEE"/>
<path d="M51.7735 39.2314L39.3811 53.6225L37.0381 51.2907L51.7735 39.2314Z" fill="#6BADEE"/>
<path d="M59.8907 55.5435C59.6522 55.5435 59.4234 55.4487 59.2547 55.2801C59.086 55.1114 58.9913 54.8826 58.9913 54.6441C58.9913 54.4055 59.086 54.1767 59.2547 54.0081C59.4234 53.8394 59.6522 53.7446 59.8907 53.7446H63.7772C64.0157 53.7446 64.2445 53.8394 64.4132 54.0081C64.5819 54.1767 64.6766 54.4055 64.6766 54.6441C64.6766 54.8826 64.5819 55.1114 64.4132 55.2801C64.2445 55.4487 64.0157 55.5435 63.7772 55.5435H59.8907Z" fill="#6BADEE"/>
<path d="M5.93527 55.5435C5.69672 55.5435 5.46795 55.4487 5.29927 55.2801C5.13059 55.1114 5.03583 54.8826 5.03583 54.6441C5.03583 54.4055 5.13059 54.1767 5.29927 54.0081C5.46795 53.8394 5.69672 53.7446 5.93527 53.7446H9.76623C10.0048 53.7446 10.2336 53.8394 10.4022 54.0081C10.5709 54.1767 10.6657 54.4055 10.6657 54.6441C10.6657 54.8826 10.5709 55.1114 10.4022 55.2801C10.2336 55.4487 10.0048 55.5435 9.76623 55.5435H5.93527Z" fill="#6BADEE"/>
<path d="M35.7612 29.5484C35.7612 29.7869 35.6664 30.0157 35.4977 30.1844C35.329 30.3531 35.1003 30.4478 34.8617 30.4478C34.6232 30.4478 34.3944 30.3531 34.2257 30.1844C34.057 30.0157 33.9623 29.7869 33.9623 29.5484V25.7063C33.9623 25.4678 34.057 25.239 34.2257 25.0703C34.3944 24.9016 34.6232 24.8069 34.8617 24.8069C35.1003 24.8069 35.329 24.9016 35.4977 25.0703C35.6664 25.239 35.7612 25.4678 35.7612 25.7063V29.5484Z" fill="#6BADEE"/>
<path d="M35.7612 83.5594C35.7612 83.7979 35.6664 84.0267 35.4977 84.1954C35.329 84.3641 35.1003 84.4588 34.8617 84.4588C34.6232 84.4588 34.3944 84.3641 34.2257 84.1954C34.057 84.0267 33.9623 83.7979 33.9623 83.5594V79.7173C33.9623 79.4788 34.057 79.25 34.2257 79.0813C34.3944 78.9126 34.6232 78.8179 34.8617 78.8179C35.1003 78.8179 35.329 78.9126 35.4977 79.0813C35.6664 79.25 35.7612 79.4788 35.7612 79.7173V83.5594Z" fill="#6BADEE"/>
</svg>
