<svg width="270" height="72" viewBox="0 0 270 72" fill="none" xmlns="http://www.w3.org/2000/svg">
<rect opacity="0.5" width="270" height="72" rx="8" fill="white"/>
<path d="M24.2625 21.4078C23.4382 20.9116 22.4556 20.8672 21.5988 21.2803L35.9658 35.678L40.6633 30.9585L24.2625 21.4078ZM20.2788 22.6128C20.0975 22.9966 20 23.4235 20 23.8628V50.1993C20 50.6406 20.0981 51.0612 20.2813 51.4369L34.6426 37.0073L20.2788 22.6128ZM35.9677 38.3349L21.6238 52.7469C22.0045 52.9231 22.4095 53 22.8138 53C23.3132 53 23.8114 52.8806 24.2626 52.6094L40.6665 43.0443L35.9677 38.3349ZM46.9097 34.5961C46.9041 34.5923 46.8978 34.5886 46.8922 34.5854L42.3384 31.9335L37.2902 37.0055L42.3415 42.0674C42.3415 42.0674 46.9041 39.4074 46.9097 39.4042C47.7566 38.8899 48.2622 37.9911 48.2622 36.9998C48.2622 36.0086 47.7566 35.1098 46.9097 34.5961Z" fill="white"/>
<path d="M73.68 16.8H78.4C79.584 16.8 80.6347 17.0347 81.552 17.504C82.4693 17.9733 83.1787 18.6347 83.68 19.488C84.192 20.3307 84.448 21.3013 84.448 22.4C84.448 23.4987 84.192 24.4747 83.68 25.328C83.1787 26.1707 82.4693 26.8267 81.552 27.296C80.6347 27.7653 79.584 28 78.4 28H73.68V16.8ZM78.304 26.608C79.2107 26.608 80.0053 26.432 80.688 26.08C81.3813 25.728 81.9147 25.2373 82.288 24.608C82.6613 23.968 82.848 23.232 82.848 22.4C82.848 21.568 82.6613 20.8373 82.288 20.208C81.9147 19.568 81.3813 19.072 80.688 18.72C80.0053 18.368 79.2107 18.192 78.304 18.192H75.28V26.608H78.304ZM91.6548 28.128C90.5241 28.128 89.5054 27.8827 88.5987 27.392C87.6921 26.8907 86.9774 26.2027 86.4547 25.328C85.9427 24.4533 85.6867 23.4773 85.6867 22.4C85.6867 21.3227 85.9427 20.3467 86.4547 19.472C86.9774 18.5973 87.6921 17.9147 88.5987 17.424C89.5054 16.9227 90.5241 16.672 91.6548 16.672C92.7748 16.672 93.7881 16.9227 94.6947 17.424C95.6014 17.9147 96.3108 18.5973 96.8228 19.472C97.3348 20.336 97.5908 21.312 97.5908 22.4C97.5908 23.488 97.3348 24.4693 96.8228 25.344C96.3108 26.208 95.6014 26.8907 94.6947 27.392C93.7881 27.8827 92.7748 28.128 91.6548 28.128ZM91.6548 26.704C92.4761 26.704 93.2121 26.5173 93.8628 26.144C94.5241 25.7707 95.0414 25.2587 95.4148 24.608C95.7988 23.9467 95.9908 23.2107 95.9908 22.4C95.9908 21.5893 95.7988 20.8587 95.4148 20.208C95.0414 19.5467 94.5241 19.0293 93.8628 18.656C93.2121 18.2827 92.4761 18.096 91.6548 18.096C90.8334 18.096 90.0868 18.2827 89.4148 18.656C88.7534 19.0293 88.2308 19.5467 87.8468 20.208C87.4734 20.8587 87.2867 21.5893 87.2867 22.4C87.2867 23.2107 87.4734 23.9467 87.8468 24.608C88.2308 25.2587 88.7534 25.7707 89.4148 26.144C90.0868 26.5173 90.8334 26.704 91.6548 26.704ZM115.201 16.8L111.457 28H109.777L106.721 19.056L103.665 28H101.953L98.2089 16.8H99.8569L102.881 25.904L106.033 16.8H107.505L110.593 25.952L113.681 16.8H115.201ZM126.49 16.8V28H125.178L118.458 19.648V28H116.858V16.8H118.17L124.89 25.152V16.8H126.49ZM129.542 16.8H131.142V26.608H137.207V28H129.542V16.8ZM143.595 28.128C142.465 28.128 141.446 27.8827 140.539 27.392C139.633 26.8907 138.918 26.2027 138.395 25.328C137.883 24.4533 137.627 23.4773 137.627 22.4C137.627 21.3227 137.883 20.3467 138.395 19.472C138.918 18.5973 139.633 17.9147 140.539 17.424C141.446 16.9227 142.465 16.672 143.595 16.672C144.715 16.672 145.729 16.9227 146.635 17.424C147.542 17.9147 148.251 18.5973 148.763 19.472C149.275 20.336 149.531 21.312 149.531 22.4C149.531 23.488 149.275 24.4693 148.763 25.344C148.251 26.208 147.542 26.8907 146.635 27.392C145.729 27.8827 144.715 28.128 143.595 28.128ZM143.595 26.704C144.417 26.704 145.153 26.5173 145.803 26.144C146.465 25.7707 146.982 25.2587 147.355 24.608C147.739 23.9467 147.931 23.2107 147.931 22.4C147.931 21.5893 147.739 20.8587 147.355 20.208C146.982 19.5467 146.465 19.0293 145.803 18.656C145.153 18.2827 144.417 18.096 143.595 18.096C142.774 18.096 142.027 18.2827 141.355 18.656C140.694 19.0293 140.171 19.5467 139.787 20.208C139.414 20.8587 139.227 21.5893 139.227 22.4C139.227 23.2107 139.414 23.9467 139.787 24.608C140.171 25.2587 140.694 25.7707 141.355 26.144C142.027 26.5173 142.774 26.704 143.595 26.704ZM158.657 25.2H152.705L151.473 28H149.825L154.897 16.8H156.481L161.569 28H159.889L158.657 25.2ZM158.097 23.92L155.681 18.432L153.265 23.92H158.097ZM162.939 16.8H167.659C168.843 16.8 169.894 17.0347 170.811 17.504C171.729 17.9733 172.438 18.6347 172.939 19.488C173.451 20.3307 173.707 21.3013 173.707 22.4C173.707 23.4987 173.451 24.4747 172.939 25.328C172.438 26.1707 171.729 26.8267 170.811 27.296C169.894 27.7653 168.843 28 167.659 28H162.939V16.8ZM167.563 26.608C168.47 26.608 169.265 26.432 169.947 26.08C170.641 25.728 171.174 25.2373 171.547 24.608C171.921 23.968 172.107 23.232 172.107 22.4C172.107 21.568 171.921 20.8373 171.547 20.208C171.174 19.568 170.641 19.072 169.947 18.72C169.265 18.368 168.47 18.192 167.563 18.192H164.539V26.608H167.563ZM181.455 18.192V22.096H187.071V23.472H181.455V28H179.855V16.8H187.759V18.192H181.455ZM197.199 28L194.783 24.56C194.485 24.5813 194.25 24.592 194.079 24.592H191.311V28H189.711V16.8H194.079C195.53 16.8 196.671 17.1467 197.503 17.84C198.335 18.5333 198.751 19.488 198.751 20.704C198.751 21.568 198.538 22.304 198.111 22.912C197.685 23.52 197.077 23.9627 196.287 24.24L198.943 28H197.199ZM194.031 23.232C195.045 23.232 195.818 23.0133 196.351 22.576C196.885 22.1387 197.151 21.5147 197.151 20.704C197.151 19.8933 196.885 19.2747 196.351 18.848C195.818 18.4107 195.045 18.192 194.031 18.192H191.311V23.232H194.031ZM206.092 28.128C204.962 28.128 203.943 27.8827 203.036 27.392C202.13 26.8907 201.415 26.2027 200.892 25.328C200.38 24.4533 200.124 23.4773 200.124 22.4C200.124 21.3227 200.38 20.3467 200.892 19.472C201.415 18.5973 202.13 17.9147 203.036 17.424C203.943 16.9227 204.962 16.672 206.092 16.672C207.212 16.672 208.226 16.9227 209.132 17.424C210.039 17.9147 210.748 18.5973 211.26 19.472C211.772 20.336 212.028 21.312 212.028 22.4C212.028 23.488 211.772 24.4693 211.26 25.344C210.748 26.208 210.039 26.8907 209.132 27.392C208.226 27.8827 207.212 28.128 206.092 28.128ZM206.092 26.704C206.914 26.704 207.65 26.5173 208.3 26.144C208.962 25.7707 209.479 25.2587 209.852 24.608C210.236 23.9467 210.428 23.2107 210.428 22.4C210.428 21.5893 210.236 20.8587 209.852 20.208C209.479 19.5467 208.962 19.0293 208.3 18.656C207.65 18.2827 206.914 18.096 206.092 18.096C205.271 18.096 204.524 18.2827 203.852 18.656C203.191 19.0293 202.668 19.5467 202.284 20.208C201.911 20.8587 201.724 21.5893 201.724 22.4C201.724 23.2107 201.911 23.9467 202.284 24.608C202.668 25.2587 203.191 25.7707 203.852 26.144C204.524 26.5173 205.271 26.704 206.092 26.704ZM224.558 28L224.542 19.84L220.494 26.64H219.758L215.71 19.888V28H214.174V16.8H215.486L220.158 24.672L224.766 16.8H226.078L226.094 28H224.558Z" fill="white"/>
<path d="M81.152 50.272H83.12V54.736C82.544 55.1947 81.872 55.5467 81.104 55.792C80.336 56.0373 79.5467 56.16 78.736 56.16C77.5947 56.16 76.5653 55.9147 75.648 55.424C74.7307 54.9227 74.0107 54.2347 73.488 53.36C72.9653 52.4853 72.704 51.4987 72.704 50.4C72.704 49.3013 72.9653 48.3147 73.488 47.44C74.0107 46.5653 74.7307 45.8827 75.648 45.392C76.576 44.8907 77.616 44.64 78.768 44.64C79.7067 44.64 80.56 44.7947 81.328 45.104C82.096 45.4133 82.7413 45.8667 83.264 46.464L81.952 47.744C81.0987 46.8907 80.0693 46.464 78.864 46.464C78.0747 46.464 77.3707 46.6293 76.752 46.96C76.144 47.2907 75.664 47.7547 75.312 48.352C74.9707 48.9493 74.8 49.632 74.8 50.4C74.8 51.1467 74.9707 51.8187 75.312 52.416C75.664 53.0133 76.144 53.4827 76.752 53.824C77.3707 54.1653 78.0693 54.336 78.848 54.336C79.7227 54.336 80.4907 54.144 81.152 53.76V50.272ZM90.7954 56.16C89.654 56.16 88.6247 55.9147 87.7074 55.424C86.79 54.9227 86.07 54.2347 85.5474 53.36C85.0247 52.4747 84.7634 51.488 84.7634 50.4C84.7634 49.312 85.0247 48.3307 85.5474 47.456C86.07 46.5707 86.79 45.8827 87.7074 45.392C88.6247 44.8907 89.654 44.64 90.7954 44.64C91.9367 44.64 92.966 44.8907 93.8834 45.392C94.8007 45.8827 95.5207 46.5653 96.0434 47.44C96.566 48.3147 96.8274 49.3013 96.8274 50.4C96.8274 51.4987 96.566 52.4853 96.0434 53.36C95.5207 54.2347 94.8007 54.9227 93.8834 55.424C92.966 55.9147 91.9367 56.16 90.7954 56.16ZM90.7954 54.336C91.542 54.336 92.214 54.1707 92.8114 53.84C93.4087 53.4987 93.878 53.0293 94.2194 52.432C94.5607 51.824 94.7314 51.1467 94.7314 50.4C94.7314 49.6533 94.5607 48.9813 94.2194 48.384C93.878 47.776 93.4087 47.3067 92.8114 46.976C92.214 46.6347 91.542 46.464 90.7954 46.464C90.0487 46.464 89.3767 46.6347 88.7794 46.976C88.182 47.3067 87.7127 47.776 87.3714 48.384C87.03 48.9813 86.8594 49.6533 86.8594 50.4C86.8594 51.1467 87.03 51.824 87.3714 52.432C87.7127 53.0293 88.182 53.4987 88.7794 53.84C89.3767 54.1707 90.0487 54.336 90.7954 54.336ZM103.964 56.16C102.823 56.16 101.793 55.9147 100.876 55.424C99.9588 54.9227 99.2388 54.2347 98.7161 53.36C98.1935 52.4747 97.9321 51.488 97.9321 50.4C97.9321 49.312 98.1935 48.3307 98.7161 47.456C99.2388 46.5707 99.9588 45.8827 100.876 45.392C101.793 44.8907 102.823 44.64 103.964 44.64C105.105 44.64 106.135 44.8907 107.052 45.392C107.969 45.8827 108.689 46.5653 109.212 47.44C109.735 48.3147 109.996 49.3013 109.996 50.4C109.996 51.4987 109.735 52.4853 109.212 53.36C108.689 54.2347 107.969 54.9227 107.052 55.424C106.135 55.9147 105.105 56.16 103.964 56.16ZM103.964 54.336C104.711 54.336 105.383 54.1707 105.98 53.84C106.577 53.4987 107.047 53.0293 107.388 52.432C107.729 51.824 107.9 51.1467 107.9 50.4C107.9 49.6533 107.729 48.9813 107.388 48.384C107.047 47.776 106.577 47.3067 105.98 46.976C105.383 46.6347 104.711 46.464 103.964 46.464C103.217 46.464 102.545 46.6347 101.948 46.976C101.351 47.3067 100.881 47.776 100.54 48.384C100.199 48.9813 100.028 49.6533 100.028 50.4C100.028 51.1467 100.199 51.824 100.54 52.432C100.881 53.0293 101.351 53.4987 101.948 53.84C102.545 54.1707 103.217 54.336 103.964 54.336ZM119.549 50.272H121.517V54.736C120.941 55.1947 120.269 55.5467 119.501 55.792C118.733 56.0373 117.944 56.16 117.133 56.16C115.992 56.16 114.962 55.9147 114.045 55.424C113.128 54.9227 112.408 54.2347 111.885 53.36C111.362 52.4853 111.101 51.4987 111.101 50.4C111.101 49.3013 111.362 48.3147 111.885 47.44C112.408 46.5653 113.128 45.8827 114.045 45.392C114.973 44.8907 116.013 44.64 117.165 44.64C118.104 44.64 118.957 44.7947 119.725 45.104C120.493 45.4133 121.138 45.8667 121.661 46.464L120.349 47.744C119.496 46.8907 118.466 46.464 117.261 46.464C116.472 46.464 115.768 46.6293 115.149 46.96C114.541 47.2907 114.061 47.7547 113.709 48.352C113.368 48.9493 113.197 49.632 113.197 50.4C113.197 51.1467 113.368 51.8187 113.709 52.416C114.061 53.0133 114.541 53.4827 115.149 53.824C115.768 54.1653 116.466 54.336 117.245 54.336C118.12 54.336 118.888 54.144 119.549 53.76V50.272ZM123.96 44.8H126.04V54.24H131.896V56H123.96V44.8ZM141.638 54.256V56H133.238V44.8H141.414V46.544H135.318V49.456H140.726V51.168H135.318V54.256H141.638ZM152.387 44.8C153.358 44.8 154.2 44.96 154.915 45.28C155.64 45.6 156.195 46.0587 156.579 46.656C156.963 47.2533 157.155 47.9627 157.155 48.784C157.155 49.5947 156.963 50.304 156.579 50.912C156.195 51.5093 155.64 51.968 154.915 52.288C154.2 52.608 153.358 52.768 152.387 52.768H149.859V56H147.779V44.8H152.387ZM152.291 51.008C153.198 51.008 153.886 50.816 154.355 50.432C154.824 50.048 155.059 49.4987 155.059 48.784C155.059 48.0693 154.824 47.52 154.355 47.136C153.886 46.752 153.198 46.56 152.291 46.56H149.859V51.008H152.291ZM158.932 44.8H161.012V54.24H166.868V56H158.932V44.8ZM175.552 53.408H169.952L168.848 56H166.704L171.744 44.8H173.792L178.848 56H176.672L175.552 53.408ZM174.864 51.776L172.752 46.88L170.656 51.776H174.864ZM184.133 52.048V56H182.053V52.08L177.653 44.8H179.877L183.157 50.256L186.469 44.8H188.517L184.133 52.048ZM197.173 56.16C196.309 56.16 195.472 56.0373 194.661 55.792C193.861 55.5467 193.226 55.2213 192.757 54.816L193.477 53.2C193.936 53.5627 194.496 53.8613 195.157 54.096C195.829 54.32 196.501 54.432 197.173 54.432C198.005 54.432 198.624 54.2987 199.029 54.032C199.445 53.7653 199.653 53.4133 199.653 52.976C199.653 52.656 199.536 52.3947 199.301 52.192C199.077 51.9787 198.789 51.8133 198.437 51.696C198.085 51.5787 197.605 51.4453 196.997 51.296C196.144 51.0933 195.45 50.8907 194.917 50.688C194.394 50.4853 193.941 50.1707 193.557 49.744C193.184 49.3067 192.997 48.72 192.997 47.984C192.997 47.3653 193.162 46.8053 193.493 46.304C193.834 45.792 194.341 45.3867 195.013 45.088C195.696 44.7893 196.528 44.64 197.509 44.64C198.192 44.64 198.864 44.7253 199.525 44.896C200.186 45.0667 200.757 45.312 201.237 45.632L200.581 47.248C200.09 46.96 199.578 46.7413 199.045 46.592C198.512 46.4427 197.994 46.368 197.493 46.368C196.672 46.368 196.058 46.5067 195.653 46.784C195.258 47.0613 195.061 47.4293 195.061 47.888C195.061 48.208 195.173 48.4693 195.397 48.672C195.632 48.8747 195.925 49.0347 196.277 49.152C196.629 49.2693 197.109 49.4027 197.717 49.552C198.549 49.744 199.232 49.9467 199.765 50.16C200.298 50.3627 200.752 50.6773 201.125 51.104C201.509 51.5307 201.701 52.1067 201.701 52.832C201.701 53.4507 201.53 54.0107 201.189 54.512C200.858 55.0133 200.352 55.4133 199.669 55.712C198.986 56.0107 198.154 56.16 197.173 56.16ZM205.579 46.56H201.867V44.8H211.371V46.56H207.659V56H205.579V46.56ZM217.708 56.16C216.567 56.16 215.537 55.9147 214.62 55.424C213.703 54.9227 212.983 54.2347 212.46 53.36C211.937 52.4747 211.676 51.488 211.676 50.4C211.676 49.312 211.937 48.3307 212.46 47.456C212.983 46.5707 213.703 45.8827 214.62 45.392C215.537 44.8907 216.567 44.64 217.708 44.64C218.849 44.64 219.879 44.8907 220.796 45.392C221.713 45.8827 222.433 46.5653 222.956 47.44C223.479 48.3147 223.74 49.3013 223.74 50.4C223.74 51.4987 223.479 52.4853 222.956 53.36C222.433 54.2347 221.713 54.9227 220.796 55.424C219.879 55.9147 218.849 56.16 217.708 56.16ZM217.708 54.336C218.455 54.336 219.127 54.1707 219.724 53.84C220.321 53.4987 220.791 53.0293 221.132 52.432C221.473 51.824 221.644 51.1467 221.644 50.4C221.644 49.6533 221.473 48.9813 221.132 48.384C220.791 47.776 220.321 47.3067 219.724 46.976C219.127 46.6347 218.455 46.464 217.708 46.464C216.961 46.464 216.289 46.6347 215.692 46.976C215.095 47.3067 214.625 47.776 214.284 48.384C213.943 48.9813 213.772 49.6533 213.772 50.4C213.772 51.1467 213.943 51.824 214.284 52.432C214.625 53.0293 215.095 53.4987 215.692 53.84C216.289 54.1707 216.961 54.336 217.708 54.336ZM232.973 56L230.685 52.72C230.589 52.7307 230.445 52.736 230.253 52.736H227.725V56H225.645V44.8H230.253C231.223 44.8 232.066 44.96 232.781 45.28C233.506 45.6 234.061 46.0587 234.445 46.656C234.829 47.2533 235.021 47.9627 235.021 48.784C235.021 49.6267 234.813 50.352 234.397 50.96C233.991 51.568 233.405 52.0213 232.637 52.32L235.213 56H232.973ZM232.925 48.784C232.925 48.0693 232.69 47.52 232.221 47.136C231.751 46.752 231.063 46.56 230.157 46.56H227.725V51.024H230.157C231.063 51.024 231.751 50.832 232.221 50.448C232.69 50.0533 232.925 49.4987 232.925 48.784ZM245.448 54.256V56H237.048V44.8H245.224V46.544H239.128V49.456H244.536V51.168H239.128V54.256H245.448Z" fill="white"/>
</svg>
