<svg width="270" height="72" viewBox="0 0 270 72" fill="none" xmlns="http://www.w3.org/2000/svg">
<rect opacity="0.5" width="270" height="72" rx="8" fill="white"/>
<path d="M21.3418 31.763C18.6521 36.4576 20.362 43.5818 23.3363 47.9015C24.821 50.0612 26.3242 51.9997 28.383 51.9997C28.4218 51.9997 28.4607 51.999 28.5005 51.9974C29.4678 51.9586 30.1668 51.6591 30.8427 51.3696C31.6014 51.0444 32.3862 50.7081 33.6171 50.7081C34.7881 50.7081 35.5354 51.0334 36.2581 51.348C36.9703 51.6579 37.7039 51.9785 38.788 51.9581C41.107 51.9146 42.5309 49.8228 43.7872 47.9774C45.098 46.0506 45.7556 44.1798 45.9775 43.4649L45.9865 43.4364C46.0287 43.3094 45.9691 43.1707 45.848 43.1148C45.8446 43.1132 45.8323 43.108 45.8289 43.1066C45.4205 42.9386 41.8382 41.3402 41.8005 36.9835C41.7656 33.444 44.4879 31.5697 45.0339 31.2299L45.0593 31.214C45.1185 31.1757 45.1597 31.115 45.1737 31.0455C45.1877 30.9762 45.173 30.904 45.1334 30.8456C43.2543 28.0798 40.3742 27.6629 39.2147 27.6128C39.0465 27.5959 38.8728 27.5874 38.6984 27.5874C37.3365 27.5874 36.0318 28.1048 34.9837 28.5204C34.2602 28.8074 33.6352 29.0552 33.2042 29.0552C32.7199 29.0552 32.0914 28.8043 31.3636 28.5139C30.3904 28.1254 29.2873 27.6852 28.1195 27.6852C28.0916 27.6852 28.0642 27.6855 28.0372 27.686C25.3219 27.7262 22.7562 29.2886 21.3418 31.763Z" fill="white"/>
<path d="M39.2171 20.0002C37.5728 20.0676 35.6004 21.0856 34.4214 22.4745C33.4195 23.6419 32.4407 25.5883 32.6986 27.5503C32.7148 27.6731 32.8141 27.7678 32.9368 27.7774C33.0478 27.7861 33.1611 27.7905 33.274 27.7906C34.8818 27.7906 36.6162 26.8959 37.8006 25.4554C39.0473 23.9343 39.6776 21.9822 39.487 20.2336C39.4719 20.0966 39.3521 19.9949 39.2171 20.0002Z" fill="white"/>
<path d="M71.68 16.8H76.4C77.584 16.8 78.6347 17.0347 79.552 17.504C80.4693 17.9733 81.1787 18.6347 81.68 19.488C82.192 20.3307 82.448 21.3013 82.448 22.4C82.448 23.4987 82.192 24.4747 81.68 25.328C81.1787 26.1707 80.4693 26.8267 79.552 27.296C78.6347 27.7653 77.584 28 76.4 28H71.68V16.8ZM76.304 26.608C77.2107 26.608 78.0053 26.432 78.688 26.08C79.3813 25.728 79.9147 25.2373 80.288 24.608C80.6613 23.968 80.848 23.232 80.848 22.4C80.848 21.568 80.6613 20.8373 80.288 20.208C79.9147 19.568 79.3813 19.072 78.688 18.72C78.0053 18.368 77.2107 18.192 76.304 18.192H73.28V26.608H76.304ZM89.6548 28.128C88.5241 28.128 87.5054 27.8827 86.5987 27.392C85.6921 26.8907 84.9774 26.2027 84.4547 25.328C83.9427 24.4533 83.6867 23.4773 83.6867 22.4C83.6867 21.3227 83.9427 20.3467 84.4547 19.472C84.9774 18.5973 85.6921 17.9147 86.5987 17.424C87.5054 16.9227 88.5241 16.672 89.6548 16.672C90.7748 16.672 91.7881 16.9227 92.6947 17.424C93.6014 17.9147 94.3108 18.5973 94.8228 19.472C95.3348 20.336 95.5908 21.312 95.5908 22.4C95.5908 23.488 95.3348 24.4693 94.8228 25.344C94.3108 26.208 93.6014 26.8907 92.6947 27.392C91.7881 27.8827 90.7748 28.128 89.6548 28.128ZM89.6548 26.704C90.4761 26.704 91.2121 26.5173 91.8628 26.144C92.5241 25.7707 93.0414 25.2587 93.4148 24.608C93.7988 23.9467 93.9908 23.2107 93.9908 22.4C93.9908 21.5893 93.7988 20.8587 93.4148 20.208C93.0414 19.5467 92.5241 19.0293 91.8628 18.656C91.2121 18.2827 90.4761 18.096 89.6548 18.096C88.8334 18.096 88.0868 18.2827 87.4148 18.656C86.7534 19.0293 86.2308 19.5467 85.8468 20.208C85.4734 20.8587 85.2867 21.5893 85.2867 22.4C85.2867 23.2107 85.4734 23.9467 85.8468 24.608C86.2308 25.2587 86.7534 25.7707 87.4148 26.144C88.0868 26.5173 88.8334 26.704 89.6548 26.704ZM113.201 16.8L109.457 28H107.777L104.721 19.056L101.665 28H99.9529L96.2089 16.8H97.8569L100.881 25.904L104.033 16.8H105.505L108.593 25.952L111.681 16.8H113.201ZM124.49 16.8V28H123.178L116.458 19.648V28H114.858V16.8H116.17L122.89 25.152V16.8H124.49ZM127.542 16.8H129.142V26.608H135.207V28H127.542V16.8ZM141.595 28.128C140.465 28.128 139.446 27.8827 138.539 27.392C137.633 26.8907 136.918 26.2027 136.395 25.328C135.883 24.4533 135.627 23.4773 135.627 22.4C135.627 21.3227 135.883 20.3467 136.395 19.472C136.918 18.5973 137.633 17.9147 138.539 17.424C139.446 16.9227 140.465 16.672 141.595 16.672C142.715 16.672 143.729 16.9227 144.635 17.424C145.542 17.9147 146.251 18.5973 146.763 19.472C147.275 20.336 147.531 21.312 147.531 22.4C147.531 23.488 147.275 24.4693 146.763 25.344C146.251 26.208 145.542 26.8907 144.635 27.392C143.729 27.8827 142.715 28.128 141.595 28.128ZM141.595 26.704C142.417 26.704 143.153 26.5173 143.803 26.144C144.465 25.7707 144.982 25.2587 145.355 24.608C145.739 23.9467 145.931 23.2107 145.931 22.4C145.931 21.5893 145.739 20.8587 145.355 20.208C144.982 19.5467 144.465 19.0293 143.803 18.656C143.153 18.2827 142.417 18.096 141.595 18.096C140.774 18.096 140.027 18.2827 139.355 18.656C138.694 19.0293 138.171 19.5467 137.787 20.208C137.414 20.8587 137.227 21.5893 137.227 22.4C137.227 23.2107 137.414 23.9467 137.787 24.608C138.171 25.2587 138.694 25.7707 139.355 26.144C140.027 26.5173 140.774 26.704 141.595 26.704ZM156.657 25.2H150.705L149.473 28H147.825L152.897 16.8H154.481L159.569 28H157.889L156.657 25.2ZM156.097 23.92L153.681 18.432L151.265 23.92H156.097ZM160.939 16.8H165.659C166.843 16.8 167.894 17.0347 168.811 17.504C169.729 17.9733 170.438 18.6347 170.939 19.488C171.451 20.3307 171.707 21.3013 171.707 22.4C171.707 23.4987 171.451 24.4747 170.939 25.328C170.438 26.1707 169.729 26.8267 168.811 27.296C167.894 27.7653 166.843 28 165.659 28H160.939V16.8ZM165.563 26.608C166.47 26.608 167.265 26.432 167.947 26.08C168.641 25.728 169.174 25.2373 169.547 24.608C169.921 23.968 170.107 23.232 170.107 22.4C170.107 21.568 169.921 20.8373 169.547 20.208C169.174 19.568 168.641 19.072 167.947 18.72C167.265 18.368 166.47 18.192 165.563 18.192H162.539V26.608H165.563ZM179.455 18.192V22.096H185.071V23.472H179.455V28H177.855V16.8H185.759V18.192H179.455ZM195.199 28L192.783 24.56C192.485 24.5813 192.25 24.592 192.079 24.592H189.311V28H187.711V16.8H192.079C193.53 16.8 194.671 17.1467 195.503 17.84C196.335 18.5333 196.751 19.488 196.751 20.704C196.751 21.568 196.538 22.304 196.111 22.912C195.685 23.52 195.077 23.9627 194.287 24.24L196.943 28H195.199ZM192.031 23.232C193.045 23.232 193.818 23.0133 194.351 22.576C194.885 22.1387 195.151 21.5147 195.151 20.704C195.151 19.8933 194.885 19.2747 194.351 18.848C193.818 18.4107 193.045 18.192 192.031 18.192H189.311V23.232H192.031ZM204.092 28.128C202.962 28.128 201.943 27.8827 201.036 27.392C200.13 26.8907 199.415 26.2027 198.892 25.328C198.38 24.4533 198.124 23.4773 198.124 22.4C198.124 21.3227 198.38 20.3467 198.892 19.472C199.415 18.5973 200.13 17.9147 201.036 17.424C201.943 16.9227 202.962 16.672 204.092 16.672C205.212 16.672 206.226 16.9227 207.132 17.424C208.039 17.9147 208.748 18.5973 209.26 19.472C209.772 20.336 210.028 21.312 210.028 22.4C210.028 23.488 209.772 24.4693 209.26 25.344C208.748 26.208 208.039 26.8907 207.132 27.392C206.226 27.8827 205.212 28.128 204.092 28.128ZM204.092 26.704C204.914 26.704 205.65 26.5173 206.3 26.144C206.962 25.7707 207.479 25.2587 207.852 24.608C208.236 23.9467 208.428 23.2107 208.428 22.4C208.428 21.5893 208.236 20.8587 207.852 20.208C207.479 19.5467 206.962 19.0293 206.3 18.656C205.65 18.2827 204.914 18.096 204.092 18.096C203.271 18.096 202.524 18.2827 201.852 18.656C201.191 19.0293 200.668 19.5467 200.284 20.208C199.911 20.8587 199.724 21.5893 199.724 22.4C199.724 23.2107 199.911 23.9467 200.284 24.608C200.668 25.2587 201.191 25.7707 201.852 26.144C202.524 26.5173 203.271 26.704 204.092 26.704ZM222.558 28L222.542 19.84L218.494 26.64H217.758L213.71 19.888V28H212.174V16.8H213.486L218.158 24.672L222.766 16.8H224.078L224.094 28H222.558Z" fill="white"/>
<path d="M78.768 53.408H73.168L72.064 56H69.92L74.96 44.8H77.008L82.064 56H79.888L78.768 53.408ZM78.08 51.776L75.968 46.88L73.872 51.776H78.08ZM87.7964 44.8C88.767 44.8 89.6097 44.96 90.3244 45.28C91.0497 45.6 91.6044 46.0587 91.9884 46.656C92.3724 47.2533 92.5644 47.9627 92.5644 48.784C92.5644 49.5947 92.3724 50.304 91.9884 50.912C91.6044 51.5093 91.0497 51.968 90.3244 52.288C89.6097 52.608 88.767 52.768 87.7964 52.768H85.2684V56H83.1884V44.8H87.7964ZM87.7004 51.008C88.607 51.008 89.295 50.816 89.7644 50.432C90.2337 50.048 90.4684 49.4987 90.4684 48.784C90.4684 48.0693 90.2337 47.52 89.7644 47.136C89.295 46.752 88.607 46.56 87.7004 46.56H85.2684V51.008H87.7004ZM98.9495 44.8C99.9202 44.8 100.763 44.96 101.477 45.28C102.203 45.6 102.758 46.0587 103.142 46.656C103.525 47.2533 103.717 47.9627 103.717 48.784C103.717 49.5947 103.525 50.304 103.142 50.912C102.758 51.5093 102.203 51.968 101.477 52.288C100.763 52.608 99.9202 52.768 98.9495 52.768H96.4215V56H94.3415V44.8H98.9495ZM98.8535 51.008C99.7602 51.008 100.448 50.816 100.917 50.432C101.387 50.048 101.622 49.4987 101.622 48.784C101.622 48.0693 101.387 47.52 100.917 47.136C100.448 46.752 99.7602 46.56 98.8535 46.56H96.4215V51.008H98.8535ZM105.495 44.8H107.575V54.24H113.431V56H105.495V44.8ZM123.173 54.256V56H114.773V44.8H122.949V46.544H116.853V49.456H122.261V51.168H116.853V54.256H123.173ZM136.577 53.408H130.977L129.873 56H127.729L132.769 44.8H134.817L139.873 56H137.697L136.577 53.408ZM135.889 51.776L133.777 46.88L131.681 51.776H135.889ZM145.606 44.8C146.576 44.8 147.419 44.96 148.134 45.28C148.859 45.6 149.414 46.0587 149.798 46.656C150.182 47.2533 150.374 47.9627 150.374 48.784C150.374 49.5947 150.182 50.304 149.798 50.912C149.414 51.5093 148.859 51.968 148.134 52.288C147.419 52.608 146.576 52.768 145.606 52.768H143.078V56H140.998V44.8H145.606ZM145.51 51.008C146.416 51.008 147.104 50.816 147.574 50.432C148.043 50.048 148.278 49.4987 148.278 48.784C148.278 48.0693 148.043 47.52 147.574 47.136C147.104 46.752 146.416 46.56 145.51 46.56H143.078V51.008H145.51ZM156.759 44.8C157.73 44.8 158.572 44.96 159.287 45.28C160.012 45.6 160.567 46.0587 160.951 46.656C161.335 47.2533 161.527 47.9627 161.527 48.784C161.527 49.5947 161.335 50.304 160.951 50.912C160.567 51.5093 160.012 51.968 159.287 52.288C158.572 52.608 157.73 52.768 156.759 52.768H154.231V56H152.151V44.8H156.759ZM156.663 51.008C157.57 51.008 158.258 50.816 158.727 50.432C159.196 50.048 159.431 49.4987 159.431 48.784C159.431 48.0693 159.196 47.52 158.727 47.136C158.258 46.752 157.57 46.56 156.663 46.56H154.231V51.008H156.663ZM171.054 56.16C170.19 56.16 169.353 56.0373 168.542 55.792C167.742 55.5467 167.107 55.2213 166.638 54.816L167.358 53.2C167.817 53.5627 168.377 53.8613 169.038 54.096C169.71 54.32 170.382 54.432 171.054 54.432C171.886 54.432 172.505 54.2987 172.91 54.032C173.326 53.7653 173.534 53.4133 173.534 52.976C173.534 52.656 173.417 52.3947 173.182 52.192C172.958 51.9787 172.67 51.8133 172.318 51.696C171.966 51.5787 171.486 51.4453 170.878 51.296C170.025 51.0933 169.331 50.8907 168.798 50.688C168.275 50.4853 167.822 50.1707 167.438 49.744C167.065 49.3067 166.878 48.72 166.878 47.984C166.878 47.3653 167.043 46.8053 167.374 46.304C167.715 45.792 168.222 45.3867 168.894 45.088C169.577 44.7893 170.409 44.64 171.39 44.64C172.073 44.64 172.745 44.7253 173.406 44.896C174.067 45.0667 174.638 45.312 175.118 45.632L174.462 47.248C173.971 46.96 173.459 46.7413 172.926 46.592C172.393 46.4427 171.875 46.368 171.374 46.368C170.553 46.368 169.939 46.5067 169.534 46.784C169.139 47.0613 168.942 47.4293 168.942 47.888C168.942 48.208 169.054 48.4693 169.278 48.672C169.513 48.8747 169.806 49.0347 170.158 49.152C170.51 49.2693 170.99 49.4027 171.598 49.552C172.43 49.744 173.113 49.9467 173.646 50.16C174.179 50.3627 174.633 50.6773 175.006 51.104C175.39 51.5307 175.582 52.1067 175.582 52.832C175.582 53.4507 175.411 54.0107 175.07 54.512C174.739 55.0133 174.233 55.4133 173.55 55.712C172.867 56.0107 172.035 56.16 171.054 56.16ZM179.46 46.56H175.748V44.8H185.252V46.56H181.54V56H179.46V46.56ZM191.589 56.16C190.448 56.16 189.418 55.9147 188.501 55.424C187.584 54.9227 186.864 54.2347 186.341 53.36C185.818 52.4747 185.557 51.488 185.557 50.4C185.557 49.312 185.818 48.3307 186.341 47.456C186.864 46.5707 187.584 45.8827 188.501 45.392C189.418 44.8907 190.448 44.64 191.589 44.64C192.73 44.64 193.76 44.8907 194.677 45.392C195.594 45.8827 196.314 46.5653 196.837 47.44C197.36 48.3147 197.621 49.3013 197.621 50.4C197.621 51.4987 197.36 52.4853 196.837 53.36C196.314 54.2347 195.594 54.9227 194.677 55.424C193.76 55.9147 192.73 56.16 191.589 56.16ZM191.589 54.336C192.336 54.336 193.008 54.1707 193.605 53.84C194.202 53.4987 194.672 53.0293 195.013 52.432C195.354 51.824 195.525 51.1467 195.525 50.4C195.525 49.6533 195.354 48.9813 195.013 48.384C194.672 47.776 194.202 47.3067 193.605 46.976C193.008 46.6347 192.336 46.464 191.589 46.464C190.842 46.464 190.17 46.6347 189.573 46.976C188.976 47.3067 188.506 47.776 188.165 48.384C187.824 48.9813 187.653 49.6533 187.653 50.4C187.653 51.1467 187.824 51.824 188.165 52.432C188.506 53.0293 188.976 53.4987 189.573 53.84C190.17 54.1707 190.842 54.336 191.589 54.336ZM206.854 56L204.566 52.72C204.47 52.7307 204.326 52.736 204.134 52.736H201.606V56H199.526V44.8H204.134C205.105 44.8 205.947 44.96 206.662 45.28C207.387 45.6 207.942 46.0587 208.326 46.656C208.71 47.2533 208.902 47.9627 208.902 48.784C208.902 49.6267 208.694 50.352 208.278 50.96C207.873 51.568 207.286 52.0213 206.518 52.32L209.094 56H206.854ZM206.806 48.784C206.806 48.0693 206.571 47.52 206.102 47.136C205.633 46.752 204.945 46.56 204.038 46.56H201.606V51.024H204.038C204.945 51.024 205.633 50.832 206.102 50.448C206.571 50.0533 206.806 49.4987 206.806 48.784ZM219.329 54.256V56H210.929V44.8H219.105V46.544H213.009V49.456H218.417V51.168H213.009V54.256H219.329Z" fill="white"/>
</svg>
