<svg width="1038" height="383" viewBox="0 0 1038 383" fill="none" xmlns="http://www.w3.org/2000/svg">
<path d="M251.452 346.297L240.719 351.984L253.044 375.556L270 366.571L260.925 349.216L251.452 346.297Z" fill="#D7E8F4"/>
<path d="M268.259 373.722L251.003 382.866C250.863 382.94 250.691 382.887 250.618 382.749L238.131 358.867C238.059 358.728 238.114 358.556 238.254 358.481L249.155 352.705C249.295 352.631 249.468 352.683 249.541 352.822C249.613 352.961 249.558 353.134 249.418 353.208L238.73 358.871L250.954 382.25L267.742 373.354L258.68 356.021C258.607 355.882 258.662 355.709 258.802 355.635C258.942 355.561 259.115 355.613 259.187 355.752L268.381 373.336C268.454 373.475 268.399 373.648 268.259 373.722Z" fill="#3685D3"/>
<path d="M259.523 374.718L251.92 378.747C251.79 378.816 251.637 378.781 251.578 378.669C251.519 378.556 251.577 378.409 251.707 378.341L259.311 374.312C259.441 374.243 259.594 374.278 259.652 374.39C259.711 374.502 259.653 374.649 259.523 374.718Z" fill="#6BADEE"/>
<path d="M259.341 366.511L248.532 372.238C248.395 372.311 248.237 372.278 248.178 372.166C248.12 372.054 248.183 371.904 248.319 371.832L259.128 366.104C259.265 366.032 259.423 366.064 259.482 366.176C259.541 366.289 259.478 366.438 259.341 366.511Z" fill="#6BADEE"/>
<path d="M256.017 364.12L246.841 368.982C246.7 369.057 246.537 369.027 246.478 368.915C246.42 368.802 246.487 368.65 246.629 368.575L255.804 363.714C255.946 363.638 256.109 363.668 256.167 363.781C256.226 363.893 256.159 364.045 256.017 364.12Z" fill="#6BADEE"/>
<path d="M256.366 360.821L245.557 366.548C245.42 366.621 245.262 366.589 245.203 366.476C245.145 366.364 245.208 366.214 245.345 366.142L256.154 360.415C256.29 360.342 256.449 360.375 256.507 360.487C256.566 360.599 256.503 360.749 256.366 360.821Z" fill="#6BADEE"/>
<path d="M249.002 360.571L243.869 363.291C243.726 363.367 243.562 363.337 243.503 363.225C243.445 363.113 243.514 362.96 243.657 362.884L248.789 360.165C248.933 360.089 249.097 360.118 249.155 360.23C249.214 360.342 249.145 360.495 249.002 360.571Z" fill="#6BADEE"/>
<path fill-rule="evenodd" clip-rule="evenodd" d="M252.942 359.002L258.918 355.836C259.018 355.786 259.077 355.68 259.067 355.568C259.058 355.457 258.981 355.362 258.874 355.331L249.753 352.482C249.647 352.447 249.531 352.481 249.46 352.567C249.389 352.653 249.378 352.775 249.433 352.873L252.578 358.888C252.647 359.021 252.811 359.072 252.942 359.002ZM258.104 355.654L252.939 358.39L250.217 353.206L258.104 355.654Z" fill="#6BADEE"/>
<path d="M343.854 33.1254C338.228 36.0604 331.357 35.0868 326.771 30.7045C322.184 26.3222 320.9 19.5048 323.578 13.7523C326.255 7.99985 332.3 4.59036 338.608 5.27429C338.742 5.27374 338.864 5.35019 338.922 5.47076C338.98 5.59133 338.964 5.73454 338.88 5.83879C338.796 5.94304 338.66 5.98975 338.529 5.95885C332.086 5.25332 325.989 9.02518 323.743 15.1053C321.498 21.1855 323.682 28.0115 329.039 31.6581C334.397 35.3046 341.551 34.8345 346.387 30.5182C351.224 26.2019 352.5 19.1485 349.482 13.4141C349.393 13.2446 349.458 13.0347 349.628 12.9455C349.797 12.8562 350.007 12.9213 350.097 13.0908C351.93 16.5735 352.302 20.6426 351.131 24.4009C349.96 28.1592 347.342 31.2981 343.854 33.1254Z" fill="#151B59"/>
<path d="M338.865 27.0752L342.338 17.1901L332.223 14.4574L338.865 27.0752Z" fill="#00CCCC"/>
<circle cx="985.475" cy="348.475" r="14" transform="rotate(-19.2466 985.475 348.475)" stroke="#D7E8F4" stroke-width="12"/>
<path d="M982.017 362.043L979.051 361.283L976.695 363.239L976.002 363.814L972.257 353.09C969.709 345.79 973.56 337.806 980.86 335.257C988.16 332.709 996.144 336.56 998.692 343.86C1001.24 351.16 997.39 359.144 990.09 361.692C987.379 362.639 984.592 362.703 982.017 362.043Z" stroke="#D7E8F4" stroke-width="12"/>
<path d="M36.6721 135.125C34.8309 135.125 33.3382 136.524 33.3382 138.25C33.3389 138.578 33.3952 138.903 33.5049 139.214L30.8011 140.825C29.0209 141.888 26.6739 141.536 25.337 140.005L22.6866 136.966C23.1083 136.433 23.3363 135.788 23.3367 135.125C23.3367 133.399 21.844 132 20.0028 132C18.1616 132 16.6689 133.399 16.6689 135.125C16.6693 135.788 16.8973 136.433 17.319 136.966L14.6687 140.005C13.332 141.535 10.986 141.887 9.20621 140.825L6.50096 139.214C6.61074 138.903 6.667 138.578 6.66763 138.25C6.66794 136.524 5.17561 135.125 3.33432 135.124C1.49319 135.124 0.000312602 136.523 5.54634e-08 138.249C-0.000312491 139.869 1.32035 141.221 3.04209 141.362L5.01238 152.441C5.07919 152.817 5.42674 153.094 5.83414 153.094H34.1717C34.5791 153.094 34.9267 152.817 34.9935 152.441L36.9637 141.362C38.7976 141.208 40.1509 139.69 39.9865 137.971C39.8325 136.362 38.3955 135.128 36.6721 135.125Z" fill="#FFC107"/>
<path d="M20.002 156.219C27.8272 156.219 34.1707 154.47 34.1707 152.313C34.1707 150.155 27.8272 148.406 20.002 148.406C12.1768 148.406 5.83325 150.155 5.83325 152.313C5.83325 154.47 12.1768 156.219 20.002 156.219Z" fill="#FFA000"/>
<path d="M20.0022 157C12.5461 157 5 155.391 5 152.312C5 149.234 12.5461 147.625 20.0022 147.625C27.4583 147.625 35.0044 149.234 35.0044 152.312C35.0044 155.391 27.4583 157 20.0022 157ZM20.0022 149.187C11.2476 149.187 6.66689 151.219 6.66689 152.312C6.66689 153.406 11.2476 155.437 20.0022 155.437C28.7569 155.437 33.3375 153.406 33.3375 152.312C33.3375 151.219 28.7569 149.187 20.0022 149.187Z" fill="#FFD54F"/>
<path d="M1038 128.356V133.067C1038 134.667 1033.88 136 1028.81 136C1023.74 136 1019.7 134.711 1019.7 133.111V132.578L1019.61 128.845H1019.65C1020.34 130.223 1024.12 131.289 1028.68 131.289C1033.23 131.289 1037.91 129.956 1037.91 128.356H1038V128.356Z" fill="#E2A63B"/>
<path d="M1028.55 110.845V115.512H1028.46C1028.46 117.156 1024.21 118.445 1019.18 118.445C1017.25 118.489 1015.27 118.267 1013.38 117.778L1013.3 117.867C1012.35 117.067 1011.28 116.445 1010.12 116.045V115.956L1009.99 111.023C1010.29 112.534 1014.28 113.734 1019.14 113.734C1023.99 113.734 1028.46 112.445 1028.46 110.845H1028.55Z" fill="#F4B844"/>
<path d="M1028.55 110.934C1028.55 112.534 1024.29 113.823 1019.22 113.823C1014.15 113.823 1010.33 112.623 1010.03 111.112C1010.03 111.068 1009.99 110.979 1009.99 110.934C1009.99 109.334 1014.11 108.001 1019.22 108.001C1024.34 107.957 1028.55 109.29 1028.55 110.934Z" fill="#FEDB41"/>
<path d="M1019.65 128.845L1019.61 127.867L1019.53 123.867C1019.83 125.378 1023.82 126.578 1028.68 126.578C1033.53 126.578 1037.83 125.289 1037.96 123.734H1038V128.356H1037.91C1037.91 129.956 1033.75 131.289 1028.68 131.289C1023.61 131.289 1020.34 130.222 1019.65 128.845Z" fill="#F4B844"/>
<path d="M1013.51 131.822C1014.67 130.711 1015.57 129.289 1016.05 127.733H1016.26C1017.21 127.822 1018.15 127.867 1019.18 127.867H1019.61V128.845L1019.7 132.578H1019.22C1017.33 132.622 1015.49 132.4 1013.64 131.956L1013.51 131.822Z" fill="#E2A63B"/>
<path d="M1019.65 123.512V123.734L1019.74 127.867H1019.31C1018.24 127.867 1017.25 127.823 1016.3 127.734H1016.09C1016.39 126.8 1016.52 125.823 1016.52 124.845C1016.52 124.178 1016.43 123.556 1016.3 122.934H1016.52C1017.42 123.023 1018.32 123.067 1019.31 123.067L1019.7 123.289C1019.65 123.378 1019.65 123.467 1019.65 123.512Z" fill="#F4B844"/>
<path d="M1013.38 117.778C1015.27 118.267 1017.25 118.489 1019.18 118.445C1024.21 118.445 1028.46 117.156 1028.46 115.512H1028.55V120.756C1023.86 120.756 1020.04 121.912 1019.57 123.378L1019.18 123.156C1018.24 123.156 1017.33 123.112 1016.47 123.023H1016.26C1015.87 120.978 1014.84 119.156 1013.3 117.823L1013.38 117.778Z" fill="#E2A63B"/>
<path d="M1016.35 123.022C1015.92 120.978 1014.84 119.112 1013.3 117.734C1012.35 116.845 1011.23 116.223 1010.03 115.867C1009.17 115.556 1008.23 115.423 1007.32 115.423C1002.21 115.378 998.043 119.6 998 124.889C997.957 130.178 1002.04 134.488 1007.15 134.533C1009.51 134.533 1011.75 133.644 1013.51 132C1014.71 130.844 1015.62 129.378 1016.09 127.778C1016.39 126.844 1016.52 125.911 1016.52 124.933C1016.52 124.311 1016.35 123.645 1016.35 123.022Z" fill="#FEDB41"/>
<path d="M1037.96 123.645V123.734C1037.83 125.289 1033.66 126.578 1028.68 126.578C1023.69 126.578 1019.83 125.378 1019.53 123.867V123.645C1019.53 123.556 1019.53 123.467 1019.57 123.378C1020.04 121.911 1023.86 120.756 1028.55 120.756H1028.68C1033.75 120.756 1037.96 122.045 1037.96 123.645Z" fill="#FEDB41"/>
<path d="M716.98 29.2563C716.819 26.8618 715.721 24.6276 713.926 23.0386C712.131 21.4496 709.783 20.6342 707.392 20.7694C707.392 20.6113 707.392 20.4559 707.371 20.2952C707.215 18.0532 706.382 15.9118 704.981 14.1561C703.581 12.4005 701.68 11.1138 699.531 10.4674C697.383 9.82104 695.089 9.84558 692.955 10.5378C690.821 11.23 688.948 12.557 687.585 14.3422C686.151 12.9084 684.323 11.9351 682.334 11.5465C680.345 11.1579 678.286 11.3716 676.419 12.1603C674.552 12.949 672.961 14.277 671.851 15.9749C670.74 17.6729 670.159 19.6638 670.182 21.6939C669.951 21.6939 669.719 21.6939 669.485 21.7123C667.396 21.8532 665.42 22.7119 663.889 24.1433C662.359 25.5748 661.368 27.4915 661.084 29.5699C660.8 31.6483 661.241 33.7612 662.331 35.5521C663.421 37.3429 665.095 38.7021 667.069 39.4001C666.541 41.5545 666.663 43.8175 667.419 45.9026C668.175 47.9877 669.531 49.8014 671.316 51.114C673.1 52.4267 675.234 53.1794 677.446 53.2769C679.658 53.3744 681.849 52.8123 683.742 51.6617C684.252 51.9488 684.586 52.1754 684.586 52.1754C685.63 52.772 686.785 53.148 687.979 53.2801C689.174 53.4122 690.383 53.2977 691.532 52.9435C692.68 52.5893 693.744 52.003 694.658 51.2208C695.572 50.4386 696.316 49.477 696.845 48.3955C698.392 49.2284 700.134 49.6307 701.889 49.5605C703.644 49.4903 705.348 48.9502 706.824 47.9964C708.3 47.0426 709.494 45.7099 710.282 44.137C711.07 42.564 711.423 40.8083 711.304 39.0524C711.288 38.8154 711.262 38.5836 711.23 38.3518C713.028 37.6436 714.554 36.3805 715.588 34.7453C716.622 33.11 717.109 31.1876 716.98 29.2563Z" fill="#D7E8F4"/>
<path d="M681 33.5862L680.842 36.0269L678.891 35.9005L678.723 38.5333L675.646 38.3359L675.814 35.703L669.8 35.316L669.95 32.9754L677.137 24L679.653 24.1606L679.049 33.4598L681 33.5862ZM672.833 33.0596L675.984 33.2624L676.273 28.7444L672.833 33.0596Z" fill="#3685D3"/>
<path d="M701.707 26.0543C702.306 26.573 702.696 27.2943 702.806 28.0831C702.949 28.8376 702.838 29.6189 702.491 30.3025C702.11 31.0098 701.542 31.5958 700.85 31.995C699.178 32.9406 697.234 33.2745 695.347 32.9405C694.564 32.7911 693.838 32.4243 693.25 31.8811C692.699 31.3518 692.339 30.6517 692.228 29.892C692.074 29.1059 692.21 28.2902 692.61 27.5984C693.045 26.8812 693.697 26.3241 694.468 26.0093C693.721 25.914 693.017 25.6011 692.443 25.1088C691.911 24.6371 691.562 23.9907 691.457 23.2839C691.322 22.5632 691.429 21.8173 691.761 21.1651C692.119 20.488 692.656 19.9249 693.313 19.5389C694.854 18.6423 696.662 18.3314 698.41 18.6622C699.157 18.8071 699.848 19.1593 700.407 19.6793C700.931 20.1818 701.274 20.8462 701.382 21.5677C701.517 22.2833 701.398 23.0238 701.047 23.66C700.677 24.315 700.112 24.8351 699.433 25.1459C700.266 25.1996 701.062 25.5174 701.707 26.0543ZM699.519 29.8152C699.711 29.6259 699.853 29.39 699.929 29.1299C700.006 28.8698 700.015 28.5942 699.957 28.3294C699.917 28.0628 699.815 27.8096 699.658 27.5912C699.502 27.3728 699.296 27.1954 699.058 27.074C698.458 26.7772 697.793 26.6413 697.126 26.6794C696.485 26.8659 695.902 27.2162 695.433 27.6964C695.248 27.8905 695.111 28.1268 695.035 28.3854C694.959 28.644 694.945 28.9172 694.995 29.1822C695.027 29.4516 695.126 29.7084 695.283 29.9282C695.44 30.1479 695.651 30.3233 695.894 30.4376C696.501 30.6507 697.152 30.7054 697.786 30.5966C698.419 30.4878 699.016 30.219 699.519 29.8152ZM694.71 21.7372C694.544 21.9269 694.426 22.1537 694.365 22.3988C694.304 22.6438 694.302 22.9001 694.358 23.1462C694.39 23.3967 694.478 23.6367 694.614 23.8485C694.75 24.0603 694.931 24.2385 695.145 24.3698C695.651 24.6559 696.223 24.8038 696.804 24.7989C697.352 24.6094 697.843 24.279 698.227 23.8401C698.387 23.6452 698.501 23.4163 698.562 23.1705C698.622 22.9248 698.627 22.6684 698.575 22.4205C698.549 22.1698 698.464 21.929 698.327 21.7181C698.191 21.5072 698.006 21.3321 697.789 21.2075C697.278 20.9921 696.718 20.9275 696.172 21.0213C695.627 21.115 695.119 21.3633 694.707 21.7372H694.71Z" fill="#3685D3"/>
<path d="M693.985 42.6704L694.6 44.909L685.923 47.3333L685.357 45.2751L688.323 39.5883C688.937 38.3894 689.135 37.3957 688.918 36.607C688.875 36.3928 688.786 36.1907 688.656 36.0151C688.527 35.8395 688.362 35.6948 688.171 35.5912C687.731 35.4126 687.242 35.4023 686.796 35.562C685.719 35.8626 684.715 36.5867 683.782 37.7343L682.333 35.9758C682.776 35.3391 683.34 34.798 683.992 34.3843C684.702 33.9113 685.481 33.5533 686.301 33.3234C687.614 32.9556 688.746 32.983 689.696 33.4056C690.159 33.6071 690.569 33.9149 690.893 34.3045C691.217 34.6941 691.446 35.1547 691.563 35.6495C691.764 36.3564 691.802 37.1005 691.673 37.8245C691.482 38.703 691.164 39.5484 690.729 40.3336L688.699 44.1398L693.985 42.6704Z" fill="#3685D3"/>
</svg>
