<svg width="250" height="225" viewBox="0 0 250 225" fill="none" xmlns="http://www.w3.org/2000/svg">
<path d="M114.694 197.313C107.373 197.334 100.05 197.512 92.7425 198.331C89.9872 198.64 87.289 199.32 84.5259 199.592C79.0101 200.139 73.5904 201.162 68.0538 201.63C63.5949 202.01 59.1179 202.232 54.672 202.714C50.3687 203.18 46.0221 203.046 41.755 202.316C38.6933 201.764 35.6186 201.453 32.6062 200.568C29.2302 199.577 25.5816 198.867 22.0706 198.894C17.0664 198.93 12.2024 198.936 7.40595 200.686C5.72576 201.301 3.66642 202.311 2.39135 203.601C-0.519771 206.552 -0.917095 213.917 1.99922 216.979C6.91254 222.138 17.3988 224.153 24.2883 224.25C31.8349 224.355 39.1685 223.789 46.7255 223.465C53.7371 223.156 60.7487 222.717 67.7889 222.732C82.1575 222.764 96.5261 222.732 110.869 221.764C124.344 220.856 137.853 221.168 151.357 221.168C165.206 221.168 178.959 221.278 192.707 223.133C198.698 223.941 204.801 224.224 210.821 224.789C216.212 225.297 221.393 224.789 226.763 224.31C231.299 223.931 235.732 222.734 239.849 220.778C243.092 219.208 248.873 214.365 249.867 210.639C252.657 200.191 210.576 200.435 204.115 200.466C196.888 200.492 189.604 200.728 182.382 200.466C179.344 200.348 176.352 199.752 173.386 199.095C170.421 198.438 167.458 198.608 164.463 198.334C151.975 197.19 139.458 197.358 126.928 197.358C122.853 197.337 118.774 197.3 114.694 197.313Z" fill="#EEEEEE"/>
<path d="M101.299 75.7492C102.4 75.3201 103.517 74.8831 104.467 74.1793C105.207 73.5915 105.875 72.9169 106.457 72.1698C110.206 67.6457 113.234 62.5612 115.432 57.0989C113.311 55.3248 110.862 53.9909 108.228 53.1742C105.459 57.1237 102.382 60.8448 99.027 64.3021C98.3683 65.0364 97.6145 65.6779 96.7859 66.2095C95.5653 66.9264 94.1344 67.1697 92.7399 67.4L76.5119 70.0793C73.2476 70.6183 69.8717 71.2017 67.1294 73.0647C59.5257 78.2296 64.8623 88.6066 73.2191 86.7646C82.6042 84.6975 92.314 79.2448 101.299 75.7492Z" fill="#6BADEE"/>
<path d="M148.801 125.59L82.3675 97.0211C79.1344 95.5873 79.5291 88.944 81.5158 87.3401L158.976 6.49091C159.474 5.92575 160.124 5.70597 160.724 5.92575L221.873 22.3049C224.729 24.1862 225.197 30.9655 224.051 32.4202L151.167 125.044C150.637 125.726 149.448 125.852 148.801 125.59Z" fill="#D2D6D5"/>
<path d="M148.542 119.274L82.191 91.9922C80.7004 91.38 80.3472 88.7792 81.5703 87.3872L157.872 0.632622C158.363 0.0753122 159.005 -0.13139 159.602 0.0831617L221.875 22.3075C223.27 22.8047 223.62 25.361 222.493 26.7974L150.437 118.636C149.913 119.295 149.183 119.544 148.542 119.274Z" fill="#E6E6E6"/>
<g opacity="0.13">
<path opacity="0.13" d="M123.352 99.6873C123.009 101.344 121.015 102.191 118.896 101.584C116.777 100.977 115.328 99.1353 115.67 97.4738C116.013 95.8123 118.008 94.962 120.14 95.5769C122.272 96.1917 123.687 98.0364 123.352 99.6873Z" fill="#333333"/>
</g>
<path d="M216.245 40.7879L213.093 44.9742C212.755 45.4216 212.228 45.44 211.914 45.0135C211.764 44.7777 211.687 44.502 211.695 44.2221C211.702 43.9422 211.793 43.6709 211.955 43.4436L215.11 39.2572C215.448 38.8098 215.975 38.7941 216.289 39.2206C216.438 39.4564 216.513 39.7317 216.506 40.011C216.498 40.2903 216.407 40.5609 216.245 40.7879Z" fill="#305399"/>
<path d="M210.638 47.8025L207.486 51.9888C207.148 52.4363 206.618 52.4546 206.304 52.0307C206.153 51.7956 206.076 51.5199 206.082 51.2397C206.089 50.9595 206.18 50.688 206.343 50.4608L209.498 46.2745C209.836 45.827 210.366 45.8087 210.68 46.2352C210.83 46.4705 210.906 46.7458 210.899 47.0253C210.891 47.3048 210.801 47.5755 210.638 47.8025Z" fill="#305399"/>
<path d="M89.3794 78.5123L159.779 106.721L218.97 31.2849L153.027 6.1405L89.3794 78.5123Z" fill="#EEF1F4"/>
<path d="M159.207 106.998L89.0679 79.2185L153.279 6.62427L218.85 31.6797L159.207 106.998Z" fill="#EEF1F4"/>
<path d="M214.371 37.3392L148.321 12.03L153.341 6.35486L219.029 31.4547L214.371 37.3392Z" fill="#305399"/>
<path d="M168.896 87.8009L108.324 64.0092L142.281 25.356L200.726 47.8812L168.896 87.8009Z" fill="white"/>
<path d="M115.808 76.8508L101.868 71.3536L102.691 70.4169L116.621 75.9036L115.808 76.8508Z" fill="#E4E4E4"/>
<path d="M153.504 25.5414L144.997 22.2682L150.316 16.2111L158.776 19.4555L153.504 25.5414Z" fill="#587BC9"/>
<path d="M173.69 27.148L160.376 22.0354L161.106 21.1929L174.407 26.2976L173.69 27.148Z" fill="#7DB5DB"/>
<path d="M191.71 36.1539L159.03 23.5974L158.002 24.7905L190.715 37.3679L191.71 36.1539Z" fill="#587BC9"/>
<path d="M164.873 92.8453L104.033 68.8888L108.323 64.009L168.896 87.8007L164.873 92.8453Z" fill="white"/>
<path d="M168.609 84.5589L112.866 62.6877L113.674 61.7667L169.367 83.6091L168.609 84.5589Z" fill="white"/>
<path d="M142.533 74.3283L112.726 62.6327L113.533 61.7117L143.314 73.3916L142.533 74.3283Z" fill="#587BC9"/>
<path d="M104.576 76.2776C103.592 77.408 101.592 77.8475 100.112 77.2641C98.6319 76.6806 98.2372 75.2912 99.2266 74.1661C100.216 73.0411 102.208 72.5963 103.683 73.1876C105.158 73.7789 105.558 75.1499 104.576 76.2776Z" fill="#E4E4E4"/>
<path d="M111.697 79.0878C110.721 80.2208 108.724 80.6577 107.241 80.0795C105.758 79.5012 105.356 78.1014 106.337 76.9711C107.319 75.8408 109.308 75.4012 110.786 75.9847C112.263 76.5682 112.671 77.9575 111.697 79.0878Z" fill="#E4E4E4"/>
<path d="M118.831 81.8952C117.862 83.0334 115.868 83.4808 114.382 82.8947C112.897 82.3086 112.484 80.9088 113.46 79.7759C114.437 78.6429 116.421 78.206 117.901 78.7842C119.381 79.3625 119.799 80.7701 118.831 81.8952Z" fill="#E4E4E4"/>
<path d="M125.983 84.7261C125.02 85.8695 123.031 86.3195 121.54 85.7308C120.049 85.1421 119.631 83.7397 120.6 82.5911C121.568 81.4424 123.55 81.0212 125.033 81.5942C126.516 82.1672 126.941 83.5879 125.983 84.7261Z" fill="#E4E4E4"/>
<path d="M43.8223 203.276L46.2322 205.424C48.7941 203.08 51.1408 200.507 53.2438 197.737C51.7324 197.237 50.5222 195.448 48.8135 197.122C48.2681 197.664 43.9807 203.418 43.8223 203.276Z" fill="#E5D1BD"/>
<path d="M47.8086 204.26C48.0094 204.463 48.1683 204.704 48.2762 204.969C48.3841 205.233 48.4387 205.517 48.437 205.804C48.4051 206.152 48.4051 206.502 48.437 206.85C48.5212 207.161 48.6729 207.449 48.8811 207.693C49.8653 209.025 53.166 212.429 49.1408 212.947C45.4895 213.418 42.5213 207.955 40.9684 205.252C40.8479 205.078 40.7794 204.872 40.771 204.66C40.8027 204.415 40.8966 204.181 41.0437 203.983C41.7786 202.808 42.8615 201 44.2067 202.002C44.7754 202.429 45.0299 203.237 45.6687 203.656C46.2011 204.001 47.4554 203.923 47.8086 204.26Z" fill="#1A3151"/>
<path d="M48.6601 139.18C48.4524 143.751 49.8106 148.056 50.761 152.407C51.8284 157.294 51.7738 161.564 51.2674 166.591C50.7143 172.085 50.0547 177.601 49.0367 183.056C47.9772 188.739 45.9983 193.381 43.7468 198.684C43.5573 199.134 43.3599 199.616 43.43 200.092C43.6897 201.793 52.0621 205.626 52.4646 204.587C55.8821 195.77 61.9121 186.625 64.7063 177.596C69.5644 161.89 73.4619 145.9 76.3768 129.714C76.7923 127.406 77.1169 124.779 75.7354 123.013C74.6758 121.658 72.8969 121.21 71.2271 120.92C66.7579 120.114 58.6374 118.175 54.607 121.381C50.1897 124.874 48.8939 134.06 48.6601 139.18Z" fill="#3B455A"/>
<path d="M80.1319 208.7L83.3079 208.287C83.3136 204.778 83.0077 201.275 82.3937 197.821C81.02 198.643 78.9061 198.376 78.984 200.791C79.01 201.584 80.3396 208.672 80.1319 208.7Z" fill="#E5D1BD"/>
<path d="M83.5157 206.311C83.7985 206.29 84.0826 206.328 84.3506 206.421C84.6186 206.515 84.8647 206.663 85.0738 206.856C85.3111 207.111 85.5719 207.343 85.8529 207.549C86.1363 207.691 86.4479 207.766 86.7644 207.769C88.3926 207.902 93.0826 207.643 90.7714 211.055C88.6731 214.153 82.7028 212.79 79.6956 212.183C79.4885 212.16 79.2926 212.076 79.1321 211.942C78.9734 211.753 78.866 211.526 78.8205 211.283C78.4543 209.943 77.8674 207.91 79.4905 207.557C80.1812 207.405 80.9395 207.748 81.6719 207.539C82.251 207.369 83.0326 206.356 83.5157 206.311Z" fill="#1A3151"/>
<path d="M56.7727 144.196C58.7749 150.612 63.5246 155.212 66.1553 161.376C71.2634 173.291 73.6006 187.334 76.8311 199.927C77.0908 200.893 77.4466 204.417 77.4466 204.417C77.4466 204.417 82.5365 204.81 85.4969 203.894C86.0068 177.964 84.0345 152.044 79.6072 126.496C79.2047 124.178 78.61 121.585 76.7038 120.344C75.2444 119.395 73.4136 119.528 71.7412 119.766C67.259 120.415 58.9489 121.142 56.2481 125.439C53.2981 130.148 55.2327 139.264 56.7727 144.196Z" fill="#3B455A"/>
<path d="M63.1979 72.1252C58.5234 76.2645 54.6281 82.128 51.8988 88.5358C47.053 99.8834 45.1988 112.869 43.4121 125.577L41.6281 138.28C41.0438 142.446 41.1892 143.414 44.5755 143.72C50.8496 144.288 57.4639 144.207 63.5328 141.912C66.4232 140.821 69.2045 139.217 72.1701 138.537C76.4836 137.548 80.4802 139.536 84.6638 139.246C84.2301 134.798 83.2433 130.583 83.1472 126.006C83.0511 121.43 83.3368 116.849 83.7367 112.299C84.4326 104.352 84.7962 96.3669 85.4454 88.4363C85.8921 82.9653 87.5723 75.2074 84.8845 70.291C82.8511 66.5704 78.7922 65.6965 75.2578 66.1779C70.8769 66.7719 66.8023 68.9357 63.1979 72.1252Z" fill="#6BADEE"/>
<path d="M83.7053 58.6792C83.4456 61.7562 82.3575 64.8698 80.1294 66.9917C83.0924 67.2534 86.0191 65.5867 87.7643 63.1586C89.5094 60.7305 90.1898 57.664 90.2105 54.6603C90.2105 53.1349 90.0625 51.5676 89.3847 50.2123C88.7069 48.8569 87.4293 47.7161 85.9231 47.5487C83.5261 47.287 82.8951 48.7784 83.1444 50.6466C83.5002 53.3285 83.939 55.945 83.7053 58.6792Z" fill="#1A3151"/>
<path d="M85.2063 64.1241C83.8456 65.4193 82.1368 66.2618 80.589 67.3214C79.0854 68.3523 78.2337 69.4957 77.3274 71.0316C76.6729 72.141 75.8809 72.8972 74.3851 72.5204C71.5623 71.8139 73.2191 69.9039 73.2606 68.0384C73.31 65.9085 72.4192 63.852 72.0479 61.7745C70.978 55.7906 75.6134 46.7193 82.625 47.24C90.2936 47.8104 89.3328 60.1968 85.2063 64.1241Z" fill="#D8A88D"/>
<path d="M76.8908 55.1627C76.3154 55.5052 75.8661 56.0268 75.6105 56.6489C75.0003 58.1586 76.4338 59.1973 77.3531 60.1026C78.3918 61.1152 78.3399 62.7688 78.1321 64.2C77.6423 67.6361 76.6205 70.9734 75.1041 74.0903C68.5658 72.1921 62.5285 68.8522 57.4297 64.3126C59.8266 63.9462 61.2887 61.5286 62.3326 59.3412C64.4387 54.9089 66.2669 50.2568 69.3858 46.4708C72.5047 42.6847 77.2907 39.8406 82.1313 40.5549C83.5284 40.7683 84.8681 41.2643 86.07 42.013C87.2718 42.7616 88.3109 43.7475 89.1248 44.9114C91.2334 47.9674 89.8675 51.3479 86.411 52.4102C85.0554 52.8262 83.3519 52.6247 82.0742 53.1559C81.2198 53.5117 80.7316 54.2941 79.7058 54.5034C78.8826 54.6708 78.0127 54.663 77.2388 54.9927C77.1192 55.0416 77.003 55.0985 76.8908 55.1627Z" fill="#3B455A"/>
<path d="M139.764 82.8608C139.645 82.641 139.344 82.6174 139.097 82.6514C138.3 82.7587 137.578 83.1747 136.877 83.562L135.578 84.2946C135.375 84.4253 135.152 84.5224 134.919 84.5824C134.704 84.6175 134.487 84.6298 134.269 84.619C134.25 84.5618 134.224 84.5066 134.194 84.4542C134.023 84.1967 133.778 83.997 133.493 83.8812C133.407 83.8313 133.306 83.8163 133.21 83.8393C133.141 83.8717 133.083 83.9223 133.041 83.9858C132.88 84.1899 132.28 84.8283 131.717 85.5086C131.078 85.8671 130.455 86.2543 129.785 86.5552C128.091 87.3035 123.638 86.8718 123.505 89.4334C123.451 89.9262 123.483 90.425 123.601 90.9064C123.738 91.2859 123.936 91.6397 124.188 91.953C124.375 92.2147 124.612 92.6516 124.913 92.6987C125.214 92.7458 125.926 92.335 126.235 92.2225L128.889 91.2675C129.756 90.9561 130.808 90.6709 131.527 91.2492C131.671 91.3903 131.825 91.5214 131.987 91.6417C132.19 91.7461 132.413 91.805 132.641 91.8143C133.476 91.9127 134.32 91.9127 135.155 91.8143C135.911 91.7149 136.126 91.1498 136.547 90.5768C136.755 90.2916 137.017 90.0535 137.212 89.7578C137.786 88.8996 137.144 87.7719 136.872 86.9006C136.843 86.8116 135.573 86.2883 135.384 86.1785C135.407 86.1785 137.178 84.9723 137.365 84.8702C138.075 84.5207 138.754 84.112 139.396 83.6483C139.655 83.4469 139.913 83.1355 139.764 82.8608Z" fill="#D8A88D"/>
<path d="M105.221 96.8092C106.299 97.2933 107.395 97.7826 108.561 97.9631C109.496 98.0759 110.442 98.0759 111.378 97.9631C117.206 97.4517 122.919 96.0296 128.312 93.7479C128.063 90.9837 127.273 88.2965 125.988 85.8409C121.255 86.6473 116.466 87.0725 111.666 87.1126C110.685 87.1578 109.703 87.0698 108.745 86.8509C107.379 86.4846 106.2 85.6342 105.055 84.7996L91.7275 75.0924C89.0475 73.1406 86.2558 71.1389 83.0097 70.4953C74.0141 68.7082 70.4745 79.8361 77.6653 84.5065C85.739 89.7604 96.4226 92.8479 105.221 96.8092Z" fill="#6BADEE"/>
<path d="M111.337 50.2803C112.731 49.0454 115.063 48.3965 116.024 50.4347C116.133 50.665 116.193 50.9789 115.998 51.1438C115.922 51.1998 115.832 51.2349 115.738 51.2458C115.388 51.3081 115.027 51.2672 114.7 51.1281C114.586 51.0635 114.459 51.0268 114.328 51.0208C114.189 51.0457 114.061 51.1133 113.962 51.2144C112.755 52.1815 111.61 53.2249 110.534 54.3385C110.447 54.446 110.339 54.535 110.217 54.6001C110.071 54.6423 109.916 54.6446 109.768 54.6069C109.62 54.5692 109.485 54.4929 109.376 54.3856C108.838 53.9617 108.722 54.0245 108.916 53.4096C109.062 52.9491 109.485 52.4703 109.766 52.0857C110.224 51.4295 110.751 50.8243 111.337 50.2803Z" fill="#D8A88D"/>
<path d="M154.078 41.9729L140.585 61.7116L165.206 58.3207L154.078 41.9729Z" fill="#305399"/>
<g opacity="0.18">
<path opacity="0.18" d="M112.216 108.845L105.379 105.546C105.131 105.426 104.941 105.212 104.849 104.951C104.758 104.69 104.773 104.404 104.89 104.154C105.009 103.904 105.222 103.713 105.48 103.62C105.739 103.528 106.024 103.543 106.272 103.662L113.11 106.961C113.357 107.081 113.547 107.295 113.639 107.556C113.73 107.816 113.716 108.103 113.598 108.353C113.479 108.602 113.267 108.794 113.008 108.886C112.749 108.978 112.464 108.964 112.216 108.845Z" fill="black"/>
</g>
<path d="M108.9 106.082C105.631 104.25 102.618 107.147 101.369 110.025C99.6942 113.913 99.2423 118.076 99.2709 122.275C99.2995 126.647 99.6267 131.36 97.5803 135.376C95.869 138.733 92.1269 141.308 88.3276 139.957C84.3154 138.534 82.521 134.201 81.5913 130.365C80.5006 125.86 80.2591 121.208 80.2357 116.59C80.2123 112.061 80.3707 107.537 80.2539 103.008C80.176 99.9271 80.0314 96.8475 79.8202 93.7688C79.7267 92.4003 79.5605 91.4584 79.9059 90.1057C80.2279 88.8786 80.685 87.5756 81.0823 86.4426C81.5315 85.1867 82.0327 83.9517 82.5625 82.7298C83.5363 80.4744 84.5881 78.253 85.5411 75.9872C87.4343 71.4973 88.9171 66.7458 88.6418 61.8111C88.5925 60.9686 87.2837 60.9634 87.3434 61.8111C87.668 67.4104 85.6216 72.6852 83.3857 77.701C82.3651 79.993 81.3082 82.2693 80.3889 84.6059C80.0253 85.5295 79.6877 86.4609 79.3839 87.4055C79.7553 86.2516 79.1242 84.0041 79.0385 82.7717C78.9191 81.1355 78.8048 79.4985 78.6957 77.8606C78.4906 74.6789 78.3218 71.4921 78.2361 68.3052C78.1928 66.6655 78.1738 65.0259 78.1789 63.3862C78.1789 62.2402 78.6983 59.9168 78.2621 58.8859L78.2387 58.8362C78.4121 58.6247 78.5398 58.3791 78.6136 58.1151C78.6874 57.8511 78.7056 57.5744 78.6672 57.3029C78.6015 56.9807 78.4294 56.6905 78.179 56.4795C77.9286 56.2685 77.6146 56.1492 77.2882 56.1412C76.9754 56.1381 76.6703 56.239 76.4201 56.4281C76.1699 56.6173 75.9885 56.8843 75.9041 57.1878C75.7041 57.8968 76.0807 58.4803 76.6104 58.9016C76.5767 59.8932 76.8857 61.7143 76.8701 62.2402C76.8364 64.9613 76.8831 67.6825 76.9844 70.401C77.1792 75.6601 77.5765 80.9088 77.9712 86.1548C78.327 90.9011 78.6776 95.6474 78.8619 100.404C79.0437 105.096 78.9606 109.776 78.9295 114.47C78.9009 119.075 79.0048 123.701 79.8124 128.246C80.4928 132.071 81.6068 136.234 84.4868 139.013C86.9798 141.428 90.4597 142.365 93.7006 140.933C97.1129 139.424 99.1541 136.051 99.9851 132.508C101.135 127.587 100.229 122.521 100.764 117.545C101.009 115.011 101.668 112.536 102.714 110.219C103.665 108.204 105.831 105.865 108.235 107.22C108.976 107.636 109.635 106.49 108.9 106.082Z" fill="#F2F2F2"/>
</svg>
