<svg width="329" height="275" viewBox="0 0 329 275" fill="none" xmlns="http://www.w3.org/2000/svg">
<path d="M328.297 148.862C325.071 134.784 313.801 123.23 309.319 109.225C299.1 77.2868 328.115 35.8213 293.4 10.0568C258.145 -16.0821 216.722 16.2887 200.999 22.3665C171.073 33.9422 147.27 23.9153 129.76 20.6048C100.935 15.1803 70.6071 22.5794 47.1621 38.9263C-0.640152 72.2294 -6.55978 134.93 5.16999 161.414C11.9874 174.913 19.0384 181.02 28.4324 186.988C68.1837 212.217 109.716 166.567 154.898 175.06C179.401 179.662 190.27 197.918 212.24 207.945C274.086 236.161 336.333 183.912 328.297 148.862Z" fill="#EEEEEE"/>
<path d="M218.5 259C271.243 259 314 254.971 314 250C314 245.029 271.243 241 218.5 241C165.757 241 123 245.029 123 250C123 254.971 165.757 259 218.5 259Z" fill="#DCE1E7"/>
<path d="M283.503 252H155.497C151.121 252.002 146.924 250.265 143.83 247.173C140.735 244.08 138.998 239.885 139 235.512V41.4882C139 32.382 146.386 25 155.497 25H283.503C287.879 24.9981 292.076 26.7346 295.17 29.8271C298.265 32.9197 300.002 37.1146 300 41.4882V235.512C300 244.618 292.614 252 283.503 252Z" fill="#6BADEE"/>
<path d="M144.519 29C143.827 29.6175 143.188 30.2923 142.609 31.0175C140.268 33.9443 138.994 37.5899 139 41.3469V235.501C138.998 239.877 140.725 244.075 143.8 247.17C146.875 250.264 151.047 252.002 155.396 252H282.62C286.867 252.004 290.949 250.344 294 247.371C271.983 215.326 183.544 86.3841 144.519 29Z" fill="#4F93D7"/>
<rect x="151" y="39" width="137" height="200" fill="white"/>
<path d="M288 239H151V39L288 239Z" fill="#DCE1E7"/>
<path d="M236.486 18.6283C235.29 18.63 234.25 17.8081 233.973 16.6428C233.044 12.7453 229.564 9.99658 225.563 10H213.437C209.436 9.99658 205.956 12.7453 205.027 16.6428C204.75 17.8081 203.71 18.63 202.514 18.6283H193.587C192.158 18.6283 191 19.7882 191 21.219V40.4093C191 41.8401 192.158 43 193.587 43H245.413C246.099 43 246.757 42.7271 247.242 42.2412C247.727 41.7554 248 41.0964 248 40.4093V21.219C248 19.7882 246.842 18.6283 245.413 18.6283H236.486Z" fill="#00CCCC"/>
<path d="M229.049 33.0382C216.663 33.0486 204.94 27.5175 197.177 18H193.587C192.158 18 191 19.1422 191 20.5512V39.4488C191 40.8578 192.158 42 193.587 42H245.413C246.099 42 246.757 41.7312 247.242 41.2528C247.727 40.7743 248 40.1254 248 39.4488V28.4518C242.153 31.4713 235.65 33.0452 229.049 33.0382Z" fill="#1E9F9F"/>
<path fill-rule="evenodd" clip-rule="evenodd" d="M166 101H199V68H166V101ZM196.789 98.7887H168.211V70.2113H196.789V98.7887Z" fill="#6BADEE"/>
<path d="M271.842 70H207.158C206.851 70 206.556 69.8946 206.339 69.7071C206.122 69.5196 206 69.2652 206 69C206 68.4477 206.519 68 207.158 68H271.842C272.481 68 273 68.4477 273 69C273 69.5523 272.481 70 271.842 70Z" fill="#C9B6D3"/>
<path d="M271.842 78H207.158C206.519 78 206 77.5494 206 76.9935C206.008 76.4427 206.524 76 207.158 76H271.842C272.481 76 273 76.4506 273 77.0065C272.992 77.5573 272.476 78 271.842 78Z" fill="#C9B6D3"/>
<path d="M271.842 86H207.158C206.519 86 206 85.5523 206 85C206 84.4477 206.519 84 207.158 84H271.842C272.481 84 273 84.4477 273 85C273 85.5523 272.481 86 271.842 86Z" fill="#C9B6D3"/>
<path d="M271.842 93H207.158C206.519 93 206 92.5523 206 92C206 91.4477 206.519 91 207.158 91H271.842C272.481 91 273 91.4477 273 92C273 92.5523 272.481 93 271.842 93Z" fill="#C9B6D3"/>
<path d="M254.859 100H207.141C206.511 100 206 99.5523 206 99C206 98.4477 206.511 98 207.141 98H254.859C255.489 98 256 98.4477 256 99C256 99.5523 255.489 100 254.859 100Z" fill="#C9B6D3"/>
<path d="M171 81.049L180.038 93L204 68L180.038 84.5203L175.435 77.1456L171 81.049Z" fill="#6BADEE"/>
<path fill-rule="evenodd" clip-rule="evenodd" d="M166 157H199V124H166V157ZM196.789 154.789H168.211V126.211H196.789V154.789Z" fill="#6BADEE"/>
<path d="M271.842 126H207.158C206.519 126 206 125.552 206 125C206 124.448 206.519 124 207.158 124H271.842C272.481 124 273 124.448 273 125C273 125.552 272.481 126 271.842 126Z" fill="#C9B6D3"/>
<path d="M271.842 134H207.158C206.519 134 206 133.552 206 133C206 132.448 206.519 132 207.158 132H271.842C272.481 132 273 132.448 273 133C273 133.552 272.481 134 271.842 134Z" fill="#C9B6D3"/>
<path d="M271.842 141H207.158C206.851 141 206.556 140.895 206.339 140.707C206.122 140.52 206 140.265 206 140C206 139.448 206.519 139 207.158 139H271.842C272.481 139 273 139.448 273 140C273 140.552 272.481 141 271.842 141Z" fill="#C9B6D3"/>
<path d="M271.842 149H207.158C206.519 149 206 148.552 206 148C206 147.448 206.519 147 207.158 147H271.842C272.481 147 273 147.448 273 148C273 148.552 272.481 149 271.842 149Z" fill="#C9B6D3"/>
<path d="M254.859 156H207.141C206.511 156 206 155.552 206 155C206 154.448 206.511 154 207.141 154H254.859C255.489 154 256 154.448 256 155C256 155.552 255.489 156 254.859 156Z" fill="#C9B6D3"/>
<path d="M171 137.045L180.038 149L204 124L180.038 140.516L175.435 133.143L171 137.045Z" fill="#6BADEE"/>
<path fill-rule="evenodd" clip-rule="evenodd" d="M166 212H199V179H166V212ZM196.789 209.789H168.211V181.211H196.789V209.789Z" fill="#6BADEE"/>
<path d="M271.842 181H207.158C206.519 181 206 180.552 206 180C206 179.448 206.519 179 207.158 179H271.842C272.481 179 273 179.448 273 180C273 180.552 272.481 181 271.842 181Z" fill="#C9B6D3"/>
<path d="M271.842 190H207.158C206.519 190 206 189.552 206 189C206 188.448 206.519 188 207.158 188H271.842C272.481 188 273 188.448 273 189C273 189.552 272.481 190 271.842 190Z" fill="#C9B6D3"/>
<path d="M271.842 197H207.158C206.519 197 206 196.552 206 196C206 195.448 206.519 195 207.158 195H271.842C272.481 195 273 195.448 273 196C273 196.552 272.481 197 271.842 197Z" fill="#C9B6D3"/>
<path d="M271.842 204H207.158C206.519 204 206 203.554 206 203.003C205.998 202.738 206.119 202.483 206.337 202.294C206.554 202.106 206.85 202 207.158 202H271.842C272.481 202 273 202.446 273 202.997C273.002 203.262 272.881 203.517 272.663 203.706C272.446 203.894 272.15 204 271.842 204Z" fill="#C9B6D3"/>
<path d="M254.859 212H207.141C206.511 212 206 211.552 206 211C206 210.448 206.511 210 207.141 210H254.859C255.489 210 256 210.448 256 211C256 211.552 255.489 212 254.859 212Z" fill="#C9B6D3"/>
<path d="M171 192.045L180.038 204L204 179L180.038 195.523L175.435 188.143L171 192.045Z" fill="#6BADEE"/>
<path d="M91.5 275C122.152 275 147 272.761 147 270C147 267.239 122.152 265 91.5 265C60.8482 265 36 267.239 36 270C36 272.761 60.8482 275 91.5 275Z" fill="#DCE1E7"/>
<path d="M21.538 155.742L39 147.171L33.8269 137L16.3649 145.571C15.7808 145.856 15.3358 146.357 15.128 146.964C14.9198 147.568 14.967 148.23 15.259 148.8L18.2421 154.671C18.5312 155.244 19.0423 155.679 19.6608 155.878C20.2801 156.079 20.9554 156.03 21.538 155.742Z" fill="#6BADEE"/>
<path d="M29.4315 138.674L33.1784 146.068L17 154.028L17.3195 154.665C17.608 155.238 18.1181 155.674 18.7355 155.873C19.3388 156.074 19.9975 156.035 20.5726 155.766L38 147.184L32.8371 137L29.4315 138.674Z" fill="#589DE0"/>
<path d="M35.5825 149.41L31.8224 141.689L15.58 150L15.2594 149.335C14.967 148.739 14.9197 148.048 15.1282 147.416C15.3364 146.782 15.782 146.258 16.367 145.96L33.8555 137L39 147.663L35.5825 149.41Z" fill="#8EC0F2"/>
<path d="M157 89.6976L30.0993 153.74C29.5396 154.025 28.8929 154.078 28.2955 153.888C27.6642 153.698 27.138 153.251 26.8409 152.655L22.2516 143.321C21.9662 142.74 21.9217 142.067 22.128 141.453C22.3344 140.849 22.765 140.351 23.328 140.065L150.229 76L157 89.6976Z" fill="#3AD8D8"/>
<path d="M150 76.4851L169 76L157.193 91L150 76.4851Z" fill="#FFBB99"/>
<path d="M150 76.4389L169 76L151.95 80L150 76.4389Z" fill="#FFD1BD"/>
<path d="M27 151.12L27.7335 152.655C28.0331 153.252 28.5638 153.698 29.2005 153.888C29.8029 154.078 30.4551 154.025 31.0196 153.74C31.0196 153.74 115.077 111.673 157.106 90.639C157.737 90.323 158.715 89.1225 158.715 89.1225L157.152 86L27 151.12Z" fill="#00CCCC"/>
<path d="M155 87.0563L169 76L156.984 91L155 87.0563Z" fill="#F4A27D"/>
<path d="M22.9895 144L22.2567 142.484C21.9613 141.899 21.919 141.219 22.1395 140.603C22.3366 140.022 22.7478 139.538 23.29 139.247L150.153 76L152 79.6449L22.9895 144Z" fill="#8DECEC"/>
<rect x="27.3173" y="138.104" width="4" height="4" transform="rotate(-26.53 27.3173 138.104)" fill="#8EC0F2"/>
<rect x="32.3173" y="148.104" width="4" height="4" transform="rotate(-26.53 32.3173 148.104)" fill="#589DE0"/>
<rect x="29" y="141.787" width="4" height="7" transform="rotate(-26.53 29 141.787)" fill="#8EC0F2"/>
<path d="M85.6697 170.541L77 181.738C77 181.738 84.8795 187.262 93.0371 183.933C101.195 180.605 117.583 181.221 117.993 175.697C118.402 170.173 101.692 167 101.692 167L85.6697 170.541Z" fill="#47236D"/>
<path d="M107.662 263C107.662 263 117.736 263.304 117.991 266.1C118.246 268.896 113.11 271.135 106.673 270.994C100.853 270.859 95.8927 270.662 96.0018 268.96C96.1109 267.258 96.9474 263.007 96.9474 263.007L107.662 263Z" fill="#8EC0F2"/>
<path d="M108.004 263H96.9752C96.9752 263 96.1141 267.24 96.0018 268.958C95.8895 270.675 100.966 270.866 106.986 270.993C112.115 271.106 116.428 269.785 118 267.884C115.537 264.449 108.004 263 108.004 263Z" fill="#6BADEE"/>
<path d="M75.4436 256.924C75.4436 256.924 81.7817 267.069 79.5073 271.059C77.2329 275.048 67.7181 265.333 65.6256 261.037C62.9494 255.538 63.0707 255.035 69.8788 248.638C72.4262 246.246 72.9114 247.179 72.9114 247.179C72.9114 247.179 74.314 250.323 75.0342 250.593C75.7545 250.863 75.4436 256.924 75.4436 256.924Z" fill="#8EC0F2"/>
<path d="M79.6412 271.059C79.8054 270.765 79.9261 270.451 80 270.125C79.0763 265.094 73.2441 257.773 72.0838 255.541C70.809 253.098 73.0991 251.217 73.0991 251.217L74.4274 249.868C73.8795 249.002 73.3948 248.1 72.977 247.17C72.977 247.17 72.5266 246.266 69.9235 248.628C63.0531 255.016 62.9462 255.512 65.6409 261.025C67.7707 265.335 77.3587 275.048 79.6412 271.059Z" fill="#6BADEE"/>
<path d="M64.2355 257.476C64.1286 257.64 64.0489 257.823 64 258.017C64.3371 259.296 64.7894 260.537 65.3506 261.72C67.0266 265.602 73.9318 273.781 77 272.94C76.9301 270.997 76.3459 269.117 75.317 267.525C72.602 263.011 65.9046 254.961 64.2355 257.476Z" fill="#47236D"/>
<path d="M81 175.582C81 175.582 81.1946 176.11 81.539 177.093C84.8552 186.518 102.17 237.664 96.6156 263.645C96.6156 263.645 103.982 264.444 107.642 263.645C107.642 263.645 112.186 223.383 104.648 200.697C99.8421 186.269 95.3505 170 95.3505 170" fill="#242472"/>
<path d="M115.876 171.221C115.876 171.221 120.367 220.373 75.3782 258C75.3782 258 74.9971 252.454 70 249.681C70 249.681 100.217 205.327 96.8908 194.492C93.5643 183.656 85.3725 179.702 86.2078 171.221C87.0431 162.741 101.727 162 101.727 162L115.876 171.221Z" fill="#463DA8"/>
<path d="M115.398 185.036C115.982 180.447 116.142 175.814 115.874 171.195L101.726 162C101.726 162 87.0719 162.732 86.2073 171.195C85.3427 179.659 93.5343 183.631 96.89 194.399C100.246 205.168 70 249.432 70 249.432C71.1703 250.078 72.1993 250.951 73.026 252C100.759 226.514 108.862 201.195 115.398 185.036Z" fill="#2E2E89"/>
<path d="M129.439 104C129.439 104 126.815 114.831 121.857 117.607C116.9 120.383 97.5303 122.748 97.5303 122.748L90.3569 121.888L73.2253 138.044C73.2253 138.044 68.5086 144.374 62.8588 148.075C57.209 151.776 46.2374 144.572 46.2374 144.572L42.0529 148.912C41.1344 147.899 52.3902 158.525 58.6743 158.745C66.6934 159.024 76.9578 151.526 76.9578 151.526L77.4025 151.181L77.5337 152.07C79.05 162.732 76.9578 183 76.9578 183C87.2586 170.935 117.782 176.736 117.782 176.736C116.9 161.734 107.576 133.366 107.576 133.366C107.576 133.366 121.609 129.166 127.354 125.288C133.099 121.411 136 106.086 136 106.086L129.439 104Z" fill="#7EB9F3"/>
<path d="M128.547 118.163C125.358 122.578 105.766 132.143 95.4745 127.831C92.911 126.834 90.7368 125.027 89.2774 122.681L86.6934 125.124C85.4088 128.229 84.3066 132.606 80.854 136.896C63.562 158.057 52.708 151.472 44.3577 145.475L42 148.823C42.8905 149.515 52.8467 158.491 58.6204 158.697C66.6496 158.977 76.927 151.464 76.927 151.464L77.3723 151.119L77.5037 152.009C79.0219 162.692 76.927 183 76.927 183C83.5985 175.179 98.7591 174.855 108.628 175.591C107.956 158.3 101.569 134.004 101.569 134.004L107.584 133.269C107.584 133.269 121.635 129.06 127.387 125.175C133.139 121.29 136 105.868 136 105.868L133.219 105C132.234 109.209 130.54 115.433 128.547 118.163Z" fill="#6BADEE"/>
<path d="M42.0677 149.086C41.9677 148.966 41.9877 148.976 42.0677 149.086V149.086Z" fill="#9032C6"/>
<path d="M97.0391 111.87C97.0391 111.87 95.9609 119.385 98 122.948C98 122.948 95.2347 127.616 90.7824 125.406C86.3301 123.197 86 114.995 86 114.995L92.4181 108L97.0391 111.87Z" fill="#F4A27D"/>
<path d="M87.8985 88C87.8985 88 97.9262 88.3111 101.895 99.7769C105.864 111.243 98.5321 118.99 89.6329 114.889C80.7336 110.787 76 95.2195 76 95.2195L87.8985 88Z" fill="#FFBB99"/>
<path d="M101 107.044C98.5497 108.07 94.9641 108.395 91.1844 104.695C86.7581 100.358 86.7509 92.9145 87.3832 88.0723C86.9593 88.0145 86.715 88 86.715 88L77.9485 93.6299L77 96.7304L77.8623 101.674C80.018 106.458 83.5389 112.514 88.3605 114.892C94.8491 118.036 100.454 114.198 101 107.044Z" fill="#F4A27D"/>
<path d="M88.4265 87.4456C88.988 85.1272 88.5194 82.6785 87.142 80.7335C84.8125 77.4356 76.1547 76.198 75.0662 82.3787C74.4284 85.909 74.0428 89.4804 73.9123 93.0657C73.9123 93.0657 65.0804 93.6627 63.7088 105.056C62.7073 113.333 77.9545 133.229 70.6684 136.258C63.3822 139.286 60.2834 135.239 61.1035 131.89C61.1035 131.89 56.459 138.114 60.9729 143.916C65.4868 149.718 84.8487 147.767 90.6544 134.336C96.4601 120.904 89.6602 108.856 89.6602 108.856C89.6602 108.856 86.7574 111.084 85.0157 108.128C83.274 105.172 87.396 104.488 87.396 104.488C87.396 104.488 83.9706 96.6402 81.2275 96.7858C81.2202 96.8076 88.3394 91.6898 88.4265 87.4456Z" fill="#463DA8"/>
<path d="M129.825 104.877C129.825 104.877 125.932 101.411 126.001 98.8573C126.07 96.3039 128.089 98.2709 129.274 99.0577C130.459 99.8445 133.312 99.5253 135.277 97.2837C137.242 95.042 140.73 92.1694 141.793 95.5542C142.856 98.9389 139.628 105.3 136.768 107C136.707 107 133.648 104.439 129.825 104.877Z" fill="#FFBB99"/>
<path d="M43.8787 150C43.8787 150 44.1769 146.889 48.2249 145.392C48.2249 145.392 50.5284 139.851 49.8873 137.825C49.2462 135.8 47.8521 137.963 47.1588 139.395C46.4655 140.827 44.9224 141.652 41.8435 139.395C38.7647 137.138 34.5602 138.433 35.0373 142.455C35.3578 145.175 40.7253 149.834 43.8787 150Z" fill="#FFBB99"/>
<path d="M139.898 96C138.692 102.644 133 105.435 133 105.435L133.04 105.523C133.897 105.886 134.701 106.383 135.427 107C137.847 105.398 140.562 99.4403 139.898 96Z" fill="#F4A27D"/>
<path d="M43.7492 149C44.0065 147.536 44.8143 146.232 46 145.368C40.7578 146.162 37.4219 141.04 35.9336 138C35.1858 138.877 34.8629 140.051 35.0538 141.197C35.3691 144.005 40.6479 148.828 43.7492 149Z" fill="#F4A27D"/>
<path d="M166.634 79.2295L169.173 76.1233H165L166.634 79.2295Z" fill="#4792DB"/>
<path d="M90.6393 135.23C94.9955 125.126 92.3019 115.792 90.6393 111.749C86.8276 113.95 73.9406 120.143 68.931 108.08C67.6044 104.55 67.0832 100.762 67.4064 97C65.7074 98.7904 64.2118 101.527 63.7109 105.725C62.7089 114.068 77.9628 134.122 70.6735 137.174C63.3842 140.227 60.284 136.147 61.1044 132.772C61.1044 132.772 56.4578 139.046 60.9737 144.894C65.4896 150.742 84.8311 148.768 90.6393 135.23Z" fill="#2E2E89"/>
</svg>
