<svg width="290" height="410" viewBox="0 0 290 410" fill="none" xmlns="http://www.w3.org/2000/svg">
<path fill-rule="evenodd" clip-rule="evenodd" d="M182.719 396.562C271.434 335.933 294.845 207.882 289.211 149.803C284.482 101.058 188.125 59.232 158.233 46.1677C120.491 29.6727 44.4703 -31.5813 6.3986 20.7031C-27.5654 67.3464 84.7441 166.662 84.7441 231.712C84.7441 296.762 94.0033 457.19 182.719 396.562Z" fill="#EEEEEE"/>
<path d="M149.985 240L145 239.258L147.867 219.066C148.88 212.157 154.646 207.036 161.452 207H175V212.118H161.502C157.169 212.138 153.497 215.397 152.852 219.796L149.985 240Z" fill="#CECECE"/>
<rect x="186.449" y="235.895" width="37" height="13" transform="rotate(-81.87 186.449 235.895)" fill="#A8A8A8"/>
<rect x="182" y="246" width="3" height="57" fill="#E8E8E8"/>
<path d="M218.886 244H146.114C143.295 243.987 141.014 241.756 141 239C141.014 236.244 143.295 234.013 146.114 234H218.886C221.705 234.013 223.986 236.244 224 239C223.986 241.756 221.705 243.987 218.886 244Z" fill="#E8E8E8"/>
<path d="M192.032 299H174.09C170.727 299 168 301.686 168 305H198C198.001 301.733 195.347 299.065 192.032 299Z" fill="#CECECE"/>
<path d="M219.853 244H189.147C186.31 243.987 184.014 241.756 184 239C184.014 236.244 186.31 234.013 189.147 234H219.853C222.69 234.013 224.986 236.244 225 239C224.986 241.756 222.69 243.987 219.853 244Z" fill="#CECECE"/>
<path d="M187.36 258H180.714C179.138 258.002 177.803 256.85 177.588 255.303L176 244H192L190.412 255.303C190.201 256.823 188.907 257.966 187.36 258Z" fill="#CECECE"/>
<path d="M207.3 221.996H187.129C183.279 222.093 179.59 220.481 177.083 217.604C174.576 214.728 173.519 210.895 174.204 207.166L179.48 170.834C180.889 162.482 188.099 156.273 196.7 156.004H216.871C220.721 155.907 224.41 157.519 226.917 160.396C229.424 163.272 230.481 167.105 229.796 170.834L224.52 207.179C223.105 215.526 215.897 221.728 207.3 221.996Z" fill="#CECECE"/>
<path d="M201.3 221.996H181.129C177.279 222.093 173.59 220.481 171.083 217.604C168.576 214.728 167.519 210.895 168.204 207.166L173.48 170.834C174.889 162.482 182.099 156.273 190.7 156.004H210.871C214.721 155.907 218.41 157.519 220.917 160.396C223.424 163.272 224.481 167.105 223.796 170.834L218.52 207.179C217.105 215.526 209.897 221.728 201.3 221.996Z" fill="#E8E8E8"/>
<path d="M175.239 115.265C177.79 115.912 173.427 124.195 169.561 127.625C165.971 130.808 164.806 112.612 175.239 115.265Z" fill="#151B59"/>
<path d="M161 276L157.972 300.145C157.819 301.188 156.988 301.968 155.994 301.999H148.472C148.063 302.016 147.668 301.844 147.387 301.529C147.106 301.213 146.967 300.784 147.006 300.352L148.472 276H161Z" fill="#FCB692"/>
<path d="M162.68 306.963H137.313C137.179 306.963 137.059 306.879 137.016 306.753C136.973 306.628 137.017 306.49 137.125 306.41L145.903 300.061C146.041 299.96 146.238 299.987 146.342 300.123C146.446 300.258 146.417 300.451 146.279 300.553L138.279 306.374H162.304L161.125 300.393C161.095 300.227 161.207 300.068 161.376 300.037C161.458 300.019 161.544 300.035 161.613 300.082C161.682 300.128 161.728 300.201 161.74 300.282L162.994 306.632C163.013 306.723 162.988 306.818 162.927 306.89C162.866 306.961 162.775 307.002 162.68 307V306.963Z" fill="#6BADEE"/>
<path d="M123.218 182C120.36 180.78 115.719 179.936 115.296 178.225C114.557 176.095 115.226 173.777 117.027 172.227C118.796 170.836 127 176.298 127 176.298L123.218 182Z" fill="#FCB692"/>
<path d="M123.766 177C122.346 175.395 114.051 176.441 115.09 172.745C115.76 170.368 121.518 170.76 122.675 171.913C123.359 172.59 126.527 176.144 127 175.99L123.766 177Z" fill="#FCB692"/>
<path d="M130 276L126.98 300.145C126.827 301.188 125.998 301.968 125.007 301.999H117.468C117.06 302.016 116.666 301.844 116.386 301.529C116.106 301.213 115.967 300.784 116.006 300.352L117.517 276.013L130 276Z" fill="#FCB692"/>
<path d="M158.025 207L129.192 217.638C121.558 220.456 116.429 227.61 116.249 235.691L115 293H129.829L141.072 236.361L179 233.993L158.025 207Z" fill="#11163D"/>
<path fill-rule="evenodd" clip-rule="evenodd" d="M170.07 148H191.803C195.376 148.005 198.794 149.453 201.28 152.015C203.765 154.576 205.105 158.033 204.994 161.596L203.154 207H156.631L156.705 188.776L156.158 189.645L155.052 191.394L154.368 192.461C153.955 193.102 153.489 193.708 152.976 194.272C150.901 196.537 148.109 198.021 145.068 198.478C142.061 198.945 138.984 198.353 136.366 196.803L135.893 196.517L135.657 196.369L135.533 196.282L135.11 195.972L134.277 195.351L132.611 194.111C130.39 192.44 128.202 190.724 126.047 188.963C125.619 188.605 125.187 188.252 124.756 187.899C124.108 187.369 123.461 186.839 122.827 186.295L121.285 184.993L120.489 184.311L120.091 183.976C119.905 183.951 119.93 183.603 120.887 181.805C121.766 180.178 122.772 178.622 123.896 177.153C125.151 175.54 125.462 175.379 125.562 175.54L126.034 175.763L127.004 176.16L128.894 177.053C129.64 177.411 130.386 177.781 131.132 178.152C131.629 178.399 132.126 178.646 132.623 178.889C135.127 180.113 137.601 181.399 140.046 182.747L141.873 183.752L142.085 183.876L143.042 182.053C145.615 177.153 148.239 172.29 150.974 167.476C153.262 163.445 155.649 159.45 158.135 155.53C160.324 150.932 164.969 148.001 170.07 148ZM142.792 184.282L143.204 184.521L143.266 184.559C143.138 184.421 142.973 184.325 142.792 184.282ZM142.792 184.282L142.756 184.261H142.669C142.711 184.265 142.752 184.272 142.792 184.282Z" fill="#6BADEE"/>
<path d="M167.317 197C167.197 197 167.087 196.929 167.033 196.816C166.98 196.702 166.991 196.567 167.063 196.466L175.452 185.105C175.565 184.979 175.751 184.965 175.88 185.072C176.009 185.18 176.038 185.374 175.947 185.519L167.558 196.88C167.499 196.955 167.411 196.999 167.317 197Z" fill="#151B59"/>
<path d="M197.386 207H157.667V218.4C151.399 221.744 147.414 228.209 147.239 235.319L146 293H160.738L171.885 236.337L192.445 234.786H192.668C197.783 234.674 203.505 229.936 203.616 224.862L204 207.025L197.386 207Z" fill="#151B59"/>
<path d="M183 197.349C179.47 198.019 174.834 199.701 172.223 198.678C170.446 198.019 167.252 195.151 168.159 193.116C169.066 191.082 180.937 191 180.937 191L183 197.349Z" fill="#FCB692"/>
<path d="M204.153 154.082C206.274 158.245 208.147 162.52 209.921 166.833C210.806 168.992 211.67 171.158 212.513 173.334L212.823 174.146L213.084 174.884L213.357 175.696C213.675 176.806 213.879 177.945 213.964 179.096C214.436 186.122 210.169 192.592 203.558 194.873L202.789 195.123L202.367 195.223L201.524 195.435L199.837 195.848C198.708 196.11 197.579 196.385 196.438 196.623C194.164 197.123 191.878 197.569 189.579 197.96C188.425 198.148 187.272 198.36 186.118 198.523L184.382 198.786L183.513 198.911L183.079 198.973C182.968 199.098 182.732 198.848 182 196.935C181.34 195.194 180.793 193.411 180.363 191.597C179.904 189.597 179.953 189.26 180.115 189.297L180.512 189.097L181.305 188.71L182.881 187.935C183.935 187.41 185.002 186.922 186.056 186.422C188.173 185.43 190.311 184.493 192.469 183.609C193.536 183.147 194.627 182.747 195.706 182.359L197.331 181.734L198.15 181.359L198.559 181.209C198.695 181.056 198.742 180.843 198.683 180.647C198.664 180.582 198.619 180.528 198.559 180.497H198.485V180.422L198.113 179.634C197.137 177.517 196.182 175.388 195.247 173.246C193.387 168.971 191.625 164.645 190.112 160.22C188.835 156.387 190.695 152.209 194.385 150.623C198.075 149.037 202.354 150.575 204.215 154.157L204.153 154.082Z" fill="#6BADEE"/>
<path d="M122.725 168.183C120.922 167.274 119.266 169.942 119.002 172.019C118.971 173.714 119.314 175.401 120.013 177L124 174.014C122.388 171.511 123.634 168.643 122.725 168.183Z" fill="#FCB692"/>
<path d="M158.291 219C158.15 218.995 158.031 218.878 158.005 218.719C157.979 218.56 158.053 218.402 158.183 218.339L167.559 214.04C167.66 213.979 167.782 213.988 167.875 214.065C167.968 214.141 168.015 214.271 167.996 214.401C167.977 214.53 167.896 214.636 167.787 214.674L158.411 218.972L158.291 219Z" fill="#EDF2F4"/>
<path d="M186.797 130.361C186.451 132.905 186.344 135.477 186.477 138.042C186.551 139.285 186.686 140.615 186.883 141.933C187.08 143.294 187.355 144.643 187.708 145.972C188.899 150.51 186.345 155.192 181.91 156.596C177.476 158.001 172.733 155.631 171.147 151.218C170.593 149.552 169.916 147.862 169.449 146.097C168.981 144.332 168.477 142.505 168.108 140.653C167.386 136.93 167.015 133.147 167 129.354V129.118C166.966 123.564 171.395 119.035 176.893 119C182.39 118.966 186.874 123.44 186.908 128.994C186.899 129.451 186.862 129.908 186.797 130.361Z" fill="#FCB692"/>
<path d="M182.944 139.35C183.763 145.121 175.381 153.052 172.029 146.582C166.844 136.588 182.944 139.35 182.944 139.35Z" fill="#DD8B66"/>
<path d="M185.631 131.148C185.631 131.073 185.631 131.148 185.631 131.148V131.247L185.497 131.496L185.205 132.044L184.607 133.29C184.205 134.099 183.827 134.946 183.462 135.78C183.096 136.615 182.743 137.474 182.401 138.271C182.055 139.13 181.648 139.963 181.183 140.761L180.415 142.007C178.585 145.004 175.128 146.529 171.738 145.834C168.348 145.138 165.735 142.368 165.18 138.881C164.837 136.037 164.985 133.154 165.618 130.363C165.881 128.985 166.214 127.621 166.618 126.279C166.813 125.606 167.032 124.921 167.276 124.249L167.666 123.215C167.727 123.041 167.812 122.854 167.885 122.667L168.19 121.982C169.664 118.572 172.866 116.278 176.506 116.023C180.146 115.769 183.624 117.597 185.539 120.77C187.453 123.943 187.489 127.939 185.631 131.148Z" fill="#FCB692"/>
<path d="M177.5 128C177.776 128 178 127.776 178 127.5C178 127.224 177.776 127 177.5 127C177.224 127 177 127.224 177 127.5C177 127.776 177.224 128 177.5 128Z" fill="#151B59"/>
<path d="M168.5 128C168.776 128 169 127.776 169 127.5C169 127.224 168.776 127 168.5 127C168.224 127 168 127.224 168 127.5C168 127.776 168.224 128 168.5 128Z" fill="#151B59"/>
<path d="M173.898 135L171 134.326L172.358 128L172.811 128.11L171.555 133.946L174 134.522L173.898 135Z" fill="#DD8B66"/>
<path d="M181.6 125C180.1 123.547 177.025 123.432 177 123.432V123C178.857 123.049 180.631 123.658 182 124.716L181.6 125Z" fill="#151B59"/>
<path d="M165.394 124L165 123.78C166.316 123.056 168.255 122.811 170 123.15L169.796 123.439C168.256 123.154 166.56 123.37 165.394 124Z" fill="#151B59"/>
<path d="M177.993 136C176.358 136.52 173 137.19 173 137.19C173.982 137.816 175.238 138.098 176.483 137.97C178.193 137.61 177.993 136 177.993 136Z" fill="white"/>
<path d="M189.25 121.284C189.25 121.146 189.324 121.02 189.361 120.882C189.665 118.785 189.071 116.657 187.727 115.033L187.319 115.347C188.491 116.814 189.051 118.688 188.878 120.568C189.002 115.548 183.519 113.703 180.078 114.079C175.065 110.314 166.154 117.481 169.891 119.1C173.086 120.325 176.534 120.718 179.917 120.242C181.029 121.543 182.312 122.683 183.729 123.631C181.625 127.861 183.049 136.006 184.967 133.546C190.302 126.442 190.76 122.526 189.25 121.284Z" fill="#151B59"/>
<path d="M185.505 129.984C187.059 127.384 191.383 130.425 189.559 133.44C185.289 140.367 181.937 136.078 185.505 129.984Z" fill="#FCB692"/>
<path d="M129.687 307H100.328C100.177 307.007 100.042 306.906 100.008 306.76C99.974 306.614 100.051 306.465 100.191 306.407L113.939 300.025C114.09 299.975 114.254 300.045 114.321 300.187C114.388 300.329 114.337 300.498 114.202 300.58L101.703 306.37H129.325L129.075 300.321C129.071 300.239 129.101 300.159 129.157 300.099C129.214 300.039 129.292 300.003 129.375 300C129.543 300 129.681 300.131 129.687 300.296L130 306.679C130.003 306.763 129.972 306.844 129.913 306.905C129.854 306.965 129.772 307 129.687 307Z" fill="#6BADEE"/>
<path d="M127.592 228.979C129.122 225.429 128.307 221.665 125.771 220.572C123.235 219.479 119.939 221.471 118.408 225.021C116.878 228.571 117.693 232.335 120.229 233.428C122.765 234.521 126.061 232.53 127.592 228.979Z" fill="#1B256D"/>
<path d="M158.592 228.979C160.122 225.429 159.307 221.665 156.771 220.572C154.235 219.479 150.939 221.471 149.408 225.021C147.878 228.571 148.693 232.335 151.229 233.428C153.765 234.521 157.061 232.53 158.592 228.979Z" fill="#1B256D"/>
<path d="M189.42 122.945L168.772 118.201C168.189 118.068 167.68 117.697 167.357 117.169C167.035 116.641 166.925 116 167.051 115.387L167.956 111L193 116.761L192.096 121.148C191.827 122.42 190.63 123.223 189.42 122.945Z" fill="#FFCA55"/>
<path d="M193.847 117L168 113.331L168.524 111L194 116.35L193.847 117Z" fill="#EFAC26"/>
<rect x="161.831" y="108.431" width="1" height="38" transform="rotate(-77.67 161.831 108.431)" fill="#EFAC26"/>
<rect x="180.112" y="112.96" width="1" height="19" transform="rotate(-77.67 180.112 112.96)" fill="#FFCA55"/>
<path d="M195.179 128.999C195.127 128.992 195.08 128.952 195.046 128.888C195.013 128.823 194.996 128.74 195.001 128.655L195.613 115.318C195.613 115.142 195.699 115 195.806 115C195.913 115 196 115.142 196 115.318L195.388 128.655C195.393 128.749 195.372 128.841 195.332 128.907C195.292 128.973 195.236 129.007 195.179 128.999Z" fill="#151B59"/>
<path d="M179.349 160C178.528 160 177.71 159.916 176.907 159.749C171.382 158.843 167.509 153.841 168.05 148.308C168.064 148.196 168.137 148.099 168.241 148.055C168.346 148.01 168.467 148.025 168.558 148.092C168.649 148.16 168.697 148.271 168.683 148.383C168.457 152.919 171.24 157.07 175.543 158.614C179.846 160.158 184.66 158.733 187.408 155.102C189.255 152.49 189.939 149.149 188.876 147.479C188.785 147.33 188.833 147.136 188.983 147.046C189.134 146.955 189.329 147.003 189.42 147.152C190.584 149.036 189.951 152.615 187.927 155.466C186.011 158.306 182.792 160.007 179.349 160Z" fill="#EDF2F4"/>
<path d="M178.356 161C178.249 160.996 178.153 160.954 178.098 160.889L176.062 158.366C175.989 158.295 175.98 158.2 176.037 158.123C176.095 158.045 176.209 157.997 176.332 158C176.455 158.003 176.565 158.055 176.616 158.135L178.356 160.355L180.443 158.449C180.558 158.362 180.747 158.352 180.878 158.426C181.009 158.501 181.039 158.635 180.946 158.734L178.562 160.908C178.513 160.957 178.439 160.99 178.356 161Z" fill="#EDF2F4"/>
<path d="M188.304 188C188.16 188.001 188.036 187.894 188.006 187.743C187.977 187.593 188.051 187.441 188.183 187.381C191.475 185.922 200.242 181.832 201.255 180.425C202.099 179.238 199.627 172.437 197.866 168.424C197.818 168.269 197.887 168.1 198.025 168.03C198.164 167.961 198.329 168.014 198.409 168.153C198.891 169.25 203.076 178.941 201.737 180.825C200.399 182.709 188.907 187.768 188.473 187.987L188.304 188Z" fill="#EDF2F4"/>
<path d="M158.294 182.988C158.199 182.988 158.119 182.864 158.112 182.702C158.112 182.59 157.637 171.318 158.645 164.23C158.673 164.07 158.768 163.974 158.864 164.006C158.96 164.049 159.018 164.214 158.995 164.379C158.002 171.368 158.462 182.553 158.469 182.665C158.473 182.747 158.458 182.829 158.426 182.892C158.395 182.955 158.35 182.994 158.301 183L158.294 182.988Z" fill="#EDF2F4"/>
<path d="M194.985 240L190 239.258L192.867 219.066C193.88 212.157 199.646 207.036 206.452 207H220V212.118H206.452C202.119 212.138 198.447 215.397 197.802 219.796L194.985 240Z" fill="#CECECE"/>
<path d="M15 197V200.608V311H25.6654V200.608H75.08V311H85.7454V200.608H152.242V311H162.92V200.608H212.335V311H223V200.608V197H15Z" fill="#FFCA55"/>
<path d="M158.351 197V200.608H153V202.412H158.351V311H163.714V202.412V200.608H213.298V202.412H218.649V311H224V202.412V200.608V197H158.351Z" fill="#EFAC26"/>
<path d="M15 200V201.814H20V311H25V201.814V200H20H15Z" fill="#EFAC26"/>
<path d="M75 200V201.814H80V311H85V201.814V200H80H75Z" fill="#EFAC26"/>
<path d="M108.458 197H49.5419C48.6932 196.993 48.0068 196.326 48 195.5C48.0068 194.674 48.6932 194.007 49.5419 194H108.458C109.307 194.007 109.993 194.674 110 195.5C109.993 196.326 109.307 196.993 108.458 197Z" fill="#151B59"/>
<path d="M120.521 197H99.479C98.6649 196.993 98.0065 196.328 98 195.506C98 194.679 98.6602 194.007 99.479 194H120.521C121.335 194.007 121.993 194.672 122 195.494C122 196.321 121.34 196.993 120.521 197Z" fill="#6BADEE"/>
<path d="M100.461 194.998H52.0189C48.9838 194.858 46.4392 192.627 45.8661 189.603L41.0973 160.397C40.8145 159.056 41.1557 157.657 42.0227 156.604C42.8898 155.551 44.1863 154.96 45.5389 155.002H93.9308C96.985 155.118 99.5564 157.355 100.134 160.397L104.903 189.603C105.186 190.944 104.844 192.343 103.977 193.396C103.11 194.449 101.814 195.04 100.461 194.998Z" fill="#6BADEE"/>
<path d="M99.4176 194.996H51.0517C48.0023 194.88 45.435 192.643 44.8584 189.601L40.0972 160.397C39.8148 159.055 40.1554 157.657 41.0211 156.604C41.8868 155.551 43.1813 154.96 44.5318 155.002H92.8599C95.9427 155.077 98.5573 157.323 99.1412 160.397L103.902 189.601C104.187 190.952 103.841 192.36 102.963 193.415C102.086 194.471 100.777 195.054 99.4176 194.996Z" fill="#151B59"/>
<path fill-rule="evenodd" clip-rule="evenodd" d="M62.4166 177.999H81.8099C82.835 178.022 83.8078 177.577 84.4161 176.805C85.0388 175.942 85.1723 174.85 84.7738 173.879C84.1469 172.202 82.482 171.058 80.5834 171H61.139C60.1318 170.992 59.1817 171.437 58.5839 172.194C57.9612 173.057 57.8277 174.149 58.2262 175.121C58.8531 176.797 60.518 177.941 62.4166 177.999ZM59.0949 172.529C59.5824 171.909 60.3675 171.555 61.1901 171.585L80.5195 171.573C82.1504 171.628 83.5771 172.615 84.1095 174.058C84.4417 174.847 84.3416 175.739 83.8412 176.446C83.3695 177.054 82.6125 177.41 81.8099 177.402H62.4166C60.7857 177.347 59.359 176.36 58.8267 174.918C58.4944 174.128 58.5946 173.237 59.0949 172.529Z" fill="#EDF2F4"/>
<path d="M50.293 97H37V126H58V104.647L50.293 97Z" fill="#151B59"/>
<path d="M52.6857 132H31.3143C31.1407 132 31 131.861 31 131.691V102.309C31 102.139 31.1407 102 31.3143 102H44.816C44.9896 102 45.1303 102.139 45.1303 102.309C45.1303 102.48 44.9896 102.619 44.816 102.619H31.5783V131.381H52.3714V110.057C52.3714 109.886 52.5121 109.748 52.6857 109.748C52.8593 109.748 53 109.886 53 110.057V131.691C53 131.861 52.8593 132 52.6857 132Z" fill="#6BADEE"/>
<path d="M43.7083 128.5H34.2917C34.1306 128.5 34 128.388 34 128.25C34 128.112 34.1306 128 34.2917 128H43.7083C43.8694 128 44 128.112 44 128.25C44 128.388 43.8694 128.5 43.7083 128.5Z" fill="#6BADEE"/>
<path d="M47.6935 125.5H34.3065C34.1372 125.5 34 125.388 34 125.25C34 125.112 34.1372 125 34.3065 125H47.6935C47.8628 125 48 125.112 48 125.25C48 125.388 47.8628 125.5 47.6935 125.5Z" fill="#6BADEE"/>
<path d="M47.6935 120.5H34.3065C34.1372 120.5 34 120.388 34 120.25C34 120.112 34.1372 120 34.3065 120H47.6935C47.8628 120 48 120.112 48 120.25C48 120.388 47.8628 120.5 47.6935 120.5Z" fill="#6BADEE"/>
<path d="M45.6819 116.5H34.3181C34.1424 116.5 34 116.388 34 116.25C34 116.112 34.1424 116 34.3181 116H45.6819C45.8576 116 46 116.112 46 116.25C46 116.388 45.8576 116.5 45.6819 116.5Z" fill="#6BADEE"/>
<path d="M47.6935 113.5H34.3065C34.1372 113.5 34 113.388 34 113.25C34 113.112 34.1372 113 34.3065 113H47.6935C47.8628 113 48 113.112 48 113.25C48 113.388 47.8628 113.5 47.6935 113.5Z" fill="#6BADEE"/>
<path d="M40.6783 109.5H34.3217C34.144 109.5 34 109.388 34 109.25C34 109.112 34.144 109 34.3217 109H40.6783C40.856 109 41 109.112 41 109.25C41 109.388 40.856 109.5 40.6783 109.5Z" fill="#6BADEE"/>
<path fill-rule="evenodd" clip-rule="evenodd" d="M45.2957 110H52.6966C52.8186 110.003 52.93 109.931 52.9771 109.819C53.0242 109.706 52.9973 109.576 52.9094 109.492L45.5085 102.091C45.4239 102.003 45.294 101.976 45.1814 102.023C45.0689 102.07 44.9969 102.181 45.0001 102.303V109.704C45.0001 109.868 45.1324 110 45.2957 110ZM51.9991 109.409H45.6031L45.5912 103.025L51.9991 109.409Z" fill="#6BADEE"/>
<path d="M78.037 196.659C77.0815 196.658 76.1418 196.902 75.3082 197.368C74.4781 197.861 73.7607 198.522 73.2025 199.309C72.0998 200.944 71.3254 202.777 70.9223 204.707C70.115 208.617 69.7845 212.609 69.9379 216.598C70.0999 224.608 70.4239 232.631 70.4862 240.654C70.8378 256.714 69.9631 272.777 67.8695 288.704C66.7791 296.656 64.9479 304.489 62.3995 312.101C61.0875 315.91 59.4187 319.587 57.4155 323.084C56.342 324.757 55.4284 326.527 54.6867 328.37C53.9786 330.206 53.644 332.163 53.7024 334.129C53.7924 336.089 54.2933 338.009 55.1727 339.764C56.0776 341.517 57.227 343.134 58.5867 344.565C61.3421 347.447 64.4976 349.918 67.9568 351.904C74.9644 355.777 82.3607 358.904 90.0236 361.233C105.38 365.881 121.06 369.385 136.936 371.718C152.798 374.206 168.759 375.985 184.758 377.316C216.756 379.977 248.89 380.948 281 380.861V383C248.84 382.876 216.668 381.756 184.621 378.846C168.597 377.403 152.623 375.512 136.737 372.937C120.819 370.495 105.106 366.878 89.7246 362.116C82.0163 359.717 74.5824 356.515 67.5456 352.563C64.0183 350.545 60.7998 348.032 57.9887 345.1C56.5922 343.615 55.4134 341.94 54.4874 340.125C53.5847 338.276 53.0797 336.259 53.0046 334.204C52.9545 332.151 53.3145 330.109 54.0637 328.196C54.2276 327.713 54.4275 327.243 54.6618 326.791C54.867 326.327 55.0958 325.875 55.3471 325.435L56.8672 322.835C58.8673 319.376 60.5361 315.736 61.8513 311.964C64.4033 304.373 66.2388 296.561 67.3337 288.629C69.4457 272.733 70.3413 256.699 70.0127 240.667C70.0127 232.644 69.6513 224.633 69.4395 216.611C69.2677 212.578 69.5857 208.539 70.3865 204.583C70.7882 202.557 71.5841 200.63 72.729 198.911C73.332 198.054 74.1089 197.333 75.0092 196.796C75.9341 196.278 76.9763 196.004 78.037 196V196.659Z" fill="#6BADEE"/>
<rect x="79" y="125" width="27" height="17" fill="#151B59"/>
<path d="M92.4625 134.977C92.4092 134.991 92.3532 134.991 92.2999 134.977L82.1577 128.575C82.0573 128.519 81.9967 128.412 82.0001 128.299C82.0036 128.185 82.0706 128.082 82.1743 128.032C82.2781 127.981 82.4016 127.992 82.4954 128.058L92.5 134.349L102.505 128.058C102.598 127.992 102.722 127.981 102.826 128.032C102.929 128.082 102.996 128.185 103 128.299C103.003 128.412 102.943 128.519 102.842 128.575L92.7001 134.977C92.624 135.008 92.5386 135.008 92.4625 134.977Z" fill="#EDF2F4"/>
<path d="M95.815 88C95.7272 87.9976 95.6524 87.9114 95.6348 87.7924C95.5014 86.9548 95.2946 86.1427 95.0191 85.3741C94.9896 85.2907 94.9945 85.1918 95.0321 85.1148C95.0696 85.0377 95.134 84.9942 95.201 85.0006C95.268 85.007 95.3275 85.0623 95.357 85.1458C95.6433 85.951 95.8577 86.8014 95.9953 87.6783C96.0064 87.7457 95.9977 87.8166 95.9709 87.875C95.9441 87.9335 95.9015 87.9748 95.8526 87.9896L95.815 88Z" fill="#151B59"/>
<path d="M94.6994 82.9881C94.6169 82.9927 94.536 82.9664 94.4767 82.9156C94.0573 82.3776 93.5826 81.875 93.0586 81.4142C92.9711 81.3111 92.9827 81.1669 93.0858 81.0758C93.1889 80.9847 93.3521 80.9745 93.4688 81.0518C94.0148 81.5352 94.5091 82.062 94.9455 82.6257C94.9909 82.6819 95.009 82.7518 94.9958 82.8198C94.9826 82.8879 94.9391 82.9485 94.8751 82.9881C94.8179 83.004 94.7566 83.004 94.6994 82.9881Z" fill="#151B59"/>
<path d="M82.4563 105C76.6705 104.978 71.5411 101.275 69.7016 95.7922C67.8621 90.3089 69.7211 84.2634 74.3242 80.7596C78.9274 77.2558 85.2519 77.072 90.0509 80.3026C90.1591 80.359 90.2252 80.4726 90.2208 80.5945C90.2164 80.7164 90.1423 80.8249 90.0303 80.8734C89.9183 80.9219 89.7884 80.9016 89.6965 80.8214C84.7978 77.516 78.2767 77.9697 73.8834 81.9216C69.4901 85.8734 68.3533 92.308 71.1269 97.5248C73.9005 102.742 79.8718 105.4 85.6067 103.972C91.3417 102.544 95.3667 97.3951 95.3671 91.4873C95.3671 91.3126 95.5088 91.171 95.6836 91.171C95.8583 91.171 96 91.3126 96 91.4873C96 95.0755 94.5723 98.5163 92.0316 101.051C89.4909 103.586 86.046 105.007 82.4563 105Z" fill="#151B59"/>
<path d="M81 98L88 91.5L81 85V98Z" fill="#6BADEE"/>
<path fill-rule="evenodd" clip-rule="evenodd" d="M11 148.5C11 149.881 12.1193 151 13.5 151C14.8807 151 16 149.881 16 148.5C16 147.119 14.8807 146 13.5 146C12.1193 146 11 147.119 11 148.5ZM11.6477 148.5C11.6477 147.477 12.477 146.648 13.5 146.648V146.635C13.9935 146.635 14.4666 146.832 14.8144 147.182C15.1622 147.532 15.3558 148.006 15.3523 148.5C15.3523 149.523 14.523 150.352 13.5 150.352C12.477 150.352 11.6477 149.523 11.6477 148.5Z" fill="#151B59"/>
<path fill-rule="evenodd" clip-rule="evenodd" d="M122 117C122 117.552 122.448 118 123 118C123.552 118 124 117.552 124 117C124 116.448 123.552 116 123 116C122.448 116 122 116.448 122 117ZM122.459 117C122.459 116.701 122.701 116.459 123 116.459C123.299 116.459 123.541 116.701 123.541 117C123.541 117.299 123.299 117.541 123 117.541C122.701 117.541 122.459 117.299 122.459 117Z" fill="#151B59"/>
<path fill-rule="evenodd" clip-rule="evenodd" d="M240 183C240 183.552 240.448 184 241 184C241.552 184 242 183.552 242 183C242 182.448 241.552 182 241 182C240.448 182 240 182.448 240 183ZM240.459 183C240.459 182.701 240.701 182.459 241 182.459V182.477C241.292 182.477 241.531 182.708 241.541 183C241.541 183.299 241.299 183.541 241 183.541C240.701 183.541 240.459 183.299 240.459 183Z" fill="#151B59"/>
<path d="M24.8134 169C24.3642 169 24 168.636 24 168.187C24 168.084 24.0835 168 24.1866 168C24.2896 168 24.3731 168.084 24.3731 168.187C24.3731 168.43 24.5703 168.627 24.8134 168.627C24.9165 168.627 25 168.71 25 168.813C25 168.916 24.9165 169 24.8134 169Z" fill="#151B59"/>
<path d="M188.813 98C188.364 98 188 97.6358 188 97.1866C188 97.0835 188.084 97 188.187 97C188.29 97 188.373 97.0835 188.373 97.1866C188.373 97.4297 188.57 97.6269 188.813 97.6269C188.916 97.6269 189 97.7104 189 97.8134C189 97.9165 188.916 98 188.813 98Z" fill="#151B59"/>
<path fill-rule="evenodd" clip-rule="evenodd" d="M55.0001 85.4873C54.9931 86.3094 55.6492 86.9839 56.4712 86.9997C56.8773 87.0075 57.2692 86.8503 57.5573 86.564C57.8454 86.2777 58.0051 85.8868 57.9999 85.4806C57.9892 84.6585 57.3188 83.9982 56.4967 84C55.6745 84.0018 55.007 84.6651 55.0001 85.4873ZM55.4781 85.5248C55.464 84.9617 55.9082 84.4933 56.4712 84.4774C56.744 84.4697 57.0085 84.5714 57.2059 84.7598C57.4033 84.9483 57.5172 85.2078 57.5222 85.4806C57.5325 86.0438 57.0853 86.5092 56.5221 86.5214C55.959 86.5335 55.4921 86.0879 55.4781 85.5248Z" fill="#6BADEE"/>
<path d="M115.275 149C115.123 149 115 148.877 115 148.725C115 148.574 115.123 148.451 115.275 148.451C115.924 148.451 116.451 147.924 116.451 147.275C116.451 147.123 116.574 147 116.725 147C116.877 147 117 147.123 117 147.275C117 148.228 116.228 149 115.275 149Z" fill="#6BADEE"/>
<path d="M222.275 142C222.123 142 222 141.877 222 141.725C222 141.574 222.123 141.451 222.275 141.451C222.924 141.451 223.451 140.924 223.451 140.275C223.451 140.123 223.574 140 223.725 140C223.877 140 224 140.123 224 140.275C224 141.228 223.228 142 222.275 142Z" fill="#6BADEE"/>
<path d="M83.25 148C83.1119 148 83 147.855 83 147.675V143.325C83 143.145 83.1119 143 83.25 143C83.3881 143 83.5 143.145 83.5 143.325V147.675C83.5 147.855 83.3881 148 83.25 148Z" fill="#151B59"/>
<path d="M84.25 151C84.1119 151 84 150.855 84 150.676V146.324C84 146.145 84.1119 146 84.25 146C84.3881 146 84.5 146.145 84.5 146.324V150.676C84.5 150.855 84.3881 151 84.25 151Z" fill="#6BADEE"/>
<path d="M60.25 130C60.1119 130 60 129.862 60 129.691V123.309C60 123.138 60.1119 123 60.25 123C60.3881 123 60.5 123.138 60.5 123.309V129.691C60.5 129.862 60.3881 130 60.25 130Z" fill="#151B59"/>
<path d="M61.25 123C61.1119 123 61 122.887 61 122.748V120.252C61 120.113 61.1119 120 61.25 120C61.3881 120 61.5 120.113 61.5 120.252V122.738C61.5027 122.807 61.4776 122.873 61.4304 122.923C61.3832 122.972 61.3181 123 61.25 123Z" fill="#151B59"/>
<path d="M77.25 114C77.1119 114 77 113.862 77 113.691V108.309C77 108.138 77.1119 108 77.25 108C77.3881 108 77.5 108.138 77.5 108.309V113.679C77.5027 113.763 77.4776 113.845 77.4304 113.905C77.3832 113.966 77.3181 114 77.25 114Z" fill="#6BADEE"/>
<rect x="132" y="196" width="31" height="1" fill="white"/>
<rect x="133" y="196" width="31" height="1" fill="white"/>
<path fill-rule="evenodd" clip-rule="evenodd" d="M12.3056 196H42.6944C42.8632 196 43 195.885 43 195.744V194.256C43 194.115 42.8632 194 42.6944 194H12.3056C12.1368 194 12 194.115 12 194.256V195.744C12 195.885 12.1368 196 12.3056 196ZM42.3888 195.487H12.6234V194.544H42.3888V195.487Z" fill="#6BADEE"/>
<path fill-rule="evenodd" clip-rule="evenodd" d="M10.3056 194H40.6944C40.8632 194 41 193.885 41 193.744V192.256C41 192.115 40.8632 192 40.6944 192H10.3056C10.1368 192 10 192.115 10 192.256V193.744C10 193.885 10.1368 194 10.3056 194ZM40.3888 193.436H10.6112V192.41H40.3888V193.436Z" fill="#151B59"/>
<path fill-rule="evenodd" clip-rule="evenodd" d="M236.561 247.886L236.85 248L236.938 247.746C237.642 246.085 239.014 244.806 240.708 244.229C242.546 243.595 244.025 242.192 244.766 240.378C245.507 238.565 245.439 236.516 244.579 234.757C243.771 233.147 243.698 231.262 244.379 229.593C245.06 227.925 246.427 226.639 248.123 226.072C249.958 225.435 251.434 224.031 252.174 222.219C252.915 220.407 252.849 218.36 251.993 216.6C251.207 214.983 251.139 213.104 251.805 211.432C252.112 210.636 252.593 209.92 253.212 209.337C254.591 208.091 255.237 206.215 254.921 204.373C254.637 202.605 253.453 201.12 251.805 200.462L251.654 200.399C249.837 199.641 247.753 199.98 246.263 201.275C245.577 201.835 244.815 202.292 244.001 202.633C242.163 203.267 240.684 204.67 239.943 206.484C239.202 208.298 239.27 210.346 240.13 212.105C240.938 213.715 241.011 215.601 240.33 217.269C239.649 218.938 238.282 220.223 236.587 220.79C234.751 221.428 233.276 222.831 232.535 224.643C231.794 226.456 231.86 228.502 232.716 230.262C233.519 231.873 233.59 233.756 232.91 235.423C232.229 237.091 230.865 238.377 229.172 238.947C227.347 239.58 225.872 240.964 225.113 242.756L225 243.048L236.561 247.886ZM236.511 247.175L225.817 242.705H225.829C226.555 241.172 227.859 239.997 229.449 239.442C231.284 238.805 232.76 237.401 233.5 235.589C234.241 233.777 234.175 231.73 233.319 229.97C232.516 228.36 232.445 226.476 233.125 224.809C233.806 223.142 235.17 221.856 236.863 221.285C238.688 220.653 240.163 219.269 240.922 217.476C241.652 215.664 241.583 213.623 240.734 211.864C239.926 210.254 239.853 208.369 240.534 206.7C241.214 205.032 242.581 203.746 244.277 203.179C245.142 202.811 245.951 202.319 246.678 201.719C247.988 200.582 249.82 200.287 251.415 200.957L251.566 201.021C253.009 201.602 254.047 202.902 254.306 204.449C254.581 206.074 254.011 207.728 252.798 208.83C252.109 209.476 251.572 210.27 251.227 211.153C250.495 212.97 250.563 215.015 251.415 216.778C252.218 218.39 252.287 220.275 251.604 221.943C250.921 223.61 249.554 224.895 247.859 225.463C246.021 226.097 244.542 227.5 243.801 229.313C243.06 231.127 243.128 233.175 243.988 234.935C244.792 236.545 244.862 238.429 244.182 240.096C243.502 241.763 242.138 243.049 240.444 243.62C238.718 244.23 237.303 245.509 236.511 247.175Z" fill="#151B59"/>
<path fill-rule="evenodd" clip-rule="evenodd" d="M216.054 307.738L216.226 308L230 298.579L229.828 298.317C228.109 295.725 228.404 293.669 228.723 291.5C229.374 289.018 228.937 286.372 227.526 284.24C226.115 282.108 223.867 280.698 221.357 280.372C219.246 279.848 217.281 279.35 215.563 276.758C213.844 274.166 214.139 272.109 214.458 269.941C215.104 267.459 214.666 264.815 213.256 262.684C211.845 260.554 209.599 259.143 207.092 258.812C204.98 258.289 203.016 257.79 201.297 255.198C200.661 254.254 200.241 253.176 200.069 252.045C199.733 249.636 198.197 247.573 196.006 246.587C193.916 245.631 191.486 245.854 189.597 247.173L189.413 247.297C187.296 248.736 186.157 251.261 186.467 253.827C186.576 255.009 186.518 256.201 186.295 257.367C185.645 259.849 186.081 262.495 187.492 264.627C188.903 266.758 191.152 268.168 193.661 268.495C195.773 269.019 197.737 269.517 199.456 272.109C201.174 274.701 200.88 276.758 200.561 278.926C199.914 281.408 200.352 284.052 201.763 286.182C203.173 288.313 205.419 289.724 207.927 290.055C210.038 290.578 212.002 291.077 213.721 293.669C215.44 296.261 215.145 298.317 214.826 300.485C214.201 302.97 214.648 305.608 216.054 307.738ZM201.236 279.013C201.861 276.528 201.414 273.891 200.008 271.76L200.057 271.798C198.644 269.681 196.413 268.273 193.919 267.922C191.807 267.399 189.843 266.9 188.124 264.308C186.406 261.716 186.7 259.66 187.019 257.491C187.257 256.26 187.319 255.001 187.204 253.753C186.923 251.421 187.958 249.128 189.88 247.821L190.064 247.696C191.779 246.5 193.984 246.297 195.883 247.16C197.873 248.069 199.264 249.951 199.566 252.145C199.763 253.369 200.229 254.531 200.929 255.547C202.342 257.664 204.573 259.072 207.067 259.423C209.179 259.946 211.143 260.445 212.862 263.037C214.581 265.629 214.286 267.685 213.967 269.854C213.316 272.336 213.752 274.982 215.164 277.114C216.575 279.245 218.823 280.655 221.333 280.982C223.444 281.506 225.409 282.004 227.127 284.596C228.846 287.188 228.551 289.245 228.232 291.413C227.632 293.789 228.004 296.311 229.263 298.404L216.434 307.128C215.26 305.162 214.923 302.796 215.501 300.573C216.147 298.091 215.709 295.447 214.299 293.316C212.889 291.186 210.643 289.775 208.135 289.444C206.024 288.921 204.059 288.422 202.341 285.83C200.622 283.238 200.917 281.182 201.236 279.013Z" fill="#151B59"/>
<path d="M203.742 280.127C210.059 301.111 223.863 303 223.863 303C223.863 303 234.284 293.642 227.967 272.658C221.649 251.674 201.018 227 201.018 227C201.018 227 197.424 259.143 203.742 280.127Z" fill="#6BADEE"/>
<path d="M201.01 227L224 303C224 303 210.123 301.111 203.773 280.127C197.422 259.143 201.01 227 201.01 227Z" fill="#4686C5"/>
<path d="M209.282 260.211C206.819 286.439 221.311 295 221.311 295C221.311 295 237.169 289.446 239.656 263.205C242.143 236.964 230.323 200 230.323 200C230.323 200 211.769 233.982 209.282 260.211Z" fill="#6BADEE"/>
<path d="M231 200L221.705 295C221.705 295 206.72 286.501 209.298 260.211C211.876 233.92 231 200 231 200Z" fill="#4686C5"/>
<path fill-rule="evenodd" clip-rule="evenodd" d="M225.791 302.936H225.854L225.99 303C226.136 302.997 226.26 302.891 226.289 302.746C226.755 300.564 228.114 298.69 230.022 297.599C232.06 296.414 233.5 294.392 233.977 292.048C234.453 289.703 233.919 287.263 232.511 285.348C231.178 283.563 230.672 281.273 231.126 279.076C231.58 276.879 232.949 274.993 234.876 273.91C236.913 272.726 238.353 270.703 238.83 268.359C239.306 266.014 238.772 263.574 237.364 261.659C236.049 259.868 235.551 257.586 235.995 255.394C236.192 254.345 236.617 253.355 237.24 252.496C238.61 250.688 238.968 248.285 238.186 246.142C237.458 244.093 235.736 242.581 233.644 242.152H233.444C231.12 241.624 228.704 242.497 227.222 244.401C226.488 245.22 225.641 245.926 224.709 246.498C222.671 247.683 221.231 249.705 220.755 252.049C220.278 254.394 220.812 256.834 222.22 258.749C223.535 260.54 224.034 262.822 223.589 265.014C223.126 267.201 221.767 269.08 219.856 270.174C217.818 271.359 216.378 273.381 215.901 275.725C215.425 278.07 215.959 280.51 217.367 282.425C218.699 284.212 219.203 286.503 218.747 288.7C218.29 290.898 216.918 292.782 214.99 293.863C212.952 295.048 211.504 297.062 211.008 299.403C210.989 299.486 211.004 299.573 211.048 299.644C211.093 299.716 211.163 299.767 211.244 299.785L225.791 302.936ZM225.617 302.25L211.68 299.226C212.256 297.169 213.626 295.439 215.475 294.434C217.513 293.25 218.953 291.228 219.429 288.883C219.906 286.539 219.372 284.098 217.964 282.184C216.63 280.398 216.125 278.108 216.579 275.911C217.033 273.714 218.402 271.828 220.328 270.746C222.366 269.561 223.806 267.539 224.283 265.195C224.759 262.85 224.225 260.41 222.817 258.495C221.484 256.71 220.978 254.42 221.432 252.223C221.886 250.026 223.255 248.14 225.182 247.057C226.112 246.418 226.95 245.648 227.67 244.77C229.008 243.07 231.171 242.288 233.258 242.749H233.457C235.336 243.136 236.882 244.494 237.539 246.333C238.236 248.263 237.911 250.424 236.68 252.052C236.003 252.981 235.539 254.054 235.324 255.191C234.849 257.535 235.374 259.975 236.767 261.901C238.1 263.688 238.604 265.979 238.147 268.176C237.69 270.373 236.319 272.258 234.39 273.338C232.353 274.523 230.912 276.545 230.436 278.89C229.96 281.234 230.494 283.675 231.901 285.589C233.235 287.375 233.741 289.665 233.287 291.862C232.832 294.059 231.463 295.945 229.537 297.027C227.596 298.159 226.183 300.042 225.617 302.25Z" fill="#EDF2F4"/>
<path d="M224.046 268.75C215.791 291.905 226.93 303 226.93 303C226.93 303 242.5 301.657 250.731 278.464C258.962 255.271 256.722 219 256.722 219C256.722 219 232.277 245.519 224.046 268.75Z" fill="#6BADEE"/>
<path d="M257 219L226.986 303C226.986 303 215.787 291.907 224.025 268.717C232.262 245.528 257 219 257 219Z" fill="#4686C5"/>
<path d="M212.829 326H239.171L243 296H209L212.829 326Z" fill="#151B59"/>
</svg>
